Neuton-Extrabold.ufo
<glyph name="numbersign" format="1">
  <advance width="1238"/>
  <unicode hex="0023"/>
  <outline>
    <contour>
      <point x="234" y="-26" type="line"/>
      <point x="410" y="1146" type="line"/>
      <point x="623" y="1156" type="line"/>
      <point x="447" y="-19" type="line"/>
    </contour>
    <contour>
      <point x="114" y="650" type="line"/>
      <point x="169" y="872" type="line"/>
      <point x="1196" y="872" type="line"/>
      <point x="1143" y="650" type="line"/>
    </contour>
    <contour>
      <point x="42" y="266" type="line"/>
      <point x="97" y="488" type="line"/>
      <point x="1122" y="488" type="line"/>
      <point x="1068" y="266" type="line"/>
    </contour>
    <contour>
      <point x="589" y="-26" type="line"/>
      <point x="765" y="1146" type="line"/>
      <point x="979" y="1155" type="line"/>
      <point x="803" y="-19" type="line"/>
    </contour>
  </outline>
</glyph>
<glyph name="dollar" format="1">
  <advance width="1030"/>
  <unicode hex="0024"/>
  <outline>
    <contour>
      <point x="46" y="136" type="curve"/>
      <point x="80" y="468" type="line"/>
      <point x="257" y="439" type="line"/>
      <point x="319" y="212" type="line"/>
      <point x="357" y="163"/>
      <point x="423" y="138"/>
      <point x="487" y="138" type="curve" smooth="yes"/>
      <point x="574" y="138"/>
      <point x="655" y="185"/>
      <point x="655" y="288" type="curve" smooth="yes"/>
      <point x="655" y="446"/>
      <point x="72" y="507"/>
      <point x="72" y="862" type="curve" smooth="yes"/>
      <point x="72" y="1145"/>
      <point x="305" y="1266"/>
      <point x="574" y="1266" type="curve" smooth="yes"/>
      <point x="681" y="1266"/>
      <point x="795" y="1235"/>
      <point x="898" y="1187" type="curve"/>
      <point x="898" y="1163"/>
      <point x="870" y="835"/>
      <point x="870" y="835" type="curve"/>
      <point x="697" y="865" type="line"/>
      <point x="658" y="1068" type="line"/>
      <point x="630" y="1091"/>
      <point x="537" y="1105"/>
      <point x="497" y="1105" type="curve" smooth="yes"/>
      <point x="443" y="1105"/>
      <point x="395" y="1078"/>
      <point x="395" y="1007" type="curve" smooth="yes"/>
      <point x="395" y="781"/>
      <point x="985" y="762"/>
      <point x="985" y="397" type="curve" smooth="yes"/>
      <point x="985" y="84"/>
      <point x="645" y="-23"/>
      <point x="458" y="-23" type="curve" smooth="yes"/>
      <point x="314" y="-23"/>
      <point x="110" y="55"/>
    </contour>
    <contour>
      <point x="305" y="-183" type="line"/>
      <point x="341" y="9" type="line"/>
      <point x="424" y="98" type="line"/>
      <point x="464" y="606" type="line"/>
      <point x="486" y="690" type="line"/>
      <point x="527" y="1206" type="line"/>
      <point x="467" y="1239" type="line"/>
      <point x="455" y="1390" type="line"/>
      <point x="743" y="1425" type="line"/>
      <point x="699" y="1239" type="line"/>
      <point x="612" y="1203" type="line"/>
      <point x="571" y="681" type="line"/>
      <point x="550" y="612" type="line"/>
      <point x="508" y="78" type="line"/>
      <point x="588" y="40" type="line"/>
      <point x="591" y="-158" type="line"/>
    </contour>
  </outline>
</glyph>
<glyph name="percent" format="1">
  <advance width="1686"/>
  <unicode hex="0025"/>
  <outline>
    <contour>
      <point x="45" y="896" type="curve" smooth="yes"/>
      <point x="45" y="1032"/>
      <point x="222" y="1208"/>
      <point x="400" y="1208" type="curve" smooth="yes"/>
      <point x="413" y="1208"/>
      <point x="409" y="1208"/>
      <point x="422" y="1206" type="curve"/>
      <point x="432" y="1087" type="line"/>
      <point x="429" y="1087"/>
      <point x="414" y="1090"/>
      <point x="412" y="1090" type="curve" smooth="yes"/>
      <point x="366" y="1090"/>
      <point x="351" y="1015"/>
      <point x="351" y="896" type="curve" smooth="yes"/>
      <point x="351" y="779"/>
      <point x="350" y="695"/>
      <point x="414" y="695" type="curve" smooth="yes"/>
      <point x="464" y="695"/>
      <point x="475" y="776"/>
      <point x="475" y="896" type="curve" smooth="yes"/>
      <point x="475" y="1038"/>
      <point x="472" y="1139"/>
      <point x="466" y="1208" type="curve"/>
      <point x="1225" y="1207" type="line"/>
      <point x="1234" y="1127" type="line"/>
      <point x="662" y="1105" type="line"/>
      <point x="754" y="1034"/>
      <point x="767" y="946"/>
      <point x="767" y="896" type="curve" smooth="yes"/>
      <point x="767" y="720"/>
      <point x="581" y="579"/>
      <point x="414" y="578" type="curve" smooth="yes"/>
      <point x="194" y="577"/>
      <point x="45" y="696"/>
    </contour>
    <contour>
      <point x="125" y="35" type="line"/>
      <point x="682" y="588" type="line"/>
      <point x="1225" y="1207" type="line"/>
      <point x="1527" y="1205" type="line"/>
      <point x="1527" y="1130" type="line"/>
      <point x="986" y="591" type="line"/>
      <point x="493" y="-19" type="line"/>
    </contour>
    <contour>
      <point x="913" y="276" type="curve" smooth="yes"/>
      <point x="913" y="445"/>
      <point x="1118" y="589"/>
      <point x="1288" y="589" type="curve" smooth="yes"/>
      <point x="1472" y="589"/>
      <point x="1640" y="451"/>
      <point x="1640" y="273" type="curve" smooth="yes"/>
      <point x="1640" y="104"/>
      <point x="1451" y="-36"/>
      <point x="1290" y="-36" type="curve" smooth="yes"/>
      <point x="1076" y="-36"/>
      <point x="913" y="86"/>
    </contour>
    <contour>
      <point x="1223" y="266" type="curve" smooth="yes"/>
      <point x="1223" y="149"/>
      <point x="1229" y="87"/>
      <point x="1290" y="87" type="curve" smooth="yes"/>
      <point x="1334" y="87"/>
      <point x="1344" y="148"/>
      <point x="1344" y="269" type="curve" smooth="yes"/>
      <point x="1344" y="389"/>
      <point x="1325" y="474"/>
      <point x="1288" y="474" type="curve" smooth="yes"/>
      <point x="1232" y="474"/>
      <point x="1223" y="380"/>
    </contour>
  </outline>
</glyph>
<glyph name="ampersand" format="1">
  <advance width="1480"/>
  <unicode hex="0026"/>
  <outline>
    <contour>
      <point x="51" y="280" type="curve" smooth="yes"/>
      <point x="51" y="499"/>
      <point x="206" y="587"/>
      <point x="360" y="664" type="curve"/>
      <point x="279" y="738"/>
      <point x="242" y="853"/>
      <point x="242" y="935" type="curve" smooth="yes"/>
      <point x="242" y="1151"/>
      <point x="447" y="1273"/>
      <point x="630" y="1273" type="curve" smooth="yes"/>
      <point x="776" y="1273"/>
      <point x="908" y="1192"/>
      <point x="908" y="1024" type="curve" smooth="yes"/>
      <point x="908" y="873"/>
      <point x="843" y="795"/>
      <point x="753" y="731" type="curve"/>
      <point x="753" y="715" type="line"/>
      <point x="899" y="563" type="line"/>
      <point x="1029" y="741" type="line"/>
      <point x="948" y="780" type="line"/>
      <point x="972" y="940" type="line"/>
      <point x="1437" y="940" type="line"/>
      <point x="1415" y="780" type="line"/>
      <point x="1241" y="722" type="line"/>
      <point x="1028" y="429" type="line"/>
      <point x="1118" y="335"/>
      <point x="1246" y="205"/>
      <point x="1340" y="162" type="curve" smooth="yes"/>
      <point x="1386" y="141" type="line"/>
      <point x="1356" y="6" type="line"/>
      <point x="1330" y="-2"/>
      <point x="1229" y="-18"/>
      <point x="1175" y="-18" type="curve" smooth="yes"/>
      <point x="1037" y="-18"/>
      <point x="943" y="33"/>
      <point x="862" y="120" type="curve" smooth="yes"/>
      <point x="828" y="157" type="line"/>
      <point x="728" y="37"/>
      <point x="576" y="-29"/>
      <point x="430" y="-29" type="curve" smooth="yes"/>
      <point x="232" y="-29"/>
      <point x="51" y="24"/>
    </contour>
    <contour>
      <point x="383" y="393" type="curve" smooth="yes"/>
      <point x="383" y="286"/>
      <point x="459" y="204"/>
      <point x="548" y="204" type="curve" smooth="yes"/>
      <point x="599" y="204"/>
      <point x="652" y="232"/>
      <point x="702" y="293" type="curve"/>
      <point x="473" y="546" type="line"/>
      <point x="464" y="550" type="line"/>
      <point x="415" y="510"/>
      <point x="383" y="462"/>
    </contour>
    <contour>
      <point x="511" y="1029" type="curve" smooth="yes"/>
      <point x="511" y="977"/>
      <point x="574" y="899"/>
      <point x="625" y="846" type="curve"/>
      <point x="648" y="881"/>
      <point x="662" y="922"/>
      <point x="662" y="973" type="curve" smooth="yes"/>
      <point x="662" y="1063"/>
      <point x="618" y="1102"/>
      <point x="577" y="1102" type="curve" smooth="yes"/>
      <point x="543" y="1102"/>
      <point x="511" y="1075"/>
    </contour>
  </outline>
</glyph>
<glyph name="quotesingle" format="1">
  <advance width="414"/>
  <unicode hex="0027"/>
  <outline>
    <contour>
      <point x="50" y="1302" type="line"/>
      <point x="361" y="1278" type="line"/>
      <point x="300" y="920" type="line"/>
      <point x="125" y="894" type="line"/>
    </contour>
  </outline>
</glyph>
<glyph name="asterisk" format="1">
  <advance width="828"/>
  <unicode hex="002A"/>
  <outline>
    <contour>
      <point x="41" y="913" type="line"/>
      <point x="123" y="1088" type="line"/>
      <point x="356" y="993" type="line"/>
      <point x="301" y="1300" type="line"/>
      <point x="490" y="1275" type="line"/>
      <point x="464" y="1005" type="line"/>
      <point x="744" y="1175" type="line"/>
      <point x="781" y="989" type="line"/>
      <point x="526" y="906" type="line"/>
      <point x="768" y="714" type="line"/>
      <point x="597" y="623" type="line"/>
      <point x="452" y="824" type="line"/>
      <point x="326" y="548" type="line"/>
      <point x="187" y="686" type="line"/>
      <point x="358" y="876" type="line"/>
    </contour>
  </outline>
</glyph>
<glyph name="plus" format="1">
  <advance width="747"/>
  <unicode hex="002B"/>
  <outline>
    <contour>
      <point x="53" y="376" type="line"/>
      <point x="61" y="541" type="line"/>
      <point x="280" y="541" type="line"/>
      <point x="280" y="786" type="line"/>
      <point x="468" y="774" type="line"/>
      <point x="468" y="541" type="line"/>
      <point x="694" y="541" type="line"/>
      <point x="681" y="376" type="line"/>
      <point x="468" y="376" type="line"/>
      <point x="468" y="142" type="line"/>
      <point x="280" y="146" type="line"/>
      <point x="280" y="376" type="line"/>
    </contour>
  </outline>
</glyph>
<glyph name="hyphen" format="1">
  <advance width="717"/>
  <unicode hex="002D"/>
  <outline>
    <contour>
      <point x="61" y="357" type="line"/>
      <point x="76" y="535" type="line"/>
      <point x="656" y="557" type="line"/>
      <point x="641" y="372" type="line"/>
    </contour>
  </outline>
</glyph>
<glyph name="zero" format="1">
  <advance width="1058"/>
  <unicode hex="0030"/>
  <outline>
    <contour>
      <point x="55" y="583" type="curve" smooth="yes"/>
      <point x="55" y="1062"/>
      <point x="324" y="1207"/>
      <point x="544" y="1207" type="curve" smooth="yes"/>
      <point x="784" y="1207"/>
      <point x="1001" y="1068"/>
      <point x="1001" y="583" type="curve" smooth="yes"/>
      <point x="1001" y="126"/>
      <point x="739" y="-27"/>
      <point x="525" y="-27" type="curve" smooth="yes"/>
      <point x="303" y="-27"/>
      <point x="55" y="93"/>
    </contour>
    <contour>
      <point x="447" y="591" type="curve" smooth="yes"/>
      <point x="447" y="270"/>
      <point x="464" y="141"/>
      <point x="535" y="141" type="curve" smooth="yes"/>
      <point x="592" y="141"/>
      <point x="610" y="276"/>
      <point x="610" y="593" type="curve" smooth="yes"/>
      <point x="610" y="928"/>
      <point x="588" y="1026"/>
      <point x="519" y="1026" type="curve" smooth="yes"/>
      <point x="469" y="1026"/>
      <point x="447" y="927"/>
    </contour>
  </outline>
</glyph>
<glyph name="one" format="1">
  <advance width="893"/>
  <unicode hex="0031"/>
  <outline>
    <contour>
      <point x="43" y="-5" type="line"/>
      <point x="60" y="124" type="line"/>
      <point x="284" y="191" type="line"/>
      <point x="284" y="915" type="line"/>
      <point x="68" y="915" type="line"/>
      <point x="80" y="1082" type="line"/>
      <point x="576" y="1186" type="line"/>
      <point x="667" y="1186" type="line"/>
      <point x="667" y="178" type="line"/>
      <point x="904" y="132" type="line"/>
      <point x="891" y="-5" type="line"/>
    </contour>
  </outline>
</glyph>
<glyph name="two" format="1">
  <advance width="1049"/>
  <unicode hex="0032"/>
  <outline>
    <contour>
      <point x="63" y="213" type="line"/>
      <point x="281" y="371" type="line" smooth="yes"/>
      <point x="371" y="436"/>
      <point x="535" y="585"/>
      <point x="535" y="736" type="curve" smooth="yes"/>
      <point x="535" y="928"/>
      <point x="464" y="994"/>
      <point x="382" y="994" type="curve" smooth="yes"/>
      <point x="364" y="994"/>
      <point x="346" y="990"/>
      <point x="328" y="985" type="curve"/>
      <point x="259" y="607" type="line"/>
      <point x="101" y="634" type="line"/>
      <point x="50" y="1006" type="line"/>
      <point x="163" y="1134"/>
      <point x="392" y="1212"/>
      <point x="575" y="1212" type="curve" smooth="yes"/>
      <point x="849" y="1212"/>
      <point x="966" y="1042"/>
      <point x="966" y="889" type="curve" smooth="yes"/>
      <point x="966" y="581"/>
      <point x="690" y="394"/>
      <point x="521" y="291" type="curve" smooth="yes"/>
      <point x="451" y="249" type="line"/>
      <point x="728" y="249" type="line"/>
      <point x="840" y="451" type="line"/>
      <point x="1001" y="435" type="line"/>
      <point x="950" y="0" type="line"/>
      <point x="69" y="0" type="line"/>
    </contour>
  </outline>
</glyph>
<glyph name="three" format="1">
  <advance width="1056"/>
  <unicode hex="0033"/>
  <outline>
    <contour>
      <point x="60" y="9" type="curve"/>
      <point x="135" y="455" type="line"/>
      <point x="315" y="435" type="line"/>
      <point x="343" y="160" type="line"/>
      <point x="364" y="155"/>
      <point x="386" y="152"/>
      <point x="409" y="152" type="curve" smooth="yes"/>
      <point x="500" y="152"/>
      <point x="592" y="203"/>
      <point x="592" y="317" type="curve" smooth="yes"/>
      <point x="592" y="456"/>
      <point x="500" y="558"/>
      <point x="284" y="529" type="curve"/>
      <point x="244" y="657" type="line"/>
      <point x="440" y="693"/>
      <point x="568" y="771"/>
      <point x="568" y="877" type="curve" smooth="yes"/>
      <point x="568" y="1007"/>
      <point x="472" y="1065"/>
      <point x="376" y="1065" type="curve" smooth="yes"/>
      <point x="361" y="1065"/>
      <point x="347" y="1063"/>
      <point x="333" y="1061" type="curve"/>
      <point x="275" y="729" type="line"/>
      <point x="109" y="740" type="line"/>
      <point x="44" y="1118" type="line"/>
      <point x="96" y="1170"/>
      <point x="315" y="1224"/>
      <point x="464" y="1224" type="curve" smooth="yes"/>
      <point x="746" y="1224"/>
      <point x="966" y="1169"/>
      <point x="966" y="965" type="curve" smooth="yes"/>
      <point x="966" y="803"/>
      <point x="736" y="713"/>
      <point x="616" y="673" type="curve"/>
      <point x="616" y="655" type="line"/>
      <point x="865" y="665"/>
      <point x="1008" y="556"/>
      <point x="1008" y="364" type="curve" smooth="yes"/>
      <point x="1008" y="158"/>
      <point x="742" y="-19"/>
      <point x="345" y="-19" type="curve" smooth="yes"/>
      <point x="236" y="-19"/>
      <point x="145" y="-10"/>
    </contour>
  </outline>
</glyph>
<glyph name="four" format="1">
  <advance width="1210"/>
  <unicode hex="0034"/>
  <outline>
    <contour>
      <point x="47" y="464" type="line"/>
      <point x="793" y="1243" type="line"/>
      <point x="919" y="1210" type="line"/>
      <point x="913" y="1090"/>
      <point x="907" y="863"/>
      <point x="907" y="682" type="curve" smooth="yes"/>
      <point x="907" y="514" type="line"/>
      <point x="1162" y="514" type="line"/>
      <point x="1146" y="316" type="line"/>
      <point x="907" y="316" type="line"/>
      <point x="907" y="183" type="line"/>
      <point x="1129" y="126" type="line"/>
      <point x="1121" y="-2" type="line"/>
      <point x="327" y="-2" type="line"/>
      <point x="331" y="107" type="line"/>
      <point x="579" y="182" type="line"/>
      <point x="579" y="319" type="line"/>
      <point x="72" y="319" type="line"/>
    </contour>
    <contour>
      <point x="362" y="514" type="line"/>
      <point x="578" y="514" type="line"/>
      <point x="578" y="817" type="line"/>
    </contour>
  </outline>
</glyph>
<glyph name="five" format="1">
  <advance width="921"/>
  <unicode hex="0035"/>
  <outline>
    <contour>
      <point x="43" y="7" type="curve"/>
      <point x="120" y="428" type="line"/>
      <point x="270" y="392" type="line"/>
      <point x="312" y="117" type="line"/>
      <point x="330" y="106"/>
      <point x="373" y="101"/>
      <point x="399" y="101" type="curve" smooth="yes"/>
      <point x="486" y="101"/>
      <point x="547" y="148"/>
      <point x="547" y="248" type="curve" smooth="yes"/>
      <point x="547" y="369"/>
      <point x="415" y="519"/>
      <point x="136" y="519" type="curve"/>
      <point x="259" y="1166" type="line"/>
      <point x="808" y="1198" type="line"/>
      <point x="765" y="888" type="line"/>
      <point x="367" y="875" type="line"/>
      <point x="355" y="770" type="line"/>
      <point x="717" y="768"/>
      <point x="873" y="578"/>
      <point x="872" y="381" type="curve" smooth="yes"/>
      <point x="871" y="105"/>
      <point x="591" y="-52"/>
      <point x="326" y="-52" type="curve" smooth="yes"/>
      <point x="234" y="-52"/>
      <point x="104" y="-33"/>
    </contour>
  </outline>
</glyph>
<glyph name="six" format="1">
  <advance width="1046"/>
  <unicode hex="0036"/>
  <outline>
    <contour>
      <point x="53" y="420" type="curve" smooth="yes"/>
      <point x="53" y="877"/>
      <point x="516" y="1144"/>
      <point x="802" y="1215" type="curve"/>
      <point x="869" y="1125" type="line"/>
      <point x="690" y="1029"/>
      <point x="478" y="858"/>
      <point x="438" y="664" type="curve"/>
      <point x="457" y="664" type="line"/>
      <point x="514" y="726"/>
      <point x="592" y="756"/>
      <point x="671" y="756" type="curve" smooth="yes"/>
      <point x="852" y="756"/>
      <point x="996" y="611"/>
      <point x="996" y="403" type="curve" smooth="yes"/>
      <point x="996" y="103"/>
      <point x="737" y="-19"/>
      <point x="521" y="-19" type="curve" smooth="yes"/>
      <point x="217" y="-19"/>
      <point x="53" y="185"/>
    </contour>
    <contour>
      <point x="425" y="366" type="curve" smooth="yes"/>
      <point x="425" y="256"/>
      <point x="442" y="122"/>
      <point x="526" y="122" type="curve" smooth="yes"/>
      <point x="573" y="122"/>
      <point x="628" y="188"/>
      <point x="628" y="330" type="curve" smooth="yes"/>
      <point x="628" y="387"/>
      <point x="647" y="554"/>
      <point x="541" y="554" type="curve" smooth="yes"/>
      <point x="487" y="554"/>
      <point x="455" y="527"/>
      <point x="431" y="500" type="curve"/>
      <point x="429" y="474"/>
      <point x="425" y="410"/>
    </contour>
  </outline>
</glyph>
<glyph name="seven" format="1">
  <advance width="995"/>
  <unicode hex="0037"/>
  <outline>
    <contour>
      <point x="51" y="682" type="line"/>
      <point x="64" y="1184" type="line"/>
      <point x="950" y="1184" type="line"/>
      <point x="950" y="1057" type="line"/>
      <point x="498" y="-33" type="line"/>
      <point x="102" y="6" type="line"/>
      <point x="651" y="888" type="line"/>
      <point x="284" y="888" type="line"/>
      <point x="183" y="655" type="line"/>
    </contour>
  </outline>
</glyph>
<glyph name="eight" format="1">
  <advance width="1043"/>
  <unicode hex="0038"/>
  <outline>
    <contour>
      <point x="48" y="270" type="curve" smooth="yes"/>
      <point x="48" y="391"/>
      <point x="107" y="495"/>
      <point x="262" y="558" type="curve"/>
      <point x="262" y="573" type="line"/>
      <point x="154" y="659"/>
      <point x="93" y="754"/>
      <point x="93" y="863" type="curve" smooth="yes"/>
      <point x="93" y="1032"/>
      <point x="236" y="1199"/>
      <point x="553" y="1199" type="curve" smooth="yes"/>
      <point x="792" y="1199"/>
      <point x="936" y="1064"/>
      <point x="936" y="925" type="curve" smooth="yes"/>
      <point x="936" y="834"/>
      <point x="863" y="738"/>
      <point x="743" y="681" type="curve"/>
      <point x="744" y="665" type="line"/>
      <point x="926" y="546"/>
      <point x="997" y="448"/>
      <point x="997" y="331" type="curve" smooth="yes"/>
      <point x="997" y="140"/>
      <point x="790" y="-27"/>
      <point x="485" y="-27" type="curve" smooth="yes"/>
      <point x="180" y="-27"/>
      <point x="48" y="120"/>
    </contour>
    <contour>
      <point x="390" y="347" type="curve" smooth="yes"/>
      <point x="390" y="224"/>
      <point x="442" y="115"/>
      <point x="566" y="115" type="curve" smooth="yes"/>
      <point x="623" y="115"/>
      <point x="664" y="157"/>
      <point x="664" y="193" type="curve" smooth="yes"/>
      <point x="664" y="272"/>
      <point x="557" y="325"/>
      <point x="404" y="454" type="curve"/>
      <point x="382" y="418"/>
      <point x="390" y="389"/>
    </contour>
    <contour>
      <point x="448" y="986" type="curve" smooth="yes"/>
      <point x="448" y="926"/>
      <point x="503" y="828"/>
      <point x="598" y="769" type="curve"/>
      <point x="632" y="792"/>
      <point x="637" y="830"/>
      <point x="637" y="874" type="curve" smooth="yes"/>
      <point x="637" y="999"/>
      <point x="566" y="1063"/>
      <point x="511" y="1063" type="curve" smooth="yes"/>
      <point x="476" y="1063"/>
      <point x="448" y="1037"/>
    </contour>
  </outline>
</glyph>
<glyph name="nine" format="1">
  <advance width="1019"/>
  <unicode hex="0039"/>
  <outline>
    <contour>
      <point x="49" y="758" type="curve" smooth="yes"/>
      <point x="49" y="1061"/>
      <point x="266" y="1217"/>
      <point x="506" y="1217" type="curve" smooth="yes"/>
      <point x="830" y="1217"/>
      <point x="967" y="1047"/>
      <point x="967" y="781" type="curve" smooth="yes"/>
      <point x="967" y="362"/>
      <point x="684" y="11"/>
      <point x="274" y="-25" type="curve"/>
      <point x="225" y="90" type="line"/>
      <point x="412" y="164"/>
      <point x="548" y="297"/>
      <point x="576" y="467" type="curve"/>
      <point x="568" y="476" type="line"/>
      <point x="521" y="435"/>
      <point x="429" y="422"/>
      <point x="354" y="422" type="curve" smooth="yes"/>
      <point x="216" y="422"/>
      <point x="49" y="534"/>
    </contour>
    <contour>
      <point x="409" y="866" type="curve" smooth="yes"/>
      <point x="409" y="702"/>
      <point x="431" y="623"/>
      <point x="489" y="623" type="curve" smooth="yes"/>
      <point x="512" y="623"/>
      <point x="544" y="630"/>
      <point x="578" y="659" type="curve"/>
      <point x="583" y="694"/>
      <point x="586" y="773"/>
      <point x="586" y="828" type="curve" smooth="yes"/>
      <point x="586" y="988"/>
      <point x="552" y="1067"/>
      <point x="488" y="1066" type="curve" smooth="yes"/>
      <point x="431" y="1065"/>
      <point x="409" y="1008"/>
    </contour>
  </outline>
</glyph>
<glyph name="equal" format="1">
  <advance width="768"/>
  <unicode hex="003D"/>
  <outline>
    <contour>
      <point x="65" y="557" type="line"/>
      <point x="76" y="745" type="line"/>
      <point x="701" y="745" type="line"/>
      <point x="688" y="557" type="line"/>
    </contour>
    <contour>
      <point x="68" y="276" type="line"/>
      <point x="79" y="464" type="line"/>
      <point x="704" y="464" type="line"/>
      <point x="691" y="276" type="line"/>
    </contour>
  </outline>
</glyph>
<glyph name="question" format="1">
  <advance width="751"/>
  <unicode hex="003F"/>
  <outline>
    <contour>
      <point x="43" y="1093" type="curve" smooth="yes"/>
      <point x="43" y="1197.01"/>
      <point x="118.576" y="1291"/>
      <point x="344" y="1291" type="curve" smooth="yes"/>
      <point x="469.667" y="1291"/>
      <point x="557.967" y="1251.44"/>
      <point x="616" y="1190.19" type="curve" smooth="yes"/>
      <point x="703.498" y="1097.86"/>
      <point x="735.878" y="992.991"/>
      <point x="735.878" y="873.096" type="curve" smooth="yes"/>
      <point x="735.878" y="517"/>
      <point x="430.188" y="628.483"/>
      <point x="430.188" y="448.315" type="curve" smooth="yes"/>
      <point x="430.188" y="426.19"/>
      <point x="436.542" y="398.179"/>
      <point x="449" y="362" type="curve"/>
      <point x="279" y="374" type="line"/>
      <point x="167.577" y="464.392"/>
      <point x="118.406" y="542.512"/>
      <point x="118.406" y="609.487" type="curve" smooth="yes"/>
      <point x="118.406" y="819.082"/>
      <point x="529.295" y="842.315"/>
      <point x="529.295" y="942.775" type="curve" smooth="yes"/>
      <point x="529.295" y="968.037"/>
      <point x="499.136" y="986.831"/>
      <point x="426.329" y="986.831" type="curve" smooth="yes"/>
      <point x="320.813" y="986.831"/>
      <point x="173.088" y="936.478"/>
      <point x="154" y="916" type="curve"/>
      <point x="106" y="937.207"/>
      <point x="43" y="1014.7"/>
    </contour>
    <contour>
      <point x="158" y="127" type="curve" smooth="yes"/>
      <point x="158" y="192"/>
      <point x="204" y="280"/>
      <point x="367" y="280" type="curve" smooth="yes"/>
      <point x="540" y="280"/>
      <point x="585" y="194"/>
      <point x="585" y="130" type="curve" smooth="yes"/>
      <point x="585" y="45"/>
      <point x="534" y="-26"/>
      <point x="366" y="-26" type="curve" smooth="yes"/>
      <point x="192" y="-26"/>
      <point x="158" y="54"/>
    </contour>
  </outline>
</glyph>
<glyph name="B" format="1">
  <advance width="1311"/>
  <unicode hex="0042"/>
  <outline>
    <contour>
      <point x="34" y="0" type="line"/>
      <point x="48" y="138" type="line"/>
      <point x="214" y="217" type="line"/>
      <point x="214" y="1008" type="line"/>
      <point x="45" y="1052" type="line"/>
      <point x="55" y="1211" type="line"/>
      <point x="194" y="1242"/>
      <point x="428" y="1257"/>
      <point x="722" y="1257" type="curve" smooth="yes"/>
      <point x="1050" y="1257"/>
      <point x="1200" y="1144"/>
      <point x="1200" y="951" type="curve" smooth="yes"/>
      <point x="1200" y="844"/>
      <point x="1104" y="735"/>
      <point x="997" y="694" type="curve"/>
      <point x="997" y="684" type="line"/>
      <point x="1121" y="678"/>
      <point x="1276" y="558"/>
      <point x="1276" y="390" type="curve" smooth="yes"/>
      <point x="1276" y="130"/>
      <point x="1043" y="0"/>
      <point x="628" y="0" type="curve" smooth="yes"/>
    </contour>
    <contour>
      <point x="586" y="186" type="line"/>
      <point x="728" y="186" type="line" smooth="yes"/>
      <point x="838" y="186"/>
      <point x="897" y="251"/>
      <point x="897" y="378" type="curve" smooth="yes"/>
      <point x="897" y="478"/>
      <point x="818" y="557"/>
      <point x="672" y="557" type="curve" smooth="yes"/>
      <point x="586" y="557" type="line"/>
    </contour>
    <contour>
      <point x="586" y="698" type="line"/>
      <point x="770" y="698" type="line"/>
      <point x="805" y="741"/>
      <point x="835" y="827"/>
      <point x="835" y="907" type="curve" smooth="yes"/>
      <point x="835" y="997"/>
      <point x="789" y="1080"/>
      <point x="650" y="1080" type="curve" smooth="yes"/>
      <point x="630" y="1080"/>
      <point x="608" y="1079"/>
      <point x="586" y="1075" type="curve"/>
    </contour>
  </outline>
</glyph>
<glyph name="C" format="1">
  <advance width="1235"/>
  <unicode hex="0043"/>
  <outline>
    <contour>
      <point x="36" y="583" type="curve" smooth="yes"/>
      <point x="36" y="933"/>
      <point x="245" y="1272"/>
      <point x="773" y="1272" type="curve" smooth="yes"/>
      <point x="896" y="1272"/>
      <point x="1075" y="1233"/>
      <point x="1148" y="1172" type="curve"/>
      <point x="1117" y="748" type="line"/>
      <point x="947" y="771" type="line"/>
      <point x="883" y="1003" type="line"/>
      <point x="837" y="1055"/>
      <point x="754" y="1091"/>
      <point x="674" y="1091" type="curve" smooth="yes"/>
      <point x="512" y="1091"/>
      <point x="428" y="934"/>
      <point x="428" y="676" type="curve" smooth="yes"/>
      <point x="428" y="379"/>
      <point x="593" y="205"/>
      <point x="815" y="205" type="curve" smooth="yes"/>
      <point x="960" y="205"/>
      <point x="1059" y="252"/>
      <point x="1141" y="313" type="curve"/>
      <point x="1200" y="178" type="line"/>
      <point x="1129" y="78"/>
      <point x="926" y="-29"/>
      <point x="686" y="-29" type="curve" smooth="yes"/>
      <point x="241" y="-29"/>
      <point x="36" y="203"/>
    </contour>
  </outline>
</glyph>
<glyph name="G" format="1">
  <advance width="1412"/>
  <unicode hex="0047"/>
  <outline>
    <contour>
      <point x="36" y="580" type="curve" smooth="yes"/>
      <point x="36" y="1028"/>
      <point x="413" y="1271"/>
      <point x="777" y="1271" type="curve" smooth="yes"/>
      <point x="1043" y="1271"/>
      <point x="1172" y="1221"/>
      <point x="1258" y="1185" type="curve"/>
      <point x="1217" y="746" type="line"/>
      <point x="1029" y="761" type="line"/>
      <point x="988" y="1009" type="line"/>
      <point x="930" y="1052"/>
      <point x="859" y="1087"/>
      <point x="730" y="1087" type="curve" smooth="yes"/>
      <point x="551" y="1087"/>
      <point x="444" y="978"/>
      <point x="444" y="696" type="curve" smooth="yes"/>
      <point x="444" y="365"/>
      <point x="563" y="195"/>
      <point x="752" y="195" type="curve" smooth="yes"/>
      <point x="832" y="195"/>
      <point x="884" y="205"/>
      <point x="925" y="255" type="curve"/>
      <point x="925" y="355" type="line"/>
      <point x="704" y="419" type="line"/>
      <point x="727" y="591" type="line"/>
      <point x="1377" y="591" type="line"/>
      <point x="1356" y="405" type="line"/>
      <point x="1261" y="363" type="line"/>
      <point x="1261" y="93" type="line"/>
      <point x="1175" y="38"/>
      <point x="913" y="-24"/>
      <point x="756" y="-24" type="curve" smooth="yes"/>
      <point x="276" y="-24"/>
      <point x="36" y="186"/>
    </contour>
  </outline>
</glyph>
<glyph name="H" format="1">
  <advance width="1609"/>
  <unicode hex="0048"/>
  <outline>
    <contour>
      <point x="34" y="1094" type="line"/>
      <point x="59" y="1244" type="line"/>
      <point x="749" y="1244" type="line"/>
      <point x="730" y="1094" type="line"/>
      <point x="593" y="1027" type="line"/>
      <point x="593" y="744" type="line"/>
      <point x="1010" y="744" type="line"/>
      <point x="1010" y="1020" type="line"/>
      <point x="859" y="1094" type="line"/>
      <point x="876" y="1244" type="line"/>
      <point x="1574" y="1244" type="line"/>
      <point x="1555" y="1094" type="line"/>
      <point x="1387" y="1027" type="line"/>
      <point x="1387" y="211" type="line"/>
      <point x="1566" y="148" type="line"/>
      <point x="1552" y="0" type="line"/>
      <point x="859" y="0" type="line"/>
      <point x="873" y="138" type="line"/>
      <point x="1010" y="217" type="line"/>
      <point x="1010" y="493" type="line"/>
      <point x="593" y="493" type="line"/>
      <point x="593" y="211" type="line"/>
      <point x="744" y="148" type="line"/>
      <point x="726" y="0" type="line"/>
      <point x="39" y="0" type="line"/>
      <point x="51" y="138" type="line"/>
      <point x="220" y="217" type="line"/>
      <point x="220" y="1020" type="line"/>
    </contour>
  </outline>
</glyph>
<glyph name="I" format="1">
  <advance width="816"/>
  <unicode hex="0049"/>
  <outline>
    <contour>
      <point x="34" y="1094" type="line"/>
      <point x="54" y="1244" type="line"/>
      <point x="781" y="1244" type="line"/>
      <point x="765" y="1084" type="line"/>
      <point x="586" y="1017" type="line"/>
      <point x="586" y="223" type="line"/>
      <point x="766" y="160" type="line"/>
      <point x="753" y="0" type="line"/>
      <point x="36" y="0" type="line"/>
      <point x="46" y="142" type="line"/>
      <point x="222" y="221" type="line"/>
      <point x="222" y="1020" type="line"/>
    </contour>
  </outline>
</glyph>
<glyph name="Q" format="1">
  <advance width="1384"/>
  <unicode hex="0051"/>
  <outline>
    <contour>
      <point x="36" y="609" type="curve" smooth="yes"/>
      <point x="36" y="994"/>
      <point x="299" y="1269"/>
      <point x="691" y="1269" type="curve" smooth="yes"/>
      <point x="1081" y="1269"/>
      <point x="1347" y="1086"/>
      <point x="1347" y="643" type="curve" smooth="yes"/>
      <point x="1347" y="321"/>
      <point x="1147" y="89"/>
      <point x="929" y="16" type="curve"/>
      <point x="981" y="-104"/>
      <point x="1123" y="-164"/>
      <point x="1274" y="-200" type="curve"/>
      <point x="1253" y="-335" type="line"/>
      <point x="1178" y="-359"/>
      <point x="1098" y="-373"/>
      <point x="1022" y="-373" type="curve" smooth="yes"/>
      <point x="815" y="-373"/>
      <point x="638" y="-272"/>
      <point x="660" y="-26" type="curve"/>
      <point x="643" y="-27"/>
      <point x="638" y="-27"/>
      <point x="621" y="-27" type="curve" smooth="yes"/>
      <point x="244" y="-27"/>
      <point x="36" y="229"/>
    </contour>
    <contour>
      <point x="431" y="681" type="curve" smooth="yes"/>
      <point x="431" y="409.948"/>
      <point x="539" y="221.229"/>
      <point x="765" y="187" type="curve"/>
      <point x="907" y="263.466"/>
      <point x="937" y="403.655"/>
      <point x="937" y="593" type="curve" smooth="yes"/>
      <point x="937" y="758.461"/>
      <point x="886" y="1064"/>
      <point x="633" y="1064" type="curve" smooth="yes"/>
      <point x="487" y="1064"/>
      <point x="431" y="918.404"/>
    </contour>
  </outline>
</glyph>
<glyph name="R" format="1">
  <advance width="1485"/>
  <unicode hex="0052"/>
  <outline>
    <contour>
      <point x="34" y="0" type="line"/>
      <point x="53" y="138" type="line"/>
      <point x="243" y="217" type="line"/>
      <point x="243" y="996" type="line"/>
      <point x="51" y="1043" type="line"/>
      <point x="63" y="1203" type="line"/>
      <point x="205" y="1232"/>
      <point x="405" y="1255"/>
      <point x="670" y="1255" type="curve" smooth="yes"/>
      <point x="1058" y="1255"/>
      <point x="1266" y="1167"/>
      <point x="1266" y="908" type="curve" smooth="yes"/>
      <point x="1266" y="729"/>
      <point x="1156" y="623"/>
      <point x="1032" y="572" type="curve"/>
      <point x="1032" y="571" type="line"/>
      <point x="1135" y="420" type="line" smooth="yes"/>
      <point x="1225" y="291.448"/>
      <point x="1326.77" y="215.154"/>
      <point x="1411" y="159" type="curve" smooth="yes"/>
      <point x="1450" y="133" type="line"/>
      <point x="1419" y="2" type="line"/>
      <point x="1382.88" y="-16.1486"/>
      <point x="1317.94" y="-26.2793"/>
      <point x="1254.09" y="-26.2793" type="curve" smooth="yes"/>
      <point x="1000.56" y="-26.2793"/>
      <point x="871.443" y="107.238"/>
      <point x="790" y="388" type="curve" smooth="yes"/>
      <point x="767" y="469" type="line"/>
      <point x="613" y="469" type="line"/>
      <point x="613" y="209" type="line"/>
      <point x="766" y="155" type="line"/>
      <point x="754" y="0" type="line"/>
    </contour>
    <contour>
      <point x="613" y="648" type="line"/>
      <point x="816" y="648" type="line"/>
      <point x="861" y="694"/>
      <point x="885" y="756"/>
      <point x="885" y="860" type="curve" smooth="yes"/>
      <point x="885" y="974"/>
      <point x="792" y="1075"/>
      <point x="646" y="1075" type="curve" smooth="yes"/>
      <point x="635" y="1075"/>
      <point x="624" y="1075"/>
      <point x="613" y="1074" type="curve"/>
    </contour>
  </outline>
</glyph>
<glyph name="T" format="1">
  <advance width="1297"/>
  <unicode hex="0054"/>
  <outline>
    <contour>
      <point x="37" y="1244" type="line"/>
      <point x="1261" y="1244" type="line"/>
      <point x="1229" y="786" type="line"/>
      <point x="1046" y="817" type="line"/>
      <point x="982" y="1072" type="line"/>
      <point x="818" y="1072" type="line"/>
      <point x="818" y="208" type="line"/>
      <point x="1030" y="153" type="line"/>
      <point x="1014" y="0" type="line"/>
      <point x="257" y="0" type="line"/>
      <point x="270" y="140" type="line"/>
      <point x="457" y="209" type="line"/>
      <point x="457" y="1072" type="line"/>
      <point x="297" y="1072" type="line"/>
      <point x="210" y="776" type="line"/>
      <point x="40" y="802" type="line"/>
    </contour>
  </outline>
</glyph>
<glyph name="X" format="1">
  <advance width="1413"/>
  <unicode hex="0058"/>
  <outline>
    <contour>
      <point x="34" y="0" type="line"/>
      <point x="59" y="157" type="line"/>
      <point x="188" y="233" type="line"/>
      <point x="514" y="591" type="line"/>
      <point x="173" y="1012" type="line"/>
      <point x="47" y="1066" type="line"/>
      <point x="75" y="1244" type="line"/>
      <point x="720" y="1244" type="line"/>
      <point x="693" y="1076" type="line"/>
      <point x="602" y="1010" type="line"/>
      <point x="782" y="790" type="line"/>
      <point x="921" y="1014" type="line"/>
      <point x="807" y="1084" type="line"/>
      <point x="834" y="1244" type="line"/>
      <point x="1342" y="1244" type="line"/>
      <point x="1318" y="1087" type="line"/>
      <point x="1188" y="1015" type="line"/>
      <point x="903" y="645" type="line"/>
      <point x="1275" y="225" type="line"/>
      <point x="1378" y="179" type="line"/>
      <point x="1352" y="0" type="line"/>
      <point x="708" y="0" type="line"/>
      <point x="737" y="166" type="line"/>
      <point x="827" y="231" type="line"/>
      <point x="653" y="436" type="line"/>
      <point x="482" y="232" type="line"/>
      <point x="625" y="167" type="line"/>
      <point x="594" y="0" type="line"/>
    </contour>
  </outline>
</glyph>
<glyph name="Z" format="1">
  <advance width="1142"/>
  <unicode hex="005A"/>
  <outline>
    <contour>
      <point x="34" y="236" type="line"/>
      <point x="665" y="1069" type="line"/>
      <point x="325" y="1069" type="line"/>
      <point x="262" y="812" type="line"/>
      <point x="62" y="844" type="line"/>
      <point x="73" y="1244" type="line"/>
      <point x="1104" y="1244" type="line"/>
      <point x="1096" y="1089" type="line"/>
      <point x="411" y="206" type="line"/>
      <point x="769" y="176" type="line"/>
      <point x="956" y="457" type="line"/>
      <point x="1106" y="434" type="line"/>
      <point x="1045" y="0" type="line"/>
      <point x="47" y="0" type="line"/>
    </contour>
  </outline>
</glyph>
<glyph name="asciicircum" format="1">
  <advance width="740"/>
  <unicode hex="005E"/>
  <outline>
    <contour>
      <point x="50" y="825" type="line"/>
      <point x="291" y="1237" type="line"/>
      <point x="435" y="1250" type="line"/>
      <point x="690" y="823" type="line"/>
      <point x="568" y="789" type="line"/>
      <point x="352" y="963" type="line"/>
      <point x="341" y="963" type="line"/>
      <point x="164" y="796" type="line"/>
    </contour>
  </outline>
</glyph>
<glyph name="underscore" format="1">
  <advance width="965"/>
  <unicode hex="005F"/>
  <outline>
    <contour>
      <point x="60" y="-130" type="line"/>
      <point x="76" y="52" type="line"/>
      <point x="903" y="52" type="line"/>
      <point x="887" y="-130" type="line"/>
    </contour>
  </outline>
</glyph>
<glyph name="grave" format="1">
  <advance width="584"/>
  <unicode hex="0060"/>
  <outline>
    <contour>
      <point x="540" y="1333" type="line"/>
      <point x="395" y="1638" type="line"/>
      <point x="45" y="1628" type="line"/>
      <point x="306" y="1307" type="line"/>
    </contour>
  </outline>
</glyph>
<glyph name="a" format="1">
  <advance width="907"/>
  <unicode hex="0061"/>
  <outline>
    <contour>
      <point x="478" y="539" type="curve"/>
      <point x="478" y="637" type="line" smooth="yes"/>
      <point x="478" y="679"/>
      <point x="447.175" y="715"/>
      <point x="403" y="715" type="curve" smooth="yes"/>
      <point x="346" y="715"/>
      <point x="280" y="637"/>
      <point x="247" y="556" type="curve"/>
      <point x="126.3" y="567.855"/>
      <point x="60.4678" y="638.752"/>
      <point x="60.4678" y="713.104" type="curve" smooth="yes"/>
      <point x="60.4678" y="881.507"/>
      <point x="244.417" y="937.516"/>
      <point x="446.536" y="937.516" type="curve" smooth="yes"/>
      <point x="625.568" y="937.516"/>
      <point x="786" y="869.816"/>
      <point x="786" y="641" type="curve" smooth="yes"/>
      <point x="786" y="374" type="line" smooth="yes"/>
      <point x="786" y="253.049"/>
      <point x="816.361" y="218.34"/>
      <point x="874" y="200" type="curve" smooth="yes"/>
      <point x="902" y="192" type="line"/>
      <point x="877" y="34" type="line"/>
      <point x="823.065" y="0"/>
      <point x="764.398" y="-24"/>
      <point x="701" y="-24" type="curve" smooth="yes"/>
      <point x="590.203" y="-24"/>
      <point x="523" y="29"/>
      <point x="516" y="126" type="curve" smooth="yes"/>
      <point x="515" y="139" type="line"/>
      <point x="501" y="139" type="line"/>
      <point x="486.57" y="62.418"/>
      <point x="378.381" y="-21.0566"/>
      <point x="258.011" y="-21.0566" type="curve" smooth="yes"/>
      <point x="102.142" y="-21.0566"/>
      <point x="12.0566" y="90.4033"/>
      <point x="12.0566" y="220.458" type="curve" smooth="yes"/>
      <point x="12.0566" y="453.694"/>
      <point x="229.538" y="547.438"/>
    </contour>
    <contour>
      <point x="396" y="225" type="curve" smooth="yes"/>
      <point x="421" y="225"/>
      <point x="450" y="234"/>
      <point x="478" y="254" type="curve"/>
      <point x="478" y="413" type="line"/>
      <point x="429" y="413"/>
      <point x="316.807" y="380.847"/>
      <point x="316.807" y="305.664" type="curve" smooth="yes"/>
      <point x="316.807" y="250"/>
      <point x="343.459" y="225"/>
    </contour>
  </outline>
</glyph>
<glyph name="b" format="1">
  <advance width="1033"/>
  <unicode hex="0062"/>
  <outline>
    <contour>
      <point x="377" y="771" type="line"/>
      <point x="436.553" y="872.021"/>
      <point x="541.587" y="940"/>
      <point x="659" y="940" type="curve" smooth="yes"/>
      <point x="850.796" y="940"/>
      <point x="971" y="757.889"/>
      <point x="971" y="497" type="curve" smooth="yes"/>
      <point x="971" y="162.713"/>
      <point x="744.93" y="-30.2979"/>
      <point x="399.885" y="-30.2979" type="curve" smooth="yes"/>
      <point x="299.522" y="-30.2979"/>
      <point x="194.461" y="-16.2148"/>
      <point x="99" y="8" type="curve"/>
      <point x="99" y="1052" type="line"/>
      <point x="-22" y="1133" type="line"/>
      <point x="7" y="1277" type="line"/>
      <point x="348" y="1304" type="line"/>
      <point x="388" y="1259" type="line"/>
      <point x="388" y="928" type="line"/>
      <point x="362" y="771" type="line"/>
    </contour>
    <contour>
      <point x="415" y="226" type="line"/>
      <point x="447.68" y="204.789"/>
      <point x="480.36" y="195"/>
      <point x="510" y="195" type="curve" smooth="yes"/>
      <point x="591" y="195"/>
      <point x="653" y="257.196"/>
      <point x="653" y="427" type="curve" smooth="yes"/>
      <point x="653" y="578.303"/>
      <point x="617" y="675"/>
      <point x="533" y="675" type="curve" smooth="yes"/>
      <point x="488" y="675"/>
      <point x="462.838" y="661.672"/>
      <point x="415" y="628" type="curve"/>
    </contour>
  </outline>
</glyph>
<glyph name="c" format="1">
  <advance width="777"/>
  <unicode hex="0063"/>
  <outline>
    <contour>
      <point x="29" y="386" type="curve" smooth="yes"/>
      <point x="29" y="709"/>
      <point x="285.791" y="947"/>
      <point x="494" y="947" type="curve" smooth="yes"/>
      <point x="634.761" y="947"/>
      <point x="724.686" y="872.273"/>
      <point x="724.686" y="756.318" type="curve" smooth="yes"/>
      <point x="724.686" y="652.302"/>
      <point x="660.232" y="553.061"/>
      <point x="584" y="534" type="curve"/>
      <point x="527.663" y="612.261"/>
      <point x="460.333" y="659"/>
      <point x="395" y="659" type="curve" smooth="yes"/>
      <point x="349.54" y="659"/>
      <point x="336.546" y="607.787"/>
      <point x="336.546" y="549.047" type="curve" smooth="yes"/>
      <point x="336.546" y="412.078"/>
      <point x="365.477" y="247.033"/>
      <point x="491.931" y="247.033" type="curve" smooth="yes"/>
      <point x="552.877" y="247.033"/>
      <point x="613.667" y="279.024"/>
      <point x="646" y="331" type="curve"/>
      <point x="756" y="207" type="line"/>
      <point x="707.969" y="66.8574"/>
      <point x="603.4" y="-32.0371"/>
      <point x="407.603" y="-32.0371" type="curve" smooth="yes"/>
      <point x="134.835" y="-32.0371"/>
      <point x="29" y="131.672"/>
    </contour>
  </outline>
</glyph>
<glyph name="d" format="1">
  <advance width="1018"/>
  <unicode hex="0064"/>
  <outline>
    <contour>
      <point x="890" y="374" type="line" smooth="yes"/>
      <point x="890" y="253"/>
      <point x="923.811" y="218.34"/>
      <point x="988" y="200" type="curve" smooth="yes"/>
      <point x="1016" y="192" type="line"/>
      <point x="991" y="34" type="line"/>
      <point x="934" y="0"/>
      <point x="872" y="-24"/>
      <point x="805" y="-24" type="curve" smooth="yes"/>
      <point x="694.203" y="-24"/>
      <point x="627" y="31.9121"/>
      <point x="620" y="118" type="curve" smooth="yes"/>
      <point x="619" y="131" type="line"/>
      <point x="605" y="131" type="line"/>
      <point x="573" y="35.4639"/>
      <point x="481.592" y="-19"/>
      <point x="342" y="-19" type="curve" smooth="yes"/>
      <point x="131.718" y="-19"/>
      <point x="29" y="181.86"/>
      <point x="29" y="407" type="curve" smooth="yes"/>
      <point x="29" y="666.969"/>
      <point x="167.893" y="948.023"/>
      <point x="458.887" y="948.023" type="curve" smooth="yes"/>
      <point x="524.869" y="948.023"/>
      <point x="586.585" y="925.16"/>
      <point x="624" y="864" type="curve"/>
      <point x="628" y="864" type="line"/>
      <point x="618" y="946" type="line"/>
      <point x="618" y="1052" type="line"/>
      <point x="477" y="1133" type="line"/>
      <point x="506" y="1277" type="line"/>
      <point x="847" y="1304" type="line"/>
      <point x="887" y="1259" type="line"/>
    </contour>
    <contour>
      <point x="346" y="469" type="curve" smooth="yes"/>
      <point x="346" y="285"/>
      <point x="390" y="206.11"/>
      <point x="485.319" y="206.11" type="curve" smooth="yes"/>
      <point x="513.549" y="206.11"/>
      <point x="545.477" y="215.089"/>
      <point x="581" y="233" type="curve"/>
      <point x="581" y="669" type="line"/>
      <point x="547.485" y="690.333"/>
      <point x="530.698" y="699"/>
      <point x="495" y="699" type="curve" smooth="yes"/>
      <point x="399.84" y="699"/>
      <point x="346" y="573.635"/>
    </contour>
  </outline>
</glyph>
<glyph name="e" format="1">
  <advance width="839"/>
  <unicode hex="0065"/>
  <outline>
    <contour>
      <point x="29" y="430" type="curve" smooth="yes"/>
      <point x="29" y="733"/>
      <point x="220" y="950"/>
      <point x="490" y="950" type="curve" smooth="yes"/>
      <point x="690.357" y="950"/>
      <point x="796" y="792"/>
      <point x="796" y="580" type="curve" smooth="yes"/>
      <point x="796" y="545.536"/>
      <point x="781" y="415.464"/>
      <point x="775" y="381" type="curve"/>
      <point x="357" y="367" type="line"/>
      <point x="360" y="283"/>
      <point x="408" y="239"/>
      <point x="517" y="239" type="curve" smooth="yes"/>
      <point x="582" y="239"/>
      <point x="674" y="267"/>
      <point x="725" y="315" type="curve"/>
      <point x="824" y="192" type="line"/>
      <point x="756" y="81"/>
      <point x="666" y="-31"/>
      <point x="447" y="-31" type="curve" smooth="yes"/>
      <point x="201.864" y="-31"/>
      <point x="29" y="124"/>
    </contour>
    <contour>
      <point x="352" y="498" type="curve"/>
      <point x="487" y="521" type="line"/>
      <point x="498" y="648"/>
      <point x="476.557" y="745"/>
      <point x="417" y="745" type="curve" smooth="yes"/>
      <point x="361.141" y="745"/>
      <point x="336" y="678"/>
    </contour>
  </outline>
</glyph>
<glyph name="f" format="1">
  <advance width="688"/>
  <unicode hex="0066"/>
  <outline>
    <contour>
      <point x="595" y="1313" type="curve" smooth="yes"/>
      <point x="752" y="1313"/>
      <point x="834" y="1231.73"/>
      <point x="834" y="1125" type="curve" smooth="yes"/>
      <point x="834" y="1000"/>
      <point x="723" y="943"/>
      <point x="651" y="942" type="curve"/>
      <point x="598.862" y="1026.94"/>
      <point x="520.006" y="1111.55"/>
      <point x="471.913" y="1111.55" type="curve" smooth="yes"/>
      <point x="408.198" y="1111.55"/>
      <point x="425.365" y="939.183"/>
      <point x="430" y="835" type="curve"/>
      <point x="518.489" y="842.071"/>
      <point x="604.511" y="848.93"/>
      <point x="693" y="856" type="curve"/>
      <point x="679" y="680" type="line"/>
      <point x="432.519" y="698.341" type="line"/>
      <point x="452" y="230" type="line"/>
      <point x="669" y="173" type="line"/>
      <point x="646" y="0" type="line"/>
      <point x="-10" y="0" type="line"/>
      <point x="11" y="143" type="line"/>
      <point x="126" y="215" type="line"/>
      <point x="114.702" y="694.236" type="line"/>
      <point x="72.4678" y="689.491"/>
      <point x="30.2344" y="684.745"/>
      <point x="-12" y="680" type="curve"/>
      <point x="1" y="838" type="line"/>
      <point x="120.122" y="831.18" type="line"/>
      <point x="157.988" y="1101.22"/>
      <point x="377.308" y="1313"/>
    </contour>
  </outline>
</glyph>
<glyph name="g" format="1">
  <advance width="914"/>
  <unicode hex="0067"/>
  <outline>
    <contour>
      <point x="593.91" y="1177.27" type="curve"/>
      <point x="622.069" y="1193.21"/>
      <point x="685.071" y="1206"/>
      <point x="728.086" y="1206" type="curve" smooth="yes"/>
      <point x="806.333" y="1206"/>
      <point x="856" y="1152.27"/>
      <point x="856" y="1077" type="curve" smooth="yes"/>
      <point x="856" y="978.777"/>
      <point x="772.088" y="910.881"/>
      <point x="694" y="889.033" type="curve"/>
      <point x="694" y="856" type="line"/>
      <point x="595" y="876" type="line"/>
      <point x="611.055" y="920.438"/>
      <point x="612" y="973.19"/>
      <point x="612" y="1047" type="curve" smooth="yes"/>
      <point x="612" y="1091.39"/>
      <point x="605.325" y="1136.45"/>
    </contour>
    <contour>
      <point x="852" y="607" type="curve" smooth="yes"/>
      <point x="852" y="370"/>
      <point x="681.858" y="258"/>
      <point x="405" y="271" type="curve"/>
      <point x="402" y="261"/>
      <point x="400" y="253"/>
      <point x="400" y="247" type="curve" smooth="yes"/>
      <point x="400" y="228"/>
      <point x="415" y="222"/>
      <point x="451" y="222" type="curve" smooth="yes"/>
      <point x="596" y="222" type="line" smooth="yes"/>
      <point x="790" y="222"/>
      <point x="909" y="148"/>
      <point x="909" y="-34" type="curve" smooth="yes"/>
      <point x="909" y="-245"/>
      <point x="708" y="-385"/>
      <point x="349" y="-385" type="curve" smooth="yes"/>
      <point x="115" y="-385"/>
      <point x="-37" y="-316.845"/>
      <point x="-37" y="-169" type="curve" smooth="yes"/>
      <point x="-37" y="-81"/>
      <point x="25" y="-13.116"/>
      <point x="121" y="2" type="curve"/>
      <point x="121" y="19" type="line"/>
      <point x="76" y="34"/>
      <point x="34" y="88"/>
      <point x="34" y="137" type="curve" smooth="yes"/>
      <point x="34" y="213.786"/>
      <point x="134" y="274.5"/>
      <point x="232" y="287" type="curve"/>
      <point x="232" y="305" type="line"/>
      <point x="160" y="335.933"/>
      <point x="56" y="403.133"/>
      <point x="56" y="593" type="curve" smooth="yes"/>
      <point x="56" y="768"/>
      <point x="213" y="944"/>
      <point x="475" y="944" type="curve" smooth="yes"/>
      <point x="539.808" y="944"/>
      <point x="598.421" y="932.616"/>
      <point x="649" y="911.567" type="curve"/>
      <point x="654.762" y="906.317"/>
      <point x="660.419" y="900.793"/>
      <point x="665.97" y="895" type="curve"/>
      <point x="781.975" y="842.238"/>
      <point x="852" y="739.094"/>
    </contour>
    <contour>
      <point x="271" y="-68" type="curve" smooth="yes"/>
      <point x="271" y="-140"/>
      <point x="331" y="-186"/>
      <point x="472" y="-186" type="curve" smooth="yes"/>
      <point x="559" y="-186"/>
      <point x="612" y="-149"/>
      <point x="612" y="-102" type="curve" smooth="yes"/>
      <point x="612" y="-35"/>
      <point x="577" y="0"/>
      <point x="485" y="0" type="curve" smooth="yes"/>
      <point x="288" y="0" type="line"/>
      <point x="277" y="-25"/>
      <point x="271" y="-47"/>
    </contour>
    <contour>
      <point x="356" y="565" type="curve" smooth="yes"/>
      <point x="356" y="489.922"/>
      <point x="393.178" y="426.456"/>
      <point x="458.625" y="426.456" type="curve" smooth="yes"/>
      <point x="511.636" y="426.456"/>
      <point x="555" y="459"/>
      <point x="555" y="578" type="curve" smooth="yes"/>
      <point x="555" y="677.102"/>
      <point x="504.685" y="734.654"/>
      <point x="453.056" y="734.654" type="curve" smooth="yes"/>
      <point x="386.598" y="734.654"/>
      <point x="356" y="664"/>
    </contour>
  </outline>
</glyph>
<glyph name="h" format="1">
  <advance width="1085"/>
  <unicode hex="0068"/>
  <outline>
    <contour>
      <point x="667" y="189" type="line"/>
      <point x="667" y="494" type="line" smooth="yes"/>
      <point x="667" y="607"/>
      <point x="627.396" y="639.954"/>
      <point x="557.122" y="639.954" type="curve" smooth="yes"/>
      <point x="522.57" y="639.954"/>
      <point x="482.888" y="626.021"/>
      <point x="449" y="607" type="curve"/>
      <point x="449" y="215" type="line"/>
      <point x="572" y="152" type="line"/>
      <point x="544" y="0" type="line"/>
      <point x="5" y="0" type="line"/>
      <point x="26" y="143" type="line"/>
      <point x="131" y="215" type="line"/>
      <point x="131" y="1052" type="line"/>
      <point x="10" y="1133" type="line"/>
      <point x="39" y="1277" type="line"/>
      <point x="390" y="1304" type="line"/>
      <point x="430" y="1259" type="line"/>
      <point x="430" y="898" type="line"/>
      <point x="404" y="751" type="line"/>
      <point x="419" y="751" type="line"/>
      <point x="520.55" y="859.152"/>
      <point x="614.374" y="929"/>
      <point x="738" y="929" type="curve" smooth="yes"/>
      <point x="884" y="929"/>
      <point x="984" y="849"/>
      <point x="984" y="641" type="curve" smooth="yes"/>
      <point x="984" y="212" type="line"/>
      <point x="1083" y="155" type="line"/>
      <point x="1060" y="0" type="line"/>
      <point x="649" y="0" type="line"/>
      <point x="663" y="143" type="line"/>
    </contour>
  </outline>
</glyph>
<glyph name="i" format="1">
  <advance width="546"/>
  <unicode hex="0069"/>
  <outline>
    <contour>
      <point x="445" y="872" type="line"/>
      <point x="445" y="212" type="line"/>
      <point x="544" y="155" type="line"/>
      <point x="521" y="0" type="line"/>
      <point x="5" y="0" type="line"/>
      <point x="26" y="143" type="line"/>
      <point x="131" y="215" type="line"/>
      <point x="131" y="665" type="line"/>
      <point x="10" y="746" type="line"/>
      <point x="39" y="890" type="line"/>
      <point x="405" y="917" type="line"/>
    </contour>
    <contour>
      <point x="53" y="1138" type="curve" smooth="yes"/>
      <point x="53" y="1222"/>
      <point x="132" y="1290"/>
      <point x="285" y="1290" type="curve" smooth="yes"/>
      <point x="430.525" y="1290"/>
      <point x="501" y="1219"/>
      <point x="501" y="1137" type="curve" smooth="yes"/>
      <point x="501" y="1054"/>
      <point x="438.714" y="978"/>
      <point x="283" y="978" type="curve" smooth="yes"/>
      <point x="108" y="978"/>
      <point x="53" y="1054"/>
    </contour>
  </outline>
</glyph>
<glyph name="j" format="1">
  <advance width="544"/>
  <unicode hex="006A"/>
  <outline>
    <contour>
      <point x="53" y="1140" type="curve" smooth="yes"/>
      <point x="53" y="1224"/>
      <point x="132.681" y="1292"/>
      <point x="287" y="1292" type="curve" smooth="yes"/>
      <point x="433.872" y="1292"/>
      <point x="505" y="1221"/>
      <point x="505" y="1139" type="curve" smooth="yes"/>
      <point x="505" y="1056"/>
      <point x="442.143" y="980"/>
      <point x="285" y="980" type="curve" smooth="yes"/>
      <point x="108.478" y="980"/>
      <point x="53" y="1056"/>
    </contour>
    <contour>
      <point x="447" y="872" type="line"/>
      <point x="447" y="150" type="line" smooth="yes"/>
      <point x="447" y="-192"/>
      <point x="195" y="-304"/>
      <point x="7" y="-371" type="curve" smooth="yes"/>
      <point x="-44" y="-382" type="line"/>
      <point x="-125" y="-213" type="line"/>
      <point x="-18" y="-135"/>
      <point x="131" y="-52"/>
      <point x="131" y="218" type="curve" smooth="yes"/>
      <point x="131" y="665" type="line"/>
      <point x="10" y="746" type="line"/>
      <point x="39" y="890" type="line"/>
      <point x="407" y="917" type="line"/>
    </contour>
  </outline>
</glyph>
<glyph name="k" format="1">
  <advance width="1013"/>
  <unicode hex="006B"/>
  <outline>
    <contour>
      <point x="445" y="1261.5" type="line"/>
      <point x="445" y="212" type="line"/>
      <point x="445" y="155" type="line"/>
      <point x="481" y="0" type="line"/>
      <point x="5" y="0" type="line"/>
      <point x="26" y="143" type="line"/>
      <point x="131" y="215" type="line"/>
      <point x="131" y="1054.5" type="line"/>
      <point x="10" y="1135.5" type="line"/>
      <point x="39" y="1279.5" type="line"/>
      <point x="405" y="1306.5" type="line"/>
    </contour>
    <contour>
      <point x="468" y="404" type="line"/>
      <point x="478" y="449" type="line"/>
      <point x="640" y="698" type="line"/>
      <point x="522" y="771" type="line"/>
      <point x="543" y="917" type="line"/>
      <point x="984" y="917" type="line"/>
      <point x="955" y="716" type="line"/>
      <point x="888" y="653" type="line"/>
      <point x="729" y="498" type="line"/>
      <point x="779" y="414" type="line" smooth="yes"/>
      <point x="837" y="319.652"/>
      <point x="923.04" y="216.403"/>
      <point x="980" y="165" type="curve" smooth="yes"/>
      <point x="1021" y="128" type="line"/>
      <point x="994" y="0" type="line"/>
      <point x="947.087" y="-14.0087"/>
      <point x="881.227" y="-23.1162"/>
      <point x="838.663" y="-23.1162" type="curve" smooth="yes"/>
      <point x="655.178" y="-23.1162"/>
      <point x="563" y="110"/>
      <point x="510.539" y="272" type="curve" smooth="yes"/>
    </contour>
  </outline>
</glyph>
<glyph name="l" format="1">
  <advance width="546"/>
  <unicode hex="006C"/>
  <outline>
    <contour>
      <point x="445" y="1261.5" type="line"/>
      <point x="445" y="212" type="line"/>
      <point x="544" y="155" type="line"/>
      <point x="521" y="0" type="line"/>
      <point x="5" y="0" type="line"/>
      <point x="26" y="143" type="line"/>
      <point x="131" y="215" type="line"/>
      <point x="131" y="1054.5" type="line"/>
      <point x="10" y="1135.5" type="line"/>
      <point x="39" y="1279.5" type="line"/>
      <point x="405" y="1306.5" type="line"/>
    </contour>
  </outline>
</glyph>
<glyph name="m" format="1">
  <advance width="1616"/>
  <unicode hex="006D"/>
  <outline>
    <contour>
      <point x="449.12" y="607" type="curve"/>
      <point x="449.12" y="215" type="line"/>
      <point x="572.12" y="152" type="line"/>
      <point x="544.12" y="0" type="line"/>
      <point x="5.12012" y="0" type="line"/>
      <point x="26.1201" y="143" type="line"/>
      <point x="131.12" y="215" type="line"/>
      <point x="131.12" y="670" type="line"/>
      <point x="13.1201" y="751" type="line"/>
      <point x="40.1201" y="889" type="line"/>
      <point x="396.12" y="918" type="line"/>
      <point x="434.12" y="879" type="line"/>
      <point x="434.12" y="771" type="line"/>
      <point x="449.12" y="771" type="line"/>
      <point x="541.12" y="867"/>
      <point x="626.12" y="929"/>
      <point x="738.12" y="929" type="curve" smooth="yes"/>
      <point x="848.526" y="929"/>
      <point x="932.63" y="883.252"/>
      <point x="967.07" y="771" type="curve"/>
      <point x="984" y="771" type="line"/>
      <point x="1078.23" y="867"/>
      <point x="1165.29" y="929"/>
      <point x="1280" y="929" type="curve" smooth="yes"/>
      <point x="1419.47" y="929"/>
      <point x="1515" y="849"/>
      <point x="1515" y="641" type="curve" smooth="yes"/>
      <point x="1515" y="212" type="line"/>
      <point x="1614" y="155" type="line"/>
      <point x="1591" y="0" type="line"/>
      <point x="1180" y="0" type="line"/>
      <point x="1194" y="143" type="line"/>
      <point x="1198" y="189" type="line"/>
      <point x="1198" y="494" type="line" smooth="yes"/>
      <point x="1198" y="607"/>
      <point x="1162.36" y="639.954"/>
      <point x="1099.12" y="639.954" type="curve" smooth="yes"/>
      <point x="1062.63" y="639.954"/>
      <point x="1021.58" y="628.042"/>
      <point x="984.12" y="610.569" type="curve"/>
      <point x="984.12" y="212" type="line"/>
      <point x="1083.12" y="155" type="line"/>
      <point x="1060.12" y="0" type="line"/>
      <point x="649.12" y="0" type="line"/>
      <point x="663.12" y="143" type="line"/>
      <point x="667.12" y="189" type="line"/>
      <point x="667.12" y="494" type="line" smooth="yes"/>
      <point x="667.12" y="607"/>
      <point x="627.517" y="639.954"/>
      <point x="557.242" y="639.954" type="curve" smooth="yes"/>
      <point x="522.691" y="639.954"/>
      <point x="483.007" y="626.021"/>
    </contour>
  </outline>
</glyph>
<glyph name="n" format="1">
  <advance width="1085"/>
  <unicode hex="006E"/>
  <outline>
    <contour>
      <point x="449" y="607" type="curve"/>
      <point x="449" y="215" type="line"/>
      <point x="572" y="152" type="line"/>
      <point x="544" y="0" type="line"/>
      <point x="5" y="0" type="line"/>
      <point x="26" y="143" type="line"/>
      <point x="131" y="215" type="line"/>
      <point x="131" y="670" type="line"/>
      <point x="13" y="751" type="line"/>
      <point x="40" y="889" type="line"/>
      <point x="396" y="918" type="line"/>
      <point x="434" y="879" type="line"/>
      <point x="434" y="771" type="line"/>
      <point x="449" y="771" type="line"/>
      <point x="541" y="867"/>
      <point x="626" y="929"/>
      <point x="738" y="929" type="curve" smooth="yes"/>
      <point x="884" y="929"/>
      <point x="984" y="849"/>
      <point x="984" y="641" type="curve" smooth="yes"/>
      <point x="984" y="212" type="line"/>
      <point x="1083" y="155" type="line"/>
      <point x="1060" y="0" type="line"/>
      <point x="649" y="0" type="line"/>
      <point x="663" y="143" type="line"/>
      <point x="667" y="189" type="line"/>
      <point x="667" y="494" type="line" smooth="yes"/>
      <point x="667" y="607"/>
      <point x="627.396" y="639.954"/>
      <point x="557.122" y="639.954" type="curve" smooth="yes"/>
      <point x="522.571" y="639.954"/>
      <point x="482.887" y="626.021"/>
    </contour>
  </outline>
</glyph>
<glyph name="o" format="1">
  <advance width="962"/>
  <unicode hex="006F"/>
  <outline>
    <contour>
      <point x="29" y="456" type="curve" smooth="yes"/>
      <point x="29" y="768.296"/>
      <point x="256.333" y="952"/>
      <point x="494" y="952" type="curve" smooth="yes"/>
      <point x="778" y="952"/>
      <point x="927" y="793"/>
      <point x="927" y="491" type="curve" smooth="yes"/>
      <point x="927" y="155.519"/>
      <point x="763.785" y="-33"/>
      <point x="473" y="-33" type="curve" smooth="yes"/>
      <point x="157.329" y="-33"/>
      <point x="29" y="139.939"/>
    </contour>
    <contour>
      <point x="363" y="489" type="curve" smooth="yes"/>
      <point x="363" y="301.062"/>
      <point x="421" y="179"/>
      <point x="504" y="179" type="curve" smooth="yes"/>
      <point x="566.087" y="179"/>
      <point x="589" y="265.386"/>
      <point x="589" y="418" type="curve" smooth="yes"/>
      <point x="589" y="567.813"/>
      <point x="549.938" y="734"/>
      <point x="456" y="734" type="curve" smooth="yes"/>
      <point x="383.415" y="734"/>
      <point x="363" y="645.116"/>
    </contour>
  </outline>
</glyph>
<glyph name="p" format="1">
  <advance width="1024"/>
  <unicode hex="0070"/>
  <outline>
    <contour>
      <point x="411" y="771" type="line"/>
      <point x="461.58" y="857.179"/>
      <point x="542.021" y="940"/>
      <point x="660" y="940" type="curve" smooth="yes"/>
      <point x="825.964" y="940"/>
      <point x="989" y="820.711"/>
      <point x="989" y="500" type="curve" smooth="yes"/>
      <point x="989" y="146.886"/>
      <point x="747.672" y="-15"/>
      <point x="529" y="-15" type="curve" smooth="yes"/>
      <point x="501.974" y="-15"/>
      <point x="421.769" y="-10.9141"/>
      <point x="393" y="28" type="curve"/>
      <point x="393" y="216" type="line"/>
      <point x="437.623" y="205.565"/>
      <point x="482.245" y="200"/>
      <point x="522" y="200" type="curve" smooth="yes"/>
      <point x="607.965" y="200"/>
      <point x="672" y="273.188"/>
      <point x="672" y="439" type="curve" smooth="yes"/>
      <point x="672" y="573.504"/>
      <point x="636.225" y="673"/>
      <point x="550" y="673" type="curve" smooth="yes"/>
      <point x="518.5" y="673"/>
      <point x="478.75" y="661.113"/>
      <point x="430" y="610" type="curve"/>
      <point x="427" y="-140" type="line"/>
      <point x="646" y="-197" type="line"/>
      <point x="623" y="-372" type="line"/>
      <point x="5" y="-372" type="line"/>
      <point x="26" y="-229" type="line"/>
      <point x="131" y="-157" type="line"/>
      <point x="131" y="670" type="line"/>
      <point x="13" y="751" type="line"/>
      <point x="40" y="889" type="line"/>
      <point x="358" y="918" type="line"/>
      <point x="396" y="879" type="line"/>
      <point x="396" y="771" type="line"/>
    </contour>
  </outline>
</glyph>
<glyph name="q" format="1">
  <advance width="976"/>
  <unicode hex="0071"/>
  <outline>
    <contour>
      <point x="953" y="-363" type="line"/>
      <point x="378" y="-363" type="line"/>
      <point x="396" y="-204" type="line"/>
      <point x="583" y="-137" type="line"/>
      <point x="583" y="672" type="line"/>
      <point x="567" y="686.235"/>
      <point x="525.857" y="694"/>
      <point x="503" y="694" type="curve" smooth="yes"/>
      <point x="400" y="694"/>
      <point x="362" y="607.882"/>
      <point x="362" y="450" type="curve" smooth="yes"/>
      <point x="362" y="300.04"/>
      <point x="416.724" y="220"/>
      <point x="477" y="220" type="curve" smooth="yes"/>
      <point x="532.291" y="220"/>
      <point x="574.762" y="235"/>
      <point x="598" y="259" type="curve"/>
      <point x="589" y="89" type="line"/>
      <point x="548" y="23"/>
      <point x="451" y="-19"/>
      <point x="365" y="-19" type="curve" smooth="yes"/>
      <point x="163" y="-19"/>
      <point x="29" y="109"/>
      <point x="29" y="396" type="curve" smooth="yes"/>
      <point x="29" y="682"/>
      <point x="225.416" y="933"/>
      <point x="484" y="933" type="curve" smooth="yes"/>
      <point x="540" y="933"/>
      <point x="599" y="922"/>
      <point x="659" y="897" type="curve"/>
      <point x="829" y="936" type="line"/>
      <point x="880" y="931" type="line"/>
      <point x="877" y="-151" type="line"/>
      <point x="976" y="-208" type="line"/>
    </contour>
  </outline>
</glyph>
<glyph name="r" format="1">
  <advance width="849"/>
  <unicode hex="0072"/>
  <outline>
    <contour>
      <point x="131" y="215" type="line"/>
      <point x="127" y="673" type="line"/>
      <point x="7" y="751" type="line"/>
      <point x="34" y="889" type="line"/>
      <point x="361" y="918" type="line"/>
      <point x="399" y="879" type="line"/>
      <point x="399" y="658" type="line"/>
      <point x="418" y="658" type="line"/>
      <point x="477" y="834"/>
      <point x="574" y="930"/>
      <point x="664" y="930" type="curve" smooth="yes"/>
      <point x="790.104" y="930"/>
      <point x="828.322" y="842.834"/>
      <point x="828.322" y="741.307" type="curve" smooth="yes"/>
      <point x="828.322" y="665.41"/>
      <point x="806.965" y="589.722"/>
      <point x="785" y="536" type="curve"/>
      <point x="722.851" y="552.496"/>
      <point x="669.178" y="560.482"/>
      <point x="622.45" y="560.482" type="curve" smooth="yes"/>
      <point x="539.775" y="560.482"/>
      <point x="481.519" y="549.861"/>
      <point x="437" y="530" type="curve"/>
      <point x="437" y="231" type="line"/>
      <point x="659" y="168" type="line"/>
      <point x="641" y="0" type="line"/>
      <point x="5" y="0" type="line"/>
      <point x="26" y="143" type="line"/>
    </contour>
  </outline>
</glyph>
<glyph name="s" format="1">
  <advance width="739"/>
  <unicode hex="0073"/>
  <outline>
    <contour>
      <point x="16.8027" y="189" type="curve" smooth="yes"/>
      <point x="16.8027" y="275.897"/>
      <point x="95.3741" y="354.103"/>
      <point x="181.803" y="357" type="curve"/>
      <point x="244.55" y="230.873"/>
      <point x="310.902" y="134.381"/>
      <point x="415.557" y="134.381" type="curve" smooth="yes"/>
      <point x="442.907" y="134.381"/>
      <point x="459.306" y="149.614"/>
      <point x="458.771" y="170.746" type="curve" smooth="yes"/>
      <point x="456" y="278.375"/>
      <point x="37" y="374.214"/>
      <point x="37" y="634.5" type="curve" smooth="yes"/>
      <point x="37" y="814.079"/>
      <point x="208.477" y="947.59"/>
      <point x="433.786" y="947.59" type="curve" smooth="yes"/>
      <point x="573.022" y="947.59"/>
      <point x="701.803" y="887.474"/>
      <point x="701.803" y="734" type="curve" smooth="yes"/>
      <point x="701.803" y="644.4"/>
      <point x="600.265" y="580.4"/>
      <point x="525.803" y="574" type="curve"/>
      <point x="482.326" y="654.704"/>
      <point x="412" y="752.871"/>
      <point x="329.701" y="752.871" type="curve" smooth="yes"/>
      <point x="306.932" y="752.871"/>
      <point x="293.92" y="742.3"/>
      <point x="293.92" y="725.99" type="curve" smooth="yes"/>
      <point x="293.92" y="625"/>
      <point x="719.233" y="517.854"/>
      <point x="719.233" y="260.307" type="curve" smooth="yes"/>
      <point x="719.233" y="111.663"/>
      <point x="571.807" y="-33"/>
      <point x="345.803" y="-33" type="curve" smooth="yes"/>
      <point x="155.379" y="-33"/>
      <point x="16.8027" y="52.3005"/>
    </contour>
  </outline>
</glyph>
<glyph name="t" format="1">
  <advance width="703"/>
  <unicode hex="0074"/>
  <outline>
    <contour>
      <point x="2" y="713" type="line"/>
      <point x="14" y="842" type="line"/>
      <point x="67" y="895"/>
      <point x="190" y="1012"/>
      <point x="265" y="1077" type="curve"/>
      <point x="448" y="1067" type="line"/>
      <point x="438" y="840" type="line"/>
      <point x="682" y="856" type="line"/>
      <point x="660" y="660" type="line"/>
      <point x="434" y="700" type="line"/>
      <point x="431" y="430" type="line" smooth="yes"/>
      <point x="430" y="319"/>
      <point x="432" y="227"/>
      <point x="546" y="227" type="curve" smooth="yes"/>
      <point x="603" y="227"/>
      <point x="658" y="256"/>
      <point x="658" y="256" type="curve"/>
      <point x="688" y="123" type="line"/>
      <point x="642" y="60"/>
      <point x="563" y="-23"/>
      <point x="394" y="-23" type="curve" smooth="yes"/>
      <point x="168" y="-23"/>
      <point x="103.143" y="69.4582"/>
      <point x="107" y="341" type="curve" smooth="yes"/>
      <point x="112" y="693" type="line"/>
    </contour>
  </outline>
</glyph>
<glyph name="u" format="1">
  <advance width="1063"/>
  <unicode hex="0075"/>
  <outline>
    <contour>
      <point x="5" y="748" type="line"/>
      <point x="29" y="891" type="line"/>
      <point x="369" y="913" type="line"/>
      <point x="425" y="860" type="line"/>
      <point x="425" y="416" type="line" smooth="yes"/>
      <point x="425" y="301.667"/>
      <point x="458.477" y="270.046"/>
      <point x="517.878" y="270.046" type="curve" smooth="yes"/>
      <point x="555.625" y="270.046"/>
      <point x="598.979" y="283.979"/>
      <point x="636" y="303" type="curve"/>
      <point x="636" y="672" type="line"/>
      <point x="503" y="745" type="line"/>
      <point x="529" y="891" type="line"/>
      <point x="892" y="918" type="line"/>
      <point x="945" y="865" type="line"/>
      <point x="945" y="370" type="line" smooth="yes"/>
      <point x="945" y="267"/>
      <point x="963.493" y="234"/>
      <point x="1033" y="199" type="curve" smooth="yes"/>
      <point x="1061" y="190" type="line"/>
      <point x="1036" y="40" type="line"/>
      <point x="982.34" y="5"/>
      <point x="917.236" y="-18"/>
      <point x="860" y="-18" type="curve" smooth="yes"/>
      <point x="752.66" y="-18"/>
      <point x="673.039" y="41.082"/>
      <point x="666" y="136" type="curve" smooth="yes"/>
      <point x="665" y="149" type="line"/>
      <point x="652" y="149" type="line"/>
      <point x="586.424" y="43.2969"/>
      <point x="492.794" y="-14"/>
      <point x="358" y="-14" type="curve" smooth="yes"/>
      <point x="190.109" y="-14"/>
      <point x="120" y="93"/>
      <point x="120" y="284" type="curve" smooth="yes"/>
      <point x="120" y="673" type="line"/>
    </contour>
  </outline>
</glyph>
<glyph name="v" format="1">
  <advance width="1022"/>
  <unicode hex="0076"/>
  <outline>
    <contour>
      <point x="10" y="770" type="line"/>
      <point x="32" y="914" type="line"/>
      <point x="573" y="914" type="line"/>
      <point x="553" y="758" type="line"/>
      <point x="460" y="701" type="line"/>
      <point x="584" y="322" type="line"/>
      <point x="706" y="708" type="line"/>
      <point x="626" y="772" type="line"/>
      <point x="650" y="914" type="line"/>
      <point x="1032" y="914" type="line"/>
      <point x="1007" y="758" type="line"/>
      <point x="921" y="701" type="line"/>
      <point x="661" y="-6" type="line"/>
      <point x="382" y="-32" type="line"/>
      <point x="112" y="700" type="line"/>
    </contour>
  </outline>
</glyph>
<glyph name="w" format="1">
  <advance width="1347"/>
  <unicode hex="0077"/>
  <outline>
    <contour>
      <point x="15" y="769" type="line"/>
      <point x="38" y="915" type="line"/>
      <point x="527" y="915" type="line"/>
      <point x="506" y="761" type="line"/>
      <point x="421" y="706" type="line"/>
      <point x="497" y="338" type="line"/>
      <point x="518" y="467" type="line"/>
      <point x="604" y="850" type="line"/>
      <point x="835" y="870" type="line"/>
      <point x="957" y="335" type="line"/>
      <point x="978" y="476" type="line"/>
      <point x="1030" y="706" type="line"/>
      <point x="956" y="776" type="line"/>
      <point x="980" y="915" type="line"/>
      <point x="1362" y="915" type="line"/>
      <point x="1338" y="764" type="line"/>
      <point x="1242" y="693" type="line"/>
      <point x="1049" y="-10" type="line"/>
      <point x="790" y="-41" type="line"/>
      <point x="676" y="414" type="line"/>
      <point x="570" y="-11" type="line"/>
      <point x="332" y="-39" type="line"/>
      <point x="126" y="694" type="line"/>
    </contour>
  </outline>
</glyph>
<glyph name="x" format="1">
  <advance width="998"/>
  <unicode hex="0078"/>
  <outline>
    <contour>
      <point x="10" y="0" type="line"/>
      <point x="33" y="145" type="line"/>
      <point x="160" y="209" type="line"/>
      <point x="336" y="426" type="line"/>
      <point x="103" y="711" type="line"/>
      <point x="21" y="760" type="line"/>
      <point x="52" y="911" type="line"/>
      <point x="345" y="911" type="line"/>
      <point x="424" y="796" type="line"/>
      <point x="446" y="764" type="line"/>
      <point x="549" y="615" type="line"/>
      <point x="623" y="722" type="line"/>
      <point x="561" y="780" type="line"/>
      <point x="589" y="911" type="line"/>
      <point x="970" y="911" type="line"/>
      <point x="947" y="759" type="line"/>
      <point x="851" y="712" type="line"/>
      <point x="660" y="480" type="line"/>
      <point x="884" y="213" type="line"/>
      <point x="990" y="162" type="line"/>
      <point x="977" y="0" type="line"/>
      <point x="666" y="0" type="line"/>
      <point x="594.133" y="104.466"/>
      <point x="521.068" y="207.734"/>
      <point x="449" y="312" type="curve"/>
      <point x="392" y="199" type="line"/>
      <point x="493" y="134" type="line"/>
      <point x="468" y="0" type="line"/>
    </contour>
  </outline>
</glyph>
<glyph name="y" format="1">
  <advance width="1060"/>
  <unicode hex="0079"/>
  <outline>
    <contour>
      <point x="-57.3115" y="-219" type="curve" smooth="yes"/>
      <point x="-57.3115" y="-154"/>
      <point x="-48.3115" y="-94"/>
      <point x="26.6885" y="-21" type="curve"/>
      <point x="76.6885" y="-75"/>
      <point x="170.688" y="-106"/>
      <point x="252.688" y="-106" type="curve" smooth="yes"/>
      <point x="311.688" y="-106"/>
      <point x="363.688" y="-87"/>
      <point x="391.688" y="-41" type="curve" smooth="yes"/>
      <point x="405.688" y="-18" type="line"/>
      <point x="92.6885" y="704" type="line"/>
      <point x="-33.3115" y="763" type="line"/>
      <point x="-10.3115" y="922" type="line"/>
      <point x="544.688" y="922" type="line"/>
      <point x="523.688" y="766" type="line"/>
      <point x="433.688" y="709" type="line"/>
      <point x="576.688" y="321" type="line"/>
      <point x="730.688" y="701" type="line"/>
      <point x="614.688" y="766" type="line"/>
      <point x="641.688" y="922" type="line"/>
      <point x="1062.69" y="922" type="line"/>
      <point x="1045.69" y="766" type="line"/>
      <point x="947.688" y="704" type="line"/>
      <point x="623.688" y="-15" type="line" smooth="yes"/>
      <point x="506.688" y="-274"/>
      <point x="387.688" y="-382"/>
      <point x="172.688" y="-382" type="curve" smooth="yes"/>
      <point x="62.6885" y="-382"/>
      <point x="-57.3115" y="-312"/>
    </contour>
  </outline>
</glyph>
<glyph name="z" format="1">
  <advance width="875"/>
  <unicode hex="007A"/>
  <outline>
    <contour>
      <point x="41.9111" y="180" type="line"/>
      <point x="432.911" y="747" type="line"/>
      <point x="285.911" y="747" type="line"/>
      <point x="186.911" y="574" type="line"/>
      <point x="25.9111" y="603" type="line"/>
      <point x="50.9111" y="922" type="line"/>
      <point x="823.911" y="922" type="line"/>
      <point x="817.911" y="763" type="line"/>
      <point x="395.911" y="181" type="line"/>
      <point x="578.911" y="181" type="line"/>
      <point x="700.911" y="366" type="line"/>
      <point x="842.911" y="330" type="line"/>
      <point x="803.911" y="0" type="line"/>
      <point x="49.9111" y="0" type="line"/>
    </contour>
  </outline>
</glyph>
<glyph name="asciitilde" format="1">
  <advance width="1075"/>
  <unicode hex="007E"/>
  <outline>
    <contour>
      <point x="60" y="282" type="line"/>
      <point x="38" y="482"/>
      <point x="120" y="763"/>
      <point x="396" y="696" type="curve" smooth="yes"/>
      <point x="738" y="613" type="line" smooth="yes"/>
      <point x="807" y="597"/>
      <point x="844" y="702"/>
      <point x="844" y="702" type="curve"/>
      <point x="1018" y="684" type="line"/>
      <point x="1016" y="406"/>
      <point x="889" y="232"/>
      <point x="644" y="296" type="curve" smooth="yes"/>
      <point x="329" y="378" type="line" smooth="yes"/>
      <point x="246" y="400"/>
      <point x="238" y="272"/>
      <point x="238" y="272" type="curve"/>
    </contour>
  </outline>
</glyph>
<glyph name="cent" format="1">
  <advance width="963"/>
  <unicode hex="00A2"/>
  <outline>
    <contour>
      <point x="86.2842" y="421.082" type="curve" smooth="yes"/>
      <point x="86.2842" y="763.462"/>
      <point x="338.482" y="1005.74"/>
      <point x="559.184" y="1005.74" type="curve" smooth="yes"/>
      <point x="754" y="1005.74"/>
      <point x="863.711" y="906.532"/>
      <point x="863.711" y="783.619" type="curve" smooth="yes"/>
      <point x="863.711" y="654"/>
      <point x="774" y="594"/>
      <point x="714.584" y="567.962" type="curve"/>
      <point x="654.867" y="650.919"/>
      <point x="553.497" y="700.462"/>
      <point x="484.244" y="700.462" type="curve" smooth="yes"/>
      <point x="436.057" y="700.462"/>
      <point x="402.282" y="646.177"/>
      <point x="402.282" y="583.912" type="curve" smooth="yes"/>
      <point x="402.282" y="438.725"/>
      <point x="462.949" y="263.777"/>
      <point x="596.99" y="263.777" type="curve" smooth="yes"/>
      <point x="661.594" y="263.777"/>
      <point x="766.031" y="297.688"/>
      <point x="800.304" y="352.782" type="curve"/>
      <point x="916.904" y="221.342" type="line"/>
      <point x="865.99" y="72.791"/>
      <point x="715.148" y="-32.0371"/>
      <point x="507.603" y="-32.0371" type="curve" smooth="yes"/>
      <point x="218.469" y="-32.0371"/>
      <point x="86.2842" y="151.494"/>
    </contour>
    <contour>
      <point x="399" y="1232" type="line"/>
      <point x="626" y="1249" type="line"/>
      <point x="598" y="981" type="line"/>
      <point x="433" y="981" type="line"/>
    </contour>
    <contour>
      <point x="409" y="-266" type="line"/>
      <point x="435" y="0" type="line"/>
      <point x="605" y="0" type="line"/>
      <point x="638" y="-250" type="line"/>
    </contour>
  </outline>
</glyph>
<glyph name="sterling" format="1">
  <advance width="1298"/>
  <unicode hex="00A3"/>
  <outline>
    <contour>
      <point x="44" y="0" type="line"/>
      <point x="55" y="138" type="line"/>
      <point x="219" y="217" type="line"/>
      <point x="256" y="309"/>
      <point x="263" y="312"/>
      <point x="266" y="460" type="curve" smooth="yes"/>
      <point x="267" y="501" type="line"/>
      <point x="81" y="487" type="line"/>
      <point x="97" y="671" type="line"/>
      <point x="270" y="679" type="line"/>
      <point x="272" y="746" type="line" smooth="yes"/>
      <point x="282" y="1090"/>
      <point x="602" y="1255"/>
      <point x="912" y="1255" type="curve" smooth="yes"/>
      <point x="1011" y="1255"/>
      <point x="1109" y="1238"/>
      <point x="1196" y="1205" type="curve"/>
      <point x="1155" y="779" type="line"/>
      <point x="995" y="801" type="line"/>
      <point x="915" y="1014" type="line"/>
      <point x="868" y="1034"/>
      <point x="806" y="1042"/>
      <point x="766" y="1042" type="curve" smooth="yes"/>
      <point x="670" y="1042"/>
      <point x="626" y="971"/>
      <point x="626" y="706" type="curve" smooth="yes"/>
      <point x="626" y="686" type="line"/>
      <point x="909" y="701" type="line"/>
      <point x="898" y="520" type="line"/>
      <point x="622" y="507" type="line"/>
      <point x="619" y="483" type="line" smooth="yes"/>
      <point x="610" y="408"/>
      <point x="622" y="308"/>
      <point x="559" y="231" type="curve"/>
      <point x="877" y="181" type="line"/>
      <point x="1076" y="441" type="line"/>
      <point x="1252" y="407" type="line"/>
      <point x="1198" y="0" type="line"/>
    </contour>
  </outline>
</glyph>
<glyph name="yen" format="1">
  <advance width="1207"/>
  <unicode hex="00A5"/>
  <outline>
    <contour>
      <point x="40" y="1089" type="line"/>
      <point x="72" y="1245" type="line"/>
      <point x="614" y="1245" type="line"/>
      <point x="586" y="1089" type="line"/>
      <point x="522" y="1028" type="line"/>
      <point x="666" y="686" type="line"/>
      <point x="834" y="1030" type="line"/>
      <point x="732" y="1089" type="line"/>
      <point x="757" y="1245" type="line"/>
      <point x="1166" y="1245" type="line"/>
      <point x="1143" y="1089" type="line"/>
      <point x="1029" y="1030" type="line"/>
      <point x="813" y="630" type="line"/>
      <point x="1013" y="630" type="line"/>
      <point x="1004" y="490" type="line"/>
      <point x="765" y="490" type="line"/>
      <point x="765" y="438" type="line"/>
      <point x="1008" y="438" type="line"/>
      <point x="995" y="307" type="line"/>
      <point x="765" y="307" type="line"/>
      <point x="765" y="203" type="line"/>
      <point x="892" y="141" type="line"/>
      <point x="881" y="0" type="line"/>
      <point x="301" y="0" type="line"/>
      <point x="319" y="131" type="line"/>
      <point x="418" y="212" type="line"/>
      <point x="418" y="307" type="line"/>
      <point x="172" y="307" type="line"/>
      <point x="186" y="438" type="line"/>
      <point x="418" y="438" type="line"/>
      <point x="418" y="490" type="line"/>
      <point x="175" y="490" type="line"/>
      <point x="192" y="630" type="line"/>
      <point x="382" y="630" type="line"/>
      <point x="166" y="1027" type="line"/>
    </contour>
  </outline>
</glyph>
<glyph name="section" format="1">
  <advance width="1053"/>
  <unicode hex="00A7"/>
  <outline>
    <contour>
      <point x="64" y="-231" type="curve"/>
      <point x="85" y="80" type="line"/>
      <point x="270" y="46" type="line"/>
      <point x="318" y="-157" type="line"/>
      <point x="339" y="-175"/>
      <point x="430" y="-210"/>
      <point x="512" y="-210" type="curve" smooth="yes"/>
      <point x="588" y="-210"/>
      <point x="656" y="-180"/>
      <point x="656" y="-81" type="curve" smooth="yes"/>
      <point x="656" y="157"/>
      <point x="-78" y="70"/>
      <point x="78" y="614" type="curve"/>
      <point x="468" y="442" type="line" smooth="yes"/>
      <point x="813" y="290"/>
      <point x="984" y="246"/>
      <point x="984" y="10" type="curve" smooth="yes"/>
      <point x="984" y="-303"/>
      <point x="646" y="-393"/>
      <point x="459" y="-393" type="curve" smooth="yes"/>
      <point x="315" y="-393"/>
      <point x="128" y="-312"/>
    </contour>
    <contour>
      <point x="73" y="909" type="curve" smooth="yes"/>
      <point x="73" y="1192"/>
      <point x="274" y="1266"/>
      <point x="543" y="1266" type="curve" smooth="yes"/>
      <point x="686" y="1266"/>
      <point x="826" y="1234"/>
      <point x="887" y="1187" type="curve"/>
      <point x="887" y="1163"/>
      <point x="874" y="899"/>
      <point x="874" y="899" type="curve"/>
      <point x="703" y="922" type="line"/>
      <point x="654" y="1068" type="line"/>
      <point x="622" y="1090"/>
      <point x="558" y="1117"/>
      <point x="501" y="1117" type="curve" smooth="yes"/>
      <point x="442" y="1117"/>
      <point x="391" y="1089"/>
      <point x="391" y="995" type="curve" smooth="yes"/>
      <point x="391" y="756"/>
      <point x="1182" y="872"/>
      <point x="965" y="320" type="curve"/>
      <point x="446" y="545" type="line" smooth="yes"/>
      <point x="217" y="644"/>
      <point x="73" y="726"/>
    </contour>
  </outline>
</glyph>
<glyph name="copyright" format="1">
  <advance width="1507"/>
  <unicode hex="00A9"/>
  <outline>
    <contour>
      <point x="419.258" y="674.219" type="curve" smooth="yes"/>
      <point x="419.258" y="944.684"/>
      <point x="582" y="1123.97"/>
      <point x="808.216" y="1123.97" type="curve" smooth="yes"/>
      <point x="925.958" y="1123.97"/>
      <point x="1011.18" y="1061.4"/>
      <point x="1011.18" y="964.305" type="curve" smooth="yes"/>
      <point x="1011.18" y="877.207"/>
      <point x="957.264" y="794.107"/>
      <point x="893.498" y="778.146" type="curve"/>
      <point x="846.374" y="843.679"/>
      <point x="790.055" y="872.815"/>
      <point x="735.405" y="872.815" type="curve" smooth="yes"/>
      <point x="697.379" y="872.815"/>
      <point x="676.51" y="859.933"/>
      <point x="676.51" y="810.746" type="curve" smooth="yes"/>
      <point x="676.51" y="696.055"/>
      <point x="700.71" y="547.854"/>
      <point x="806.485" y="547.854" type="curve" smooth="yes"/>
      <point x="857.465" y="547.854"/>
      <point x="918.313" y="564.642"/>
      <point x="945.359" y="608.164" type="curve"/>
      <point x="1037.37" y="504.332" type="line"/>
      <point x="997.194" y="386.983"/>
      <point x="899.726" y="304.174"/>
      <point x="735.947" y="304.174" type="curve" smooth="yes"/>
      <point x="507.785" y="304.174"/>
      <point x="419.258" y="461.256"/>
    </contour>
    <contour>
      <point x="49" y="687" type="curve" smooth="yes"/>
      <point x="49" y="1131"/>
      <point x="363" y="1397"/>
      <point x="766" y="1397" type="curve" smooth="yes"/>
      <point x="1196" y="1397"/>
      <point x="1458" y="1116"/>
      <point x="1458" y="700" type="curve" smooth="yes"/>
      <point x="1458" y="345"/>
      <point x="1155" y="10"/>
      <point x="757" y="10" type="curve" smooth="yes"/>
      <point x="309" y="10"/>
      <point x="49" y="275"/>
    </contour>
    <contour>
      <point x="255" y="708" type="curve" smooth="yes"/>
      <point x="255" y="345"/>
      <point x="473" y="170"/>
      <point x="763" y="170" type="curve" smooth="yes"/>
      <point x="1039" y="170"/>
      <point x="1267" y="349"/>
      <point x="1267" y="690" type="curve" smooth="yes"/>
      <point x="1267" y="976"/>
      <point x="1112" y="1244"/>
      <point x="752" y="1244" type="curve" smooth="yes"/>
      <point x="432" y="1244"/>
      <point x="255" y="1023"/>
    </contour>
  </outline>
</glyph>
<glyph name="ordfeminine" format="1">
  <advance width="836"/>
  <unicode hex="00AA"/>
  <outline>
    <contour>
      <point x="431.186" y="963.202" type="curve"/>
      <point x="431.186" y="1042.58" type="line" smooth="yes"/>
      <point x="431.186" y="1076.6"/>
      <point x="406.218" y="1105.76"/>
      <point x="370.436" y="1105.76" type="curve" smooth="yes"/>
      <point x="324.266" y="1105.76"/>
      <point x="270.806" y="1042.58"/>
      <point x="244.076" y="976.973" type="curve"/>
      <point x="146.309" y="986.574"/>
      <point x="92.9844" y="1044"/>
      <point x="92.9844" y="1104.23" type="curve" smooth="yes"/>
      <point x="92.9844" y="1240.63"/>
      <point x="266.283" y="1286"/>
      <point x="430" y="1286" type="curve" smooth="yes"/>
      <point x="575.016" y="1286"/>
      <point x="680.666" y="1231.16"/>
      <point x="680.666" y="1045.82" type="curve" smooth="yes"/>
      <point x="680.666" y="829.553" type="line" smooth="yes"/>
      <point x="680.666" y="731.582"/>
      <point x="705.259" y="703.468"/>
      <point x="751.945" y="688.612" type="curve" smooth="yes"/>
      <point x="774.626" y="682.133" type="line"/>
      <point x="754.376" y="554.152" type="line"/>
      <point x="710.688" y="526.612"/>
      <point x="663.168" y="507.172"/>
      <point x="611.815" y="507.172" type="curve" smooth="yes"/>
      <point x="522.07" y="507.172"/>
      <point x="467.636" y="550.103"/>
      <point x="461.966" y="628.672" type="curve" smooth="yes"/>
      <point x="461.155" y="639.202" type="line"/>
      <point x="449.815" y="639.202" type="line"/>
      <point x="438.128" y="577.171"/>
      <point x="350.494" y="509.557"/>
      <point x="252.994" y="509.557" type="curve" smooth="yes"/>
      <point x="126.74" y="509.557"/>
      <point x="53.7715" y="599.839"/>
      <point x="53.7715" y="705.184" type="curve" smooth="yes"/>
      <point x="53.7715" y="894.104"/>
      <point x="229.932" y="970.037"/>
    </contour>
    <contour>
      <point x="364.766" y="708.862" type="curve" smooth="yes"/>
      <point x="385.016" y="708.862"/>
      <point x="408.506" y="716.152"/>
      <point x="431.186" y="732.353" type="curve"/>
      <point x="431.186" y="836.842" type="line"/>
      <point x="391.496" y="836.842"/>
      <point x="300.619" y="822.138"/>
      <point x="300.619" y="761.24" type="curve" smooth="yes"/>
      <point x="300.619" y="730.011"/>
      <point x="322.207" y="708.862"/>
    </contour>
  </outline>
</glyph>
<glyph name="logicalnot" format="1">
  <advance width="934"/>
  <unicode hex="00AC"/>
  <outline>
    <contour>
      <point x="57" y="459" type="line"/>
      <point x="69" y="661" type="line"/>
      <point x="872" y="661" type="line"/>
      <point x="872" y="261" type="line"/>
      <point x="653" y="241" type="line"/>
      <point x="653" y="459" type="line"/>
    </contour>
  </outline>
</glyph>
<glyph name="degree" format="1">
  <advance width="505"/>
  <unicode hex="00B0"/>
  <outline>
    <contour>
      <point x="55" y="1107" type="curve" smooth="yes"/>
      <point x="55" y="1210"/>
      <point x="150" y="1304"/>
      <point x="258" y="1304" type="curve" smooth="yes"/>
      <point x="374" y="1304"/>
      <point x="449" y="1237"/>
      <point x="449" y="1128" type="curve" smooth="yes"/>
      <point x="449" y="1013"/>
      <point x="340" y="928"/>
      <point x="234" y="928" type="curve" smooth="yes"/>
      <point x="132" y="928"/>
      <point x="55" y="990"/>
    </contour>
    <contour>
      <point x="186" y="1129" type="curve" smooth="yes"/>
      <point x="186" y="1074"/>
      <point x="201" y="1023"/>
      <point x="252" y="1023" type="curve" smooth="yes"/>
      <point x="288" y="1023"/>
      <point x="307" y="1059"/>
      <point x="307" y="1105" type="curve" smooth="yes"/>
      <point x="307" y="1161"/>
      <point x="285" y="1209"/>
      <point x="242" y="1209" type="curve" smooth="yes"/>
      <point x="207" y="1209"/>
      <point x="186" y="1173"/>
    </contour>
  </outline>
</glyph>
<glyph name="acute" format="1">
  <advance width="584"/>
  <unicode hex="00B4"/>
  <outline>
    <contour>
      <point x="45" y="1333" type="line"/>
      <point x="190" y="1638" type="line"/>
      <point x="540" y="1628" type="line"/>
      <point x="279" y="1307" type="line"/>
    </contour>
  </outline>
</glyph>
<glyph name="micro" format="1">
  <advance width="1230"/>
  <unicode hex="00B5"/>
  <outline>
    <contour>
      <point x="44" y="718" type="line"/>
      <point x="78" y="901" type="line"/>
      <point x="442" y="923" type="line"/>
      <point x="498" y="870" type="line"/>
      <point x="498" y="469" type="line" smooth="yes"/>
      <point x="498" y="341"/>
      <point x="519" y="296"/>
      <point x="581" y="296" type="curve" smooth="yes"/>
      <point x="627" y="296"/>
      <point x="664" y="310"/>
      <point x="705" y="346" type="curve"/>
      <point x="705" y="604" type="line"/>
      <point x="576" y="680" type="line"/>
      <point x="610" y="889" type="line"/>
      <point x="968" y="931" type="line"/>
      <point x="1021" y="878" type="line"/>
      <point x="1021" y="373" type="line" smooth="yes"/>
      <point x="1021" y="270"/>
      <point x="1050" y="237"/>
      <point x="1159" y="202" type="curve" smooth="yes"/>
      <point x="1187" y="193" type="line"/>
      <point x="1162" y="23" type="line"/>
      <point x="1087" y="-12"/>
      <point x="996" y="-35"/>
      <point x="916" y="-35" type="curve" smooth="yes"/>
      <point x="807" y="-35"/>
      <point x="719" y="7"/>
      <point x="719" y="115" type="curve" smooth="yes"/>
      <point x="719" y="128" type="line"/>
      <point x="706" y="134" type="line"/>
      <point x="646" y="27"/>
      <point x="532" y="-31"/>
      <point x="437" y="-31" type="curve" smooth="yes"/>
      <point x="392" y="-32"/>
      <point x="365" y="-27"/>
      <point x="345" y="-9" type="curve"/>
      <point x="328" y="-12" type="line"/>
      <point x="348" y="-56"/>
      <point x="358" y="-116"/>
      <point x="364" y="-180" type="curve" smooth="yes"/>
      <point x="386" y="-387" type="line"/>
      <point x="118" y="-361" type="line"/>
      <point x="136" y="-196"/>
      <point x="169" y="289"/>
      <point x="169" y="493" type="curve" smooth="yes"/>
      <point x="169" y="613" type="line"/>
    </contour>
  </outline>
</glyph>
<glyph name="paragraph" format="1">
  <advance width="1681"/>
  <unicode hex="00B6"/>
  <outline>
    <contour>
      <point x="49" y="796" type="curve" smooth="yes"/>
      <point x="49" y="1065"/>
      <point x="235" y="1245"/>
      <point x="549" y="1245" type="curve" smooth="yes"/>
      <point x="1080" y="1245" type="line"/>
      <point x="1080" y="-2" type="line"/>
      <point x="536" y="-2" type="line"/>
      <point x="547" y="136" type="line"/>
      <point x="805" y="216" type="line"/>
      <point x="805" y="1068" type="line"/>
      <point x="740" y="1081"/>
      <point x="682" y="1088"/>
      <point x="632" y="1088" type="curve" smooth="yes"/>
      <point x="477" y="1088"/>
      <point x="395" y="1021"/>
      <point x="395" y="859" type="curve" smooth="yes"/>
      <point x="395" y="740"/>
      <point x="477" y="596"/>
      <point x="680" y="601" type="curve"/>
      <point x="662" y="408" type="line"/>
      <point x="280" y="374"/>
      <point x="49" y="528"/>
    </contour>
    <contour>
      <point x="1193" y="-2" type="line"/>
      <point x="1193" y="1245" type="line"/>
      <point x="1634" y="1245" type="line"/>
      <point x="1615" y="1089" type="line"/>
      <point x="1437" y="1022" type="line"/>
      <point x="1437" y="214" type="line"/>
      <point x="1627" y="148" type="line"/>
      <point x="1618" y="-2" type="line"/>
    </contour>
  </outline>
</glyph>
<glyph name="one.superior" format="1">
  <advance width="718"/>
  <unicode hex="00B9"/>
  <outline>
    <contour>
      <point x="50" y="528" type="line"/>
      <point x="65" y="658" type="line"/>
      <point x="193" y="693" type="line"/>
      <point x="193" y="1073" type="line"/>
      <point x="72" y="1073" type="line"/>
      <point x="83" y="1241" type="line"/>
      <point x="461" y="1274" type="line"/>
      <point x="530" y="1274" type="line"/>
      <point x="530" y="686" type="line"/>
      <point x="667" y="666" type="line"/>
      <point x="660" y="528" type="line"/>
    </contour>
  </outline>
</glyph>
<glyph name="onehalf" format="1">
  <advance width="1928"/>
  <unicode hex="00BD"/>
  <outline>
    <contour>
      <point x="1210" y="118" type="line"/>
      <point x="1326" y="201" type="line" smooth="yes"/>
      <point x="1463" y="299"/>
      <point x="1520" y="399"/>
      <point x="1520" y="456" type="curve" smooth="yes"/>
      <point x="1520" y="495"/>
      <point x="1493" y="518"/>
      <point x="1448" y="518" type="curve" smooth="yes"/>
      <point x="1430" y="518"/>
      <point x="1420" y="514"/>
      <point x="1401" y="507" type="curve"/>
      <point x="1361" y="334" type="line"/>
      <point x="1252" y="344" type="line"/>
      <point x="1210" y="572" type="line"/>
      <point x="1284" y="640"/>
      <point x="1409" y="688"/>
      <point x="1553" y="688" type="curve" smooth="yes"/>
      <point x="1768" y="688"/>
      <point x="1850" y="573"/>
      <point x="1850" y="497" type="curve" smooth="yes"/>
      <point x="1850" y="344"/>
      <point x="1677" y="240"/>
      <point x="1560" y="192" type="curve" smooth="yes"/>
      <point x="1480" y="159" type="line"/>
      <point x="1681" y="139" type="line"/>
      <point x="1769" y="260" type="line"/>
      <point x="1880" y="254" type="line"/>
      <point x="1846" y="-60" type="line"/>
      <point x="1224" y="-60" type="line"/>
    </contour>
    <contour>
      <point x="45" y="528" type="line"/>
      <point x="60" y="658" type="line"/>
      <point x="188" y="693" type="line"/>
      <point x="188" y="1073" type="line"/>
      <point x="67" y="1073" type="line"/>
      <point x="78" y="1241" type="line"/>
      <point x="456" y="1274" type="line"/>
      <point x="525" y="1274" type="line"/>
      <point x="525" y="686" type="line"/>
      <point x="662" y="666" type="line"/>
      <point x="655" y="528" type="line"/>
    </contour>
    <contour>
      <point x="269" y="35" type="line"/>
      <point x="826" y="588" type="line"/>
      <point x="1369" y="1207" type="line"/>
      <point x="1671" y="1205" type="line"/>
      <point x="1671" y="1130" type="line"/>
      <point x="1130" y="591" type="line"/>
      <point x="637" y="-19" type="line"/>
    </contour>
  </outline>
</glyph>
<glyph name="threequarters" format="1">
  <advance width="1869"/>
  <unicode hex="00BE"/>
  <outline>
    <contour>
      <point x="59" y="517" type="curve"/>
      <point x="106" y="794" type="line"/>
      <point x="264" y="786" type="line"/>
      <point x="275" y="665" type="line"/>
      <point x="284" y="663"/>
      <point x="294" y="661"/>
      <point x="303" y="661" type="curve" smooth="yes"/>
      <point x="340" y="661"/>
      <point x="377" y="684"/>
      <point x="377" y="734" type="curve" smooth="yes"/>
      <point x="377" y="795"/>
      <point x="333" y="851"/>
      <point x="257" y="831" type="curve"/>
      <point x="221" y="956" type="line"/>
      <point x="321" y="972"/>
      <point x="367" y="1008"/>
      <point x="367" y="1056" type="curve" smooth="yes"/>
      <point x="367" y="1116"/>
      <point x="328" y="1142"/>
      <point x="289" y="1142" type="curve" smooth="yes"/>
      <point x="283" y="1142"/>
      <point x="267" y="1141"/>
      <point x="261" y="1141" type="curve"/>
      <point x="229" y="991" type="line"/>
      <point x="83" y="996" type="line"/>
      <point x="45" y="1196" type="line"/>
      <point x="82" y="1249"/>
      <point x="239" y="1303"/>
      <point x="346" y="1303" type="curve" smooth="yes"/>
      <point x="548" y="1303"/>
      <point x="706" y="1270"/>
      <point x="706" y="1144" type="curve" smooth="yes"/>
      <point x="706" y="1044"/>
      <point x="564" y="969"/>
      <point x="458" y="944" type="curve"/>
      <point x="458" y="934" type="line"/>
      <point x="677" y="943"/>
      <point x="739" y="885"/>
      <point x="743" y="767" type="curve" smooth="yes"/>
      <point x="748" y="617"/>
      <point x="551" y="489"/>
      <point x="265" y="489" type="curve" smooth="yes"/>
      <point x="186" y="489"/>
      <point x="120" y="498"/>
    </contour>
    <contour>
      <point x="273" y="35" type="line"/>
      <point x="830" y="588" type="line"/>
      <point x="1373" y="1207" type="line"/>
      <point x="1675" y="1205" type="line"/>
      <point x="1675" y="1130" type="line"/>
      <point x="1134" y="591" type="line"/>
      <point x="641" y="-19" type="line"/>
    </contour>
    <contour>
      <point x="1080" y="295" type="line"/>
      <point x="1578" y="707" type="line"/>
      <point x="1689" y="681" type="line"/>
      <point x="1684" y="623"/>
      <point x="1678" y="513"/>
      <point x="1678" y="425" type="curve" smooth="yes"/>
      <point x="1678" y="314" type="line"/>
      <point x="1826" y="314" type="line"/>
      <point x="1817" y="145" type="line"/>
      <point x="1678" y="145" type="line"/>
      <point x="1678" y="63" type="line"/>
      <point x="1777" y="35" type="line"/>
      <point x="1770" y="-60" type="line"/>
      <point x="1285" y="-60" type="line"/>
      <point x="1290" y="30" type="line"/>
      <point x="1389" y="62" type="line"/>
      <point x="1389" y="148" type="line"/>
      <point x="1095" y="148" type="line"/>
    </contour>
    <contour>
      <point x="1283" y="275" type="line"/>
      <point x="1408" y="275" type="line"/>
      <point x="1408" y="441" type="line"/>
    </contour>
  </outline>
</glyph>
<glyph name="Eth" format="1">
  <advance width="1540"/>
  <unicode hex="00D0"/>
  <outline>
    <contour>
      <point x="66" y="483" type="line"/>
      <point x="81" y="666" type="line"/>
      <point x="246" y="680" type="line"/>
      <point x="246" y="1003" type="line"/>
      <point x="73" y="1049" type="line"/>
      <point x="80" y="1206" type="line"/>
      <point x="276" y="1237"/>
      <point x="530" y="1258"/>
      <point x="673" y="1258" type="curve" smooth="yes"/>
      <point x="1343" y="1258"/>
      <point x="1494" y="959"/>
      <point x="1494" y="652" type="curve" smooth="yes"/>
      <point x="1494" y="311"/>
      <point x="1171" y="0"/>
      <point x="661" y="0" type="curve" smooth="yes"/>
      <point x="43" y="0" type="line"/>
      <point x="66" y="138" type="line"/>
      <point x="246" y="241" type="line"/>
      <point x="246" y="499" type="line"/>
    </contour>
    <contour>
      <point x="616" y="202" type="line"/>
      <point x="691" y="202" type="line" smooth="yes"/>
      <point x="1049" y="202"/>
      <point x="1089" y="459"/>
      <point x="1089" y="598" type="curve" smooth="yes"/>
      <point x="1089" y="793"/>
      <point x="963" y="1057"/>
      <point x="634" y="1057" type="curve" smooth="yes"/>
      <point x="595" y="1057"/>
      <point x="655" y="1052"/>
      <point x="616" y="1051" type="curve"/>
      <point x="616" y="712" type="line"/>
      <point x="814" y="737" type="line"/>
      <point x="795" y="548" type="line"/>
      <point x="616" y="536" type="line"/>
    </contour>
  </outline>
</glyph>
<glyph name="multiply" format="1">
  <advance width="659"/>
  <unicode hex="00D7"/>
  <outline>
    <contour>
      <point x="46" y="318" type="line"/>
      <point x="205" y="455" type="line"/>
      <point x="46" y="616" type="line"/>
      <point x="171" y="752" type="line"/>
      <point x="339" y="552" type="line"/>
      <point x="496" y="752" type="line"/>
      <point x="621" y="615" type="line"/>
      <point x="466" y="451" type="line"/>
      <point x="622" y="318" type="line"/>
      <point x="497" y="176" type="line"/>
      <point x="330" y="350" type="line"/>
      <point x="170" y="175" type="line"/>
    </contour>
  </outline>
</glyph>
<glyph name="Oslash" format="1">
  <advance width="1355"/>
  <unicode hex="00D8"/>
  <outline>
    <contour>
      <point x="-14" y="64" type="line"/>
      <point x="191" y="290" type="line"/>
      <point x="364" y="322" type="line"/>
      <point x="915" y="1012" type="line"/>
      <point x="933" y="1112" type="line"/>
      <point x="1097" y="1262" type="line"/>
      <point x="1340" y="1211" type="line"/>
      <point x="1069" y="941" type="line"/>
      <point x="956" y="922" type="line"/>
      <point x="406" y="223" type="line"/>
      <point x="335" y="116" type="line"/>
      <point x="232" y="1" type="line"/>
    </contour>
    <component base="O"/>
  </outline>
</glyph>
<glyph name="Thorn" format="1">
  <advance width="1281"/>
  <unicode hex="00DE"/>
  <outline>
    <contour>
      <point x="50" y="1094" type="line"/>
      <point x="70" y="1244" type="line"/>
      <point x="797" y="1244" type="line"/>
      <point x="781" y="1084" type="line"/>
      <point x="602" y="1017" type="line"/>
      <point x="602" y="982" type="line"/>
      <point x="641" y="989"/>
      <point x="681" y="993"/>
      <point x="721" y="993" type="curve" smooth="yes"/>
      <point x="1035" y="993"/>
      <point x="1236" y="942"/>
      <point x="1236" y="645" type="curve" smooth="yes"/>
      <point x="1236" y="405"/>
      <point x="1038" y="242"/>
      <point x="739" y="242" type="curve" smooth="yes"/>
      <point x="713" y="242"/>
      <point x="686" y="244"/>
      <point x="658" y="247" type="curve"/>
      <point x="626" y="421" type="line"/>
      <point x="785" y="421"/>
      <point x="866" y="465"/>
      <point x="866" y="597" type="curve" smooth="yes"/>
      <point x="866" y="719"/>
      <point x="803" y="790"/>
      <point x="671" y="790" type="curve" smooth="yes"/>
      <point x="650" y="790"/>
      <point x="627" y="787"/>
      <point x="604" y="783" type="curve"/>
      <point x="604" y="222" type="line"/>
      <point x="782" y="160" type="line"/>
      <point x="769" y="0" type="line"/>
      <point x="52" y="0" type="line"/>
      <point x="62" y="142" type="line"/>
      <point x="238" y="221" type="line"/>
      <point x="238" y="1020" type="line"/>
    </contour>
  </outline>
</glyph>
<glyph name="germandbls" format="1">
  <advance width="1380"/>
  <unicode hex="00DF"/>
  <outline>
    <contour>
      <point x="46" y="0" type="line"/>
      <point x="58" y="158" type="line"/>
      <point x="213" y="230" type="line"/>
      <point x="213" y="700" type="line"/>
      <point x="63" y="700" type="line"/>
      <point x="73" y="849" type="line"/>
      <point x="211" y="873" type="line"/>
      <point x="227" y="1143.49"/>
      <point x="480" y="1306"/>
      <point x="768" y="1306" type="curve" smooth="yes"/>
      <point x="1014.03" y="1306"/>
      <point x="1196.93" y="1221"/>
      <point x="1196.93" y="1066.72" type="curve" smooth="yes"/>
      <point x="1196.93" y="829"/>
      <point x="864" y="885"/>
      <point x="864" y="745" type="curve" smooth="yes"/>
      <point x="864" y="620"/>
      <point x="1340" y="609"/>
      <point x="1340" y="272" type="curve" smooth="yes"/>
      <point x="1340" y="71"/>
      <point x="1155" y="-36"/>
      <point x="909" y="-36" type="curve" smooth="yes"/>
      <point x="744" y="-36"/>
      <point x="561" y="42"/>
      <point x="561" y="167" type="curve" smooth="yes"/>
      <point x="561" y="264"/>
      <point x="633" y="318"/>
      <point x="753" y="328" type="curve"/>
      <point x="791" y="194"/>
      <point x="859" y="123"/>
      <point x="936" y="123" type="curve" smooth="yes"/>
      <point x="1014" y="123"/>
      <point x="1045" y="137"/>
      <point x="1045" y="186" type="curve" smooth="yes"/>
      <point x="1045" y="300"/>
      <point x="595" y="346"/>
      <point x="595" y="644" type="curve" smooth="yes"/>
      <point x="595" y="904.254"/>
      <point x="856.747" y="869.432"/>
      <point x="856.747" y="1041.31" type="curve" smooth="yes"/>
      <point x="856.747" y="1102.67"/>
      <point x="797.74" y="1154"/>
      <point x="703" y="1154" type="curve" smooth="yes"/>
      <point x="644" y="1154"/>
      <point x="509" y="1125.1"/>
      <point x="509" y="955" type="curve" smooth="yes"/>
      <point x="509" y="0" type="line"/>
    </contour>
  </outline>
</glyph>
<glyph name="ae" format="1">
  <advance width="1394"/>
  <unicode hex="00E6"/>
  <outline>
    <contour>
      <point x="435" y="225" type="curve" smooth="yes"/>
      <point x="460" y="225"/>
      <point x="489" y="234"/>
      <point x="517" y="254" type="curve"/>
      <point x="517" y="383" type="line"/>
      <point x="468" y="383"/>
      <point x="355.807" y="364.847"/>
      <point x="355.807" y="289.664" type="curve" smooth="yes"/>
      <point x="355.807" y="251.109"/>
      <point x="382.459" y="225"/>
    </contour>
    <contour>
      <point x="517" y="539" type="curve"/>
      <point x="517" y="637" type="line" smooth="yes"/>
      <point x="517" y="679"/>
      <point x="486.175" y="715"/>
      <point x="442" y="715" type="curve" smooth="yes"/>
      <point x="385" y="715"/>
      <point x="319" y="637"/>
      <point x="286" y="556" type="curve"/>
      <point x="165.3" y="567.855"/>
      <point x="99.4678" y="638.752"/>
      <point x="99.4678" y="713.104" type="curve" smooth="yes"/>
      <point x="99.4678" y="881.507"/>
      <point x="283.417" y="937.516"/>
      <point x="485.536" y="937.516" type="curve" smooth="yes"/>
      <point x="574.996" y="937.516"/>
      <point x="665.046" y="904.279"/>
      <point x="717.861" y="850.239" type="curve"/>
      <point x="787.488" y="912.712"/>
      <point x="874.549" y="950"/>
      <point x="961" y="950" type="curve" smooth="yes"/>
      <point x="1161.36" y="950"/>
      <point x="1267" y="792"/>
      <point x="1267" y="580" type="curve" smooth="yes"/>
      <point x="1267" y="545.536"/>
      <point x="1252" y="415.464"/>
      <point x="1246" y="381" type="curve"/>
      <point x="828" y="367" type="line"/>
      <point x="834.08" y="263.048"/>
      <point x="883.48" y="219"/>
      <point x="1018" y="219" type="curve" smooth="yes"/>
      <point x="1094" y="219"/>
      <point x="1195" y="231"/>
      <point x="1266" y="265" type="curve"/>
      <point x="1285" y="92" type="line"/>
      <point x="1193" y="0"/>
      <point x="1032.41" y="-31"/>
      <point x="918" y="-31" type="curve" smooth="yes"/>
      <point x="774.77" y="-31"/>
      <point x="656.213" y="21.9159"/>
      <point x="582.394" y="126.95" type="curve"/>
      <point x="547.757" y="47.5952"/>
      <point x="454.284" y="-21.0566"/>
      <point x="317.011" y="-21.0566" type="curve" smooth="yes"/>
      <point x="132" y="-21.0566"/>
      <point x="51.0566" y="90.4033"/>
      <point x="51.0566" y="220.458" type="curve" smooth="yes"/>
      <point x="51.0566" y="453.694"/>
      <point x="268.538" y="547.438"/>
    </contour>
    <contour>
      <point x="819" y="498" type="curve"/>
      <point x="975" y="521" type="line"/>
      <point x="980" y="534.026"/>
      <point x="981" y="574.842"/>
      <point x="981" y="587" type="curve" smooth="yes"/>
      <point x="981" y="648.217"/>
      <point x="960" y="715"/>
      <point x="898" y="715" type="curve" smooth="yes"/>
      <point x="842.141" y="715"/>
      <point x="817.404" y="617.03"/>
    </contour>
  </outline>
</glyph>
<glyph name="igrave" format="1">
  <advance width="739"/>
  <unicode hex="00EC"/>
  <outline>
    <contour>
      <point x="49" y="0" type="line"/>
      <point x="57" y="176" type="line"/>
      <point x="211" y="230" type="line"/>
      <point x="211" y="619" type="line"/>
      <point x="63" y="728" type="line"/>
      <point x="96" y="901" type="line"/>
      <point x="469" y="928" type="line"/>
      <point x="525" y="872" type="line"/>
      <point x="525" y="230" type="line"/>
      <point x="687" y="174" type="line"/>
      <point x="676" y="0" type="line"/>
    </contour>
    <component base="grave" xOffset="-44" yOffset="-330"/>
  </outline>
</glyph>
<glyph name="eth" format="1">
  <advance width="1034"/>
  <unicode hex="00F0"/>
  <outline>
    <contour>
      <point x="47" y="451" type="curve" smooth="yes"/>
      <point x="47" y="684"/>
      <point x="281" y="946"/>
      <point x="464" y="946" type="curve" smooth="yes"/>
      <point x="512" y="946"/>
      <point x="555" y="928"/>
      <point x="591" y="887" type="curve"/>
      <point x="595" y="893" type="line"/>
      <point x="586" y="921"/>
      <point x="560" y="996"/>
      <point x="539" y="1046" type="curve"/>
      <point x="337" y="1006" type="line"/>
      <point x="345" y="1132" type="line"/>
      <point x="483" y="1163" type="line"/>
      <point x="453" y="1219"/>
      <point x="418" y="1271"/>
      <point x="383" y="1302" type="curve"/>
      <point x="639" y="1302" type="line"/>
      <point x="671" y="1277"/>
      <point x="701" y="1249"/>
      <point x="729" y="1219" type="curve"/>
      <point x="893" y="1256" type="line"/>
      <point x="881" y="1114" type="line"/>
      <point x="819" y="1102" type="line"/>
      <point x="929" y="933"/>
      <point x="989" y="723"/>
      <point x="989" y="531" type="curve" smooth="yes"/>
      <point x="989" y="231"/>
      <point x="844" y="-27"/>
      <point x="518" y="-27" type="curve" smooth="yes"/>
      <point x="172" y="-27"/>
      <point x="47" y="207"/>
    </contour>
    <contour>
      <point x="381" y="497" type="curve"/>
      <point x="391" y="309"/>
      <point x="471" y="153"/>
      <point x="559" y="153" type="curve" smooth="yes"/>
      <point x="659" y="153"/>
      <point x="663" y="248"/>
      <point x="663" y="453" type="curve" smooth="yes"/>
      <point x="663" y="630"/>
      <point x="569" y="778"/>
      <point x="489" y="778" type="curve" smooth="yes"/>
      <point x="431" y="778"/>
      <point x="381" y="700"/>
    </contour>
  </outline>
</glyph>
<glyph name="oslash" format="1">
  <advance width="1079"/>
  <unicode hex="00F8"/>
  <outline>
    <contour>
      <point x="41" y="14" type="line"/>
      <point x="205" y="210" type="line"/>
      <point x="297" y="236" type="line"/>
      <point x="679" y="716" type="line"/>
      <point x="719" y="824" type="line"/>
      <point x="834" y="956" type="line"/>
      <point x="1039" y="921" type="line"/>
      <point x="880" y="736" type="line"/>
      <point x="777" y="680" type="line"/>
      <point x="373" y="172" type="line"/>
      <point x="344" y="94" type="line"/>
      <point x="249" y="-20" type="line"/>
    </contour>
    <contour>
      <point x="395" y="528" type="curve" smooth="yes"/>
      <point x="395" y="287"/>
      <point x="443" y="168"/>
      <point x="566" y="168" type="curve" smooth="yes"/>
      <point x="650" y="168"/>
      <point x="681" y="212"/>
      <point x="681" y="357" type="curve" smooth="yes"/>
      <point x="681" y="540"/>
      <point x="668" y="743"/>
      <point x="518" y="743" type="curve" smooth="yes"/>
      <point x="422" y="743"/>
      <point x="395" y="665"/>
    </contour>
    <contour>
      <point x="61" y="465" type="curve" smooth="yes"/>
      <point x="61" y="771"/>
      <point x="333" y="951"/>
      <point x="556" y="951" type="curve" smooth="yes"/>
      <point x="858" y="951"/>
      <point x="1019" y="801"/>
      <point x="1019" y="490" type="curve" smooth="yes"/>
      <point x="1019" y="174"/>
      <point x="826" y="-27"/>
      <point x="535" y="-27" type="curve" smooth="yes"/>
      <point x="167" y="-27"/>
      <point x="61" y="216"/>
    </contour>
  </outline>
</glyph>
<glyph name="thorn" format="1">
  <advance width="1184"/>
  <unicode hex="00FE"/>
  <outline>
    <contour>
      <point x="327" y="805" type="move" smooth="yes"/>
    </contour>
    <contour>
      <point x="39" y="-370" type="line"/>
      <point x="57" y="-212" type="line"/>
      <point x="212" y="-142" type="line"/>
      <point x="213" y="1007" type="line"/>
      <point x="39" y="1108" type="line"/>
      <point x="64" y="1272" type="line"/>
      <point x="463" y="1299" type="line"/>
      <point x="523" y="1244" type="line"/>
      <point x="523" y="916" type="line"/>
      <point x="508" y="776" type="line"/>
      <point x="523" y="770" type="line"/>
      <point x="571" y="840"/>
      <point x="671" y="940"/>
      <point x="803" y="940" type="curve" smooth="yes"/>
      <point x="973" y="940"/>
      <point x="1140" y="818"/>
      <point x="1140" y="490" type="curve" smooth="yes"/>
      <point x="1140" y="141"/>
      <point x="918" y="-19"/>
      <point x="642" y="-19" type="curve" smooth="yes"/>
      <point x="611" y="-19"/>
      <point x="519" y="-20"/>
      <point x="486" y="-2" type="curve"/>
      <point x="486" y="226" type="line"/>
      <point x="651" y="136"/>
      <point x="816" y="172"/>
      <point x="816" y="389" type="curve" smooth="yes"/>
      <point x="816" y="535"/>
      <point x="777" y="643"/>
      <point x="683" y="643" type="curve" smooth="yes"/>
      <point x="641" y="643"/>
      <point x="588" y="623"/>
      <point x="523" y="580" type="curve"/>
      <point x="523" y="-144" type="line"/>
      <point x="768" y="-210" type="line"/>
      <point x="746" y="-370" type="line"/>
    </contour>
  </outline>
</glyph>
<glyph name="Ccaron" format="1">
  <advance width="1235"/>
  <unicode hex="010C"/>
  <outline>
    <contour>
      <point x="394" y="1600" type="line"/>
      <point x="579" y="1637" type="line"/>
      <point x="692" y="1552" type="line"/>
      <point x="702" y="1552" type="line"/>
      <point x="798" y="1634" type="line"/>
      <point x="970" y="1605" type="line"/>
      <point x="760" y="1404" type="line"/>
      <point x="602" y="1394" type="line"/>
    </contour>
    <component base="C"/>
  </outline>
</glyph>
<glyph name="ccaron" format="1">
  <advance width="777"/>
  <unicode hex="010D"/>
  <outline>
    <contour>
      <point x="179" y="1295" type="line"/>
      <point x="364" y="1332" type="line"/>
      <point x="477" y="1247" type="line"/>
      <point x="487" y="1247" type="line"/>
      <point x="583" y="1329" type="line"/>
      <point x="755" y="1300" type="line"/>
      <point x="545" y="1099" type="line"/>
      <point x="387" y="1089" type="line"/>
    </contour>
    <component base="c"/>
  </outline>
</glyph>
<glyph name="Ecaron" format="1">
  <advance width="1306"/>
  <unicode hex="011A"/>
  <outline>
    <contour>
      <point x="386.5" y="1597" type="line"/>
      <point x="571.5" y="1634" type="line"/>
      <point x="684.5" y="1549" type="line"/>
      <point x="694.5" y="1549" type="line"/>
      <point x="790.5" y="1631" type="line"/>
      <point x="962.5" y="1602" type="line"/>
      <point x="752.5" y="1401" type="line"/>
      <point x="594.5" y="1391" type="line"/>
    </contour>
    <component base="E"/>
  </outline>
</glyph>
<glyph name="ecaron" format="1">
  <advance width="839"/>
  <unicode hex="011B"/>
  <outline>
    <contour>
      <point x="162" y="1279" type="line"/>
      <point x="347" y="1316" type="line"/>
      <point x="460" y="1231" type="line"/>
      <point x="470" y="1231" type="line"/>
      <point x="566" y="1313" type="line"/>
      <point x="738" y="1284" type="line"/>
      <point x="528" y="1083" type="line"/>
      <point x="370" y="1073" type="line"/>
    </contour>
    <component base="e"/>
  </outline>
</glyph>
<glyph name="OE" format="1">
  <advance width="1832"/>
  <unicode hex="0152"/>
  <outline>
    <contour>
      <point x="0" y="619" type="curve" smooth="yes"/>
      <point x="0" y="1021"/>
      <point x="153" y="1269"/>
      <point x="607" y="1269" type="curve" smooth="yes"/>
      <point x="694" y="1269"/>
      <point x="755" y="1259"/>
      <point x="806" y="1241" type="curve"/>
      <point x="1747" y="1244" type="line"/>
      <point x="1717" y="826" type="line"/>
      <point x="1546" y="852" type="line"/>
      <point x="1463" y="1072" type="line"/>
      <point x="1134" y="1072" type="line"/>
      <point x="1134" y="712" type="line"/>
      <point x="1324" y="728.124" type="line"/>
      <point x="1344" y="729.821" type="line"/>
      <point x="1570" y="749" type="line"/>
      <point x="1535" y="502" type="line"/>
      <point x="1320" y="522.374" type="line"/>
      <point x="1300" y="525.27" type="line"/>
      <point x="1134" y="540" type="line"/>
      <point x="1134" y="178" type="line"/>
      <point x="1521" y="180" type="line"/>
      <point x="1667" y="428" type="line"/>
      <point x="1832" y="411" type="line"/>
      <point x="1802" y="0" type="line"/>
      <point x="761" y="0" type="line"/>
      <point x="697" y="-18"/>
      <point x="626" y="-27"/>
      <point x="536" y="-27" type="curve" smooth="yes"/>
      <point x="155" y="-27"/>
      <point x="0" y="210"/>
    </contour>
    <contour>
      <point x="447" y="671" type="curve" smooth="yes"/>
      <point x="447" y="548"/>
      <point x="462" y="195"/>
      <point x="640" y="195" type="curve" smooth="yes"/>
      <point x="675" y="195"/>
      <point x="716" y="209"/>
      <point x="765" y="240" type="curve"/>
      <point x="765" y="1058" type="line"/>
      <point x="705" y="1083"/>
      <point x="652" y="1104"/>
      <point x="606" y="1104" type="curve" smooth="yes"/>
      <point x="508" y="1104"/>
      <point x="447" y="1010"/>
    </contour>
  </outline>
</glyph>
<glyph name="oe" format="1">
  <advance width="1429"/>
  <unicode hex="0153"/>
  <outline>
    <contour>
      <point x="0" y="465" type="curve" smooth="yes"/>
      <point x="0" y="771"/>
      <point x="272" y="951"/>
      <point x="495" y="951" type="curve" smooth="yes"/>
      <point x="622" y="951"/>
      <point x="724" y="925"/>
      <point x="800" y="871" type="curve"/>
      <point x="877" y="922"/>
      <point x="966" y="950"/>
      <point x="1055" y="950" type="curve" smooth="yes"/>
      <point x="1275" y="950"/>
      <point x="1391" y="792"/>
      <point x="1391" y="580" type="curve" smooth="yes"/>
      <point x="1391" y="549"/>
      <point x="1376" y="432"/>
      <point x="1370" y="401" type="curve"/>
      <point x="892" y="397" type="line"/>
      <point x="900" y="265"/>
      <point x="997" y="199"/>
      <point x="1142" y="199" type="curve" smooth="yes"/>
      <point x="1218" y="199"/>
      <point x="1319" y="214"/>
      <point x="1390" y="255" type="curve"/>
      <point x="1409" y="122" type="line"/>
      <point x="1317" y="0"/>
      <point x="1122" y="-31"/>
      <point x="992" y="-31" type="curve" smooth="yes"/>
      <point x="893" y="-31"/>
      <point x="806" y="-7"/>
      <point x="736" y="41" type="curve"/>
      <point x="663" y="-3"/>
      <point x="574" y="-27"/>
      <point x="474" y="-27" type="curve" smooth="yes"/>
      <point x="106" y="-27"/>
      <point x="0" y="216"/>
    </contour>
    <contour>
      <point x="334" y="528" type="curve" smooth="yes"/>
      <point x="334" y="287"/>
      <point x="382" y="168"/>
      <point x="505" y="168" type="curve" smooth="yes"/>
      <point x="589" y="168"/>
      <point x="620" y="212"/>
      <point x="620" y="357" type="curve" smooth="yes"/>
      <point x="620" y="540"/>
      <point x="607" y="743"/>
      <point x="457" y="743" type="curve" smooth="yes"/>
      <point x="361" y="743"/>
      <point x="334" y="665"/>
    </contour>
    <contour>
      <point x="889" y="516" type="curve"/>
      <point x="1059" y="531" type="line"/>
      <point x="1064" y="546"/>
      <point x="1065" y="591"/>
      <point x="1065" y="605" type="curve" smooth="yes"/>
      <point x="1065" y="671"/>
      <point x="1044" y="743"/>
      <point x="982" y="743" type="curve" smooth="yes"/>
      <point x="912" y="743"/>
      <point x="887" y="646"/>
    </contour>
  </outline>
</glyph>
<glyph name="Rcaron" format="1">
  <advance width="1485"/>
  <unicode hex="0158"/>
  <outline>
    <contour>
      <point x="417" y="1597" type="line"/>
      <point x="602" y="1634" type="line"/>
      <point x="715" y="1549" type="line"/>
      <point x="725" y="1549" type="line"/>
      <point x="821" y="1631" type="line"/>
      <point x="993" y="1602" type="line"/>
      <point x="783" y="1401" type="line"/>
      <point x="625" y="1391" type="line"/>
    </contour>
    <component base="R"/>
  </outline>
</glyph>
<glyph name="rcaron" format="1">
  <advance width="849"/>
  <unicode hex="0159"/>
  <outline>
    <contour>
      <point x="166.5" y="1279" type="line"/>
      <point x="351.5" y="1316" type="line"/>
      <point x="464.5" y="1231" type="line"/>
      <point x="474.5" y="1231" type="line"/>
      <point x="570.5" y="1313" type="line"/>
      <point x="742.5" y="1284" type="line"/>
      <point x="532.5" y="1083" type="line"/>
      <point x="374.5" y="1073" type="line"/>
    </contour>
    <component base="r"/>
  </outline>
</glyph>
<glyph name="Scaron" format="1">
  <advance width="1008"/>
  <unicode hex="0160"/>
  <outline>
    <contour>
      <point x="219" y="1597" type="line"/>
      <point x="404" y="1634" type="line"/>
      <point x="517" y="1549" type="line"/>
      <point x="527" y="1549" type="line"/>
      <point x="623" y="1631" type="line"/>
      <point x="795" y="1602" type="line"/>
      <point x="585" y="1401" type="line"/>
      <point x="427" y="1391" type="line"/>
    </contour>
    <component base="S"/>
  </outline>
</glyph>
<glyph name="scaron" format="1">
  <advance width="739"/>
  <unicode hex="0161"/>
  <outline>
    <contour>
      <point x="132" y="1279" type="line"/>
      <point x="317" y="1316" type="line"/>
      <point x="430" y="1231" type="line"/>
      <point x="440" y="1231" type="line"/>
      <point x="536" y="1313" type="line"/>
      <point x="708" y="1284" type="line"/>
      <point x="498" y="1083" type="line"/>
      <point x="340" y="1073" type="line"/>
    </contour>
    <component base="s"/>
  </outline>
</glyph>
<glyph name="Zcaron" format="1">
  <advance width="1142"/>
  <unicode hex="017D"/>
  <outline>
    <contour>
      <point x="335.5" y="1597" type="line"/>
      <point x="520.5" y="1634" type="line"/>
      <point x="633.5" y="1549" type="line"/>
      <point x="643.5" y="1549" type="line"/>
      <point x="739.5" y="1631" type="line"/>
      <point x="911.5" y="1602" type="line"/>
      <point x="701.5" y="1401" type="line"/>
      <point x="543.5" y="1391" type="line"/>
    </contour>
    <component base="Z"/>
  </outline>
</glyph>
<glyph name="zcaron" format="1">
  <advance width="875"/>
  <unicode hex="017E"/>
  <outline>
    <contour>
      <point x="152.5" y="1279" type="line"/>
      <point x="337.5" y="1316" type="line"/>
      <point x="450.5" y="1231" type="line"/>
      <point x="460.5" y="1231" type="line"/>
      <point x="556.5" y="1313" type="line"/>
      <point x="728.5" y="1284" type="line"/>
      <point x="518.5" y="1083" type="line"/>
      <point x="360.5" y="1073" type="line"/>
    </contour>
    <component base="z"/>
  </outline>
</glyph>
<glyph name="circumflex" format="1">
  <advance width="692"/>
  <unicode hex="02C6"/>
  <outline>
    <contour>
      <point x="30" y="1325" type="line"/>
      <point x="183" y="1580" type="line"/>
      <point x="508" y="1580" type="line"/>
      <point x="662" y="1325" type="line"/>
      <point x="409" y="1316" type="line"/>
      <point x="345" y="1437" type="line"/>
      <point x="331" y="1437" type="line"/>
      <point x="263" y="1315" type="line"/>
    </contour>
  </outline>
</glyph>
<glyph name="endash" format="1">
  <advance width="880"/>
  <unicode hex="2013"/>
  <outline>
    <contour>
      <point x="61" y="367" type="line"/>
      <point x="84" y="554" type="line"/>
      <point x="819" y="562" type="line"/>
      <point x="790" y="372" type="line"/>
    </contour>
  </outline>
</glyph>
<glyph name="emdash" format="1">
  <advance width="1513"/>
  <unicode hex="2014"/>
  <outline>
    <contour>
      <point x="61" y="367" type="line"/>
      <point x="82" y="554" type="line"/>
      <point x="1452" y="562" type="line"/>
      <point x="1426" y="372" type="line"/>
    </contour>
  </outline>
</glyph>
<glyph name="dagger" format="1">
  <advance width="903"/>
  <unicode hex="2020"/>
  <outline>
    <contour>
      <point x="47" y="666" type="line"/>
      <point x="54" y="860" type="line"/>
      <point x="349" y="853" type="line"/>
      <point x="345" y="1255" type="line"/>
      <point x="557" y="1244" type="line"/>
      <point x="550" y="853" type="line"/>
      <point x="856" y="860" type="line"/>
      <point x="847" y="657" type="line"/>
      <point x="550" y="667" type="line"/>
      <point x="563" y="-362" type="line"/>
      <point x="339" y="-351" type="line"/>
      <point x="349" y="671" type="line"/>
    </contour>
  </outline>
</glyph>
<glyph name="fraction" format="1">
  <advance width="1402"/>
  <unicode hex="2044"/>
  <outline>
    <contour>
      <point x="0" y="55" type="line"/>
      <point x="557" y="608" type="line"/>
      <point x="1100" y="1227" type="line"/>
      <point x="1402" y="1225" type="line"/>
      <point x="1402" y="1150" type="line"/>
      <point x="861" y="611" type="line"/>
      <point x="368" y="1" type="line"/>
    </contour>
  </outline>
</glyph>
<glyph name="Euro" format="1">
  <advance width="1330"/>
  <unicode hex="20AC"/>
  <outline>
    <contour>
      <point x="48" y="456" type="line"/>
      <point x="64" y="589" type="line"/>
      <point x="945" y="589" type="line"/>
      <point x="918" y="456" type="line"/>
    </contour>
    <contour>
      <point x="64" y="655" type="line"/>
      <point x="80" y="789" type="line"/>
      <point x="991" y="789" type="line"/>
      <point x="964" y="655" type="line"/>
    </contour>
    <contour>
      <point x="173" y="570" type="curve" smooth="yes"/>
      <point x="173" y="909"/>
      <point x="433" y="1266"/>
      <point x="885" y="1266" type="curve" smooth="yes"/>
      <point x="1015" y="1266"/>
      <point x="1166" y="1239"/>
      <point x="1260" y="1166" type="curve"/>
      <point x="1233" y="815" type="line"/>
      <point x="1058" y="837" type="line"/>
      <point x="992" y="1027" type="line"/>
      <point x="916" y="1083"/>
      <point x="833" y="1096"/>
      <point x="759" y="1096" type="curve" smooth="yes"/>
      <point x="638" y="1096"/>
      <point x="542" y="1005"/>
      <point x="542" y="768" type="curve" smooth="yes"/>
      <point x="542" y="567"/>
      <point x="644" y="164"/>
      <point x="897" y="164" type="curve" smooth="yes"/>
      <point x="958" y="164"/>
      <point x="992" y="174"/>
      <point x="1000" y="188" type="curve"/>
      <point x="1074" y="408" type="line"/>
      <point x="1250" y="436" type="line"/>
      <point x="1279" y="127" type="line"/>
      <point x="1138" y="-2"/>
      <point x="1014" y="-23"/>
      <point x="851" y="-23" type="curve" smooth="yes"/>
      <point x="382" y="-23"/>
      <point x="173" y="266"/>
    </contour>
  </outline>
</glyph>
<glyph name="trademark" format="1">
  <advance width="1400"/>
  <unicode hex="2122"/>
  <outline>
    <contour>
      <point x="603.8" y="717.6" type="line"/>
      <point x="613.25" y="786.899" type="line"/>
      <point x="688.85" y="822.449" type="line"/>
      <point x="714.95" y="1181.1" type="line"/>
      <point x="632.15" y="1206.75" type="line"/>
      <point x="639.35" y="1277.4" type="line"/>
      <point x="932.95" y="1277.4" type="line"/>
      <point x="964.9" y="1185.15" type="line"/>
      <point x="1035.55" y="961.949" type="line"/>
      <point x="1105.75" y="1186.05" type="line"/>
      <point x="1135.9" y="1277.4" type="line"/>
      <point x="1426.9" y="1277.4" type="line"/>
      <point x="1418.8" y="1206.75" type="line"/>
      <point x="1345.9" y="1182.45" type="line"/>
      <point x="1377.4" y="820.649" type="line"/>
      <point x="1456.6" y="790.05" type="line"/>
      <point x="1450.3" y="717.6" type="line"/>
      <point x="1146.85" y="717.6" type="line"/>
      <point x="1157.2" y="786.899" type="line"/>
      <point x="1207.6" y="822.449" type="line"/>
      <point x="1183.75" y="1066.8" type="line"/>
      <point x="1082.5" y="731.55" type="line"/>
      <point x="934.15" y="714" type="line"/>
      <point x="826.6" y="1071.75" type="line"/>
      <point x="811.75" y="820.649" type="line"/>
      <point x="869.8" y="790.05" type="line"/>
      <point x="858.55" y="717.6" type="line"/>
    </contour>
    <contour>
      <point x="4" y="1277.4" type="line"/>
      <point x="603.8" y="1277.4" type="line"/>
      <point x="589.4" y="1062.8" type="line"/>
      <point x="497.05" y="1076.75" type="line"/>
      <point x="468.25" y="1197" type="line"/>
      <point x="388.45" y="1197" type="line"/>
      <point x="388.45" y="811.199" type="line"/>
      <point x="479.35" y="786.449" type="line"/>
      <point x="472.15" y="717.6" type="line"/>
      <point x="125.5" y="717.6" type="line"/>
      <point x="131.35" y="780.6" type="line"/>
      <point x="211" y="811.649" type="line"/>
      <point x="211" y="1197" type="line"/>
      <point x="131" y="1197" type="line"/>
      <point x="91.8496" y="1058.3" type="line"/>
      <point x="5.34961" y="1070" type="line"/>
    </contour>
  </outline>
</glyph>
<glyph name="lozenge" format="1">
  <advance width="788"/>
  <unicode hex="25CA"/>
  <outline>
    <contour>
      <point x="0" y="476" type="line"/>
      <point x="384" y="818" type="line"/>
      <point x="788" y="482" type="line"/>
      <point x="386" y="143" type="line"/>
    </contour>
  </outline>
</glyph>
<glyph name="a.sc" format="1">
  <advance width="1176"/>
  <outline>
    <contour>
      <point x="763" y="342" type="line"/>
      <point x="291" y="342" type="line"/>
      <point x="361" y="461" type="line"/>
      <point x="692" y="461" type="line"/>
    </contour>
    <contour>
      <point x="671" y="240" type="line"/>
      <point x="535" y="682" type="line"/>
      <point x="384" y="240" type="line"/>
      <point x="483" y="148" type="line"/>
      <point x="468" y="0" type="line"/>
      <point x="33" y="0" type="line"/>
      <point x="52" y="138" type="line"/>
      <point x="153" y="241" type="line"/>
      <point x="441" y="934" type="line"/>
      <point x="778" y="999" type="line"/>
      <point x="1055" y="238" type="line"/>
      <point x="1143" y="145" type="line"/>
      <point x="1131" y="-2" type="line"/>
      <point x="579" y="-2" type="line"/>
      <point x="595" y="136" type="line"/>
    </contour>
  </outline>
</glyph>
<glyph name="adieresis.sc" format="1">
  <advance width="1176"/>
  <outline>
    <contour>
      <point x="763" y="342" type="line"/>
      <point x="291" y="342" type="line"/>
      <point x="361" y="461" type="line"/>
      <point x="692" y="461" type="line"/>
    </contour>
    <contour>
      <point x="671" y="240" type="line"/>
      <point x="535" y="682" type="line"/>
      <point x="384" y="240" type="line"/>
      <point x="483" y="148" type="line"/>
      <point x="468" y="0" type="line"/>
      <point x="33" y="0" type="line"/>
      <point x="52" y="138" type="line"/>
      <point x="153" y="241" type="line"/>
      <point x="441" y="934" type="line"/>
      <point x="778" y="999" type="line"/>
      <point x="1055" y="238" type="line"/>
      <point x="1143" y="145" type="line"/>
      <point x="1131" y="-2" type="line"/>
      <point x="579" y="-2" type="line"/>
      <point x="595" y="136" type="line"/>
    </contour>
    <contour>
      <point x="621.6" y="1145.9" type="curve" smooth="yes"/>
      <point x="621.6" y="1191.4"/>
      <point x="651.96" y="1253"/>
      <point x="759.54" y="1253" type="curve" smooth="yes"/>
      <point x="873.72" y="1253"/>
      <point x="903.42" y="1192.8"/>
      <point x="903.42" y="1148" type="curve" smooth="yes"/>
      <point x="903.42" y="1088.5"/>
      <point x="869.76" y="1038.8"/>
      <point x="758.88" y="1038.8" type="curve" smooth="yes"/>
      <point x="644.04" y="1038.8"/>
      <point x="621.6" y="1094.8"/>
    </contour>
    <contour>
      <point x="312.6" y="1145.9" type="curve" smooth="yes"/>
      <point x="312.6" y="1191.4"/>
      <point x="342.96" y="1253"/>
      <point x="450.54" y="1253" type="curve" smooth="yes"/>
      <point x="564.72" y="1253"/>
      <point x="594.42" y="1192.8"/>
      <point x="594.42" y="1148" type="curve" smooth="yes"/>
      <point x="594.42" y="1088.5"/>
      <point x="560.76" y="1038.8"/>
      <point x="449.88" y="1038.8" type="curve" smooth="yes"/>
      <point x="335.04" y="1038.8"/>
      <point x="312.6" y="1094.8"/>
    </contour>
  </outline>
</glyph>
<glyph name="ae.sc" format="1">
  <advance width="1564"/>
  <outline>
    <contour>
      <point x="1317" y="586" type="line"/>
      <point x="1284" y="380" type="line"/>
      <point x="1170" y="396" type="line"/>
      <point x="1146" y="400" type="line"/>
      <point x="1051" y="414" type="line"/>
      <point x="1068" y="203" type="line"/>
      <point x="1231" y="180" type="line"/>
      <point x="1367" y="378" type="line"/>
      <point x="1532" y="361" type="line"/>
      <point x="1502" y="0" type="line"/>
      <point x="625" y="0" type="line"/>
      <point x="638" y="138" type="line"/>
      <point x="751" y="217" type="line"/>
      <point x="742" y="340" type="line"/>
      <point x="463" y="340" type="line"/>
      <point x="403" y="243" type="line"/>
      <point x="534" y="150" type="line"/>
      <point x="517" y="-2" type="line"/>
      <point x="33" y="-2" type="line"/>
      <point x="53" y="162" type="line"/>
      <point x="137" y="237" type="line"/>
      <point x="499" y="755" type="line"/>
      <point x="369" y="829" type="line"/>
      <point x="390" y="979" type="line"/>
      <point x="1487" y="979" type="line"/>
      <point x="1457" y="611" type="line"/>
      <point x="1286" y="637" type="line"/>
      <point x="1203" y="807" type="line"/>
      <point x="1018" y="807" type="line"/>
      <point x="1039" y="550" type="line"/>
      <point x="1158" y="566" type="line"/>
      <point x="1185" y="569" type="line"/>
    </contour>
    <contour>
      <point x="546" y="473" type="line"/>
      <point x="733" y="473" type="line"/>
      <point x="714" y="743" type="line"/>
    </contour>
  </outline>
</glyph>
<glyph name="ampersand.sc" format="1">
  <advance width="1141"/>
  <outline>
    <contour>
      <point x="522" y="760" type="curve" smooth="yes"/>
      <point x="522" y="838"/>
      <point x="473" y="876"/>
      <point x="432" y="876" type="curve" smooth="yes"/>
      <point x="400" y="876"/>
      <point x="372" y="856"/>
      <point x="372" y="819" type="curve" smooth="yes"/>
      <point x="372" y="747"/>
      <point x="428" y="685"/>
      <point x="495" y="618" type="curve" smooth="yes"/>
      <point x="845" y="264" type="line" smooth="yes"/>
      <point x="910" y="199"/>
      <point x="978" y="172"/>
      <point x="1061" y="151" type="curve" smooth="yes"/>
      <point x="1085" y="145" type="line"/>
      <point x="1054" y="11" type="line"/>
      <point x="1030" y="0"/>
      <point x="986" y="-13"/>
      <point x="889" y="-13" type="curve" smooth="yes"/>
      <point x="759" y="-13"/>
      <point x="670" y="79"/>
      <point x="565" y="186" type="curve" smooth="yes"/>
      <point x="264" y="492" type="line" smooth="yes"/>
      <point x="185" y="572"/>
      <point x="140" y="648"/>
      <point x="140" y="734" type="curve" smooth="yes"/>
      <point x="140" y="899"/>
      <point x="313" y="997"/>
      <point x="480" y="997" type="curve" smooth="yes"/>
      <point x="625" y="997"/>
      <point x="742" y="919"/>
      <point x="742" y="808" type="curve" smooth="yes"/>
      <point x="742" y="496"/>
      <point x="308" y="510"/>
      <point x="308" y="277" type="curve" smooth="yes"/>
      <point x="308" y="227"/>
      <point x="338" y="167"/>
      <point x="416" y="167" type="curve" smooth="yes"/>
      <point x="533" y="167"/>
      <point x="658" y="252"/>
      <point x="769" y="452" type="curve"/>
      <point x="715" y="519" type="line"/>
      <point x="740" y="656" type="line"/>
      <point x="1108" y="656" type="line"/>
      <point x="1086" y="519" type="line"/>
      <point x="948" y="456" type="line"/>
      <point x="706" y="74"/>
      <point x="493" y="-18"/>
      <point x="309" y="-18" type="curve" smooth="yes"/>
      <point x="128" y="-18"/>
      <point x="33" y="67"/>
      <point x="33" y="205" type="curve" smooth="yes"/>
      <point x="33" y="494"/>
      <point x="522" y="497"/>
    </contour>
  </outline>
</glyph>
<glyph name="aring.sc" format="1">
  <advance width="1176"/>
  <outline>
    <contour>
      <point x="763" y="342" type="line"/>
      <point x="291" y="342" type="line"/>
      <point x="361" y="461" type="line"/>
      <point x="692" y="461" type="line"/>
    </contour>
    <contour>
      <point x="671" y="240" type="line"/>
      <point x="535" y="682" type="line"/>
      <point x="384" y="240" type="line"/>
      <point x="483" y="148" type="line"/>
      <point x="468" y="0" type="line"/>
      <point x="33" y="0" type="line"/>
      <point x="52" y="138" type="line"/>
      <point x="153" y="241" type="line"/>
      <point x="441" y="934" type="line"/>
      <point x="778" y="999" type="line"/>
      <point x="1055" y="238" type="line"/>
      <point x="1143" y="145" type="line"/>
      <point x="1131" y="-2" type="line"/>
      <point x="579" y="-2" type="line"/>
      <point x="595" y="136" type="line"/>
    </contour>
    <contour>
      <point x="327" y="1196" type="curve" smooth="yes"/>
      <point x="327" y="1290"/>
      <point x="409" y="1369"/>
      <point x="611" y="1369" type="curve" smooth="yes"/>
      <point x="813" y="1369"/>
      <point x="896" y="1309"/>
      <point x="896" y="1205" type="curve" smooth="yes"/>
      <point x="896" y="1119"/>
      <point x="815" y="1034"/>
      <point x="603" y="1034" type="curve" smooth="yes"/>
      <point x="398" y="1034"/>
      <point x="327" y="1097"/>
    </contour>
    <contour>
      <point x="538" y="1201" type="curve" smooth="yes"/>
      <point x="538" y="1157"/>
      <point x="571" y="1144"/>
      <point x="606" y="1144" type="curve" smooth="yes"/>
      <point x="638" y="1144"/>
      <point x="673" y="1163"/>
      <point x="673" y="1201" type="curve" smooth="yes"/>
      <point x="673" y="1238"/>
      <point x="637" y="1260"/>
      <point x="600" y="1260" type="curve" smooth="yes"/>
      <point x="570" y="1260"/>
      <point x="538" y="1235"/>
    </contour>
  </outline>
</glyph>
<glyph name="c.sc" format="1">
  <advance width="980"/>
  <outline>
    <contour>
      <point x="35" y="439" type="curve" smooth="yes"/>
      <point x="35" y="722"/>
      <point x="198" y="997"/>
      <point x="610" y="997" type="curve" smooth="yes"/>
      <point x="706" y="997"/>
      <point x="845" y="970"/>
      <point x="902" y="928" type="curve"/>
      <point x="871" y="554" type="line"/>
      <point x="701" y="577" type="line"/>
      <point x="637" y="769" type="line"/>
      <point x="611" y="786"/>
      <point x="580" y="792"/>
      <point x="557" y="792" type="curve" smooth="yes"/>
      <point x="470" y="792"/>
      <point x="427" y="690"/>
      <point x="427" y="532" type="curve" smooth="yes"/>
      <point x="427" y="326"/>
      <point x="536" y="205"/>
      <point x="682" y="205" type="curve" smooth="yes"/>
      <point x="774" y="205"/>
      <point x="836" y="230"/>
      <point x="888" y="263" type="curve"/>
      <point x="947" y="128" type="line"/>
      <point x="887" y="52"/>
      <point x="737" y="-29"/>
      <point x="553" y="-29" type="curve" smooth="yes"/>
      <point x="198" y="-29"/>
      <point x="35" y="148"/>
    </contour>
  </outline>
</glyph>
<glyph name="ccedilla.sc" format="1">
  <advance width="980"/>
  <outline>
    <contour>
      <point x="35" y="439" type="curve" smooth="yes"/>
      <point x="35" y="722"/>
      <point x="198" y="997"/>
      <point x="610" y="997" type="curve" smooth="yes"/>
      <point x="706" y="997"/>
      <point x="845" y="970"/>
      <point x="902" y="928" type="curve"/>
      <point x="871" y="554" type="line"/>
      <point x="701" y="577" type="line"/>
      <point x="637" y="769" type="line"/>
      <point x="611" y="786"/>
      <point x="580" y="792"/>
      <point x="557" y="792" type="curve" smooth="yes"/>
      <point x="470" y="792"/>
      <point x="427" y="690"/>
      <point x="427" y="532" type="curve" smooth="yes"/>
      <point x="427" y="326"/>
      <point x="536" y="205"/>
      <point x="682" y="205" type="curve" smooth="yes"/>
      <point x="774" y="205"/>
      <point x="836" y="230"/>
      <point x="888" y="263" type="curve"/>
      <point x="947" y="128" type="line"/>
      <point x="887" y="52"/>
      <point x="737" y="-29"/>
      <point x="553" y="-29" type="curve" smooth="yes"/>
      <point x="198" y="-29"/>
      <point x="35" y="148"/>
    </contour>
    <contour>
      <point x="364" y="-303" type="line"/>
      <point x="444" y="-302"/>
      <point x="501" y="-269"/>
      <point x="501" y="-239" type="curve" smooth="yes"/>
      <point x="501" y="-200"/>
      <point x="398" y="-165"/>
      <point x="345" y="-147" type="curve"/>
      <point x="533" y="0" type="line"/>
      <point x="707" y="0" type="line"/>
      <point x="589" y="-86" type="line"/>
      <point x="695" y="-95"/>
      <point x="764" y="-139"/>
      <point x="764" y="-229" type="curve" smooth="yes"/>
      <point x="764" y="-338"/>
      <point x="671" y="-391"/>
      <point x="400" y="-391" type="curve"/>
    </contour>
  </outline>
</glyph>
<glyph name="d.sc" format="1">
  <advance width="1184"/>
  <outline>
    <contour>
      <point x="33" y="0" type="line"/>
      <point x="46" y="158" type="line"/>
      <point x="166" y="241" type="line"/>
      <point x="166" y="742" type="line"/>
      <point x="53" y="788" type="line"/>
      <point x="60" y="945" type="line"/>
      <point x="168" y="970"/>
      <point x="390" y="997"/>
      <point x="573" y="997" type="curve" smooth="yes"/>
      <point x="999" y="997"/>
      <point x="1149" y="781"/>
      <point x="1149" y="520" type="curve" smooth="yes"/>
      <point x="1149" y="219"/>
      <point x="930" y="0"/>
      <point x="561" y="0" type="curve" smooth="yes"/>
    </contour>
    <contour>
      <point x="536" y="202" type="line"/>
      <point x="571" y="202" type="line" smooth="yes"/>
      <point x="762" y="202"/>
      <point x="783" y="393"/>
      <point x="783" y="497" type="curve" smooth="yes"/>
      <point x="783" y="624"/>
      <point x="720" y="796"/>
      <point x="554" y="796" type="curve" smooth="yes"/>
      <point x="547" y="796"/>
      <point x="541" y="796"/>
      <point x="536" y="795" type="curve"/>
    </contour>
  </outline>
</glyph>
<glyph name="edieresis.sc" format="1">
  <advance width="1079"/>
  <outline>
    <contour>
      <point x="33" y="835" type="line"/>
      <point x="52" y="979" type="line"/>
      <point x="1045" y="979" type="line"/>
      <point x="1015" y="611" type="line"/>
      <point x="844" y="637" type="line"/>
      <point x="761" y="807" type="line"/>
      <point x="536" y="807" type="line"/>
      <point x="536" y="559" type="line"/>
      <point x="661" y="575" type="line"/>
      <point x="688" y="578" type="line"/>
      <point x="825" y="596" type="line"/>
      <point x="792" y="390" type="line"/>
      <point x="679" y="406" type="line"/>
      <point x="649" y="411" type="line"/>
      <point x="536" y="427" type="line"/>
      <point x="536" y="203" type="line"/>
      <point x="739" y="180" type="line"/>
      <point x="875" y="378" type="line"/>
      <point x="1040" y="361" type="line"/>
      <point x="1010" y="0" type="line"/>
      <point x="49" y="0" type="line"/>
      <point x="59" y="158" type="line"/>
      <point x="163" y="217" type="line"/>
      <point x="163" y="765" type="line"/>
    </contour>
    <contour>
      <point x="587.6" y="1147.9" type="curve" smooth="yes"/>
      <point x="587.6" y="1193.4"/>
      <point x="617.96" y="1255"/>
      <point x="725.54" y="1255" type="curve" smooth="yes"/>
      <point x="839.72" y="1255"/>
      <point x="869.42" y="1194.8"/>
      <point x="869.42" y="1150" type="curve" smooth="yes"/>
      <point x="869.42" y="1090.5"/>
      <point x="835.76" y="1040.8"/>
      <point x="724.88" y="1040.8" type="curve" smooth="yes"/>
      <point x="610.04" y="1040.8"/>
      <point x="587.6" y="1096.8"/>
    </contour>
    <contour>
      <point x="278.6" y="1147.9" type="curve" smooth="yes"/>
      <point x="278.6" y="1193.4"/>
      <point x="308.96" y="1255"/>
      <point x="416.54" y="1255" type="curve" smooth="yes"/>
      <point x="530.72" y="1255"/>
      <point x="560.42" y="1194.8"/>
      <point x="560.42" y="1150" type="curve" smooth="yes"/>
      <point x="560.42" y="1090.5"/>
      <point x="526.76" y="1040.8"/>
      <point x="415.88" y="1040.8" type="curve" smooth="yes"/>
      <point x="301.04" y="1040.8"/>
      <point x="278.6" y="1096.8"/>
    </contour>
  </outline>
</glyph>
<glyph name="egrave.sc" format="1">
  <advance width="1079"/>
  <outline>
    <contour>
      <point x="33" y="835" type="line"/>
      <point x="52" y="979" type="line"/>
      <point x="1045" y="979" type="line"/>
      <point x="1015" y="611" type="line"/>
      <point x="844" y="637" type="line"/>
      <point x="761" y="807" type="line"/>
      <point x="536" y="807" type="line"/>
      <point x="536" y="559" type="line"/>
      <point x="661" y="575" type="line"/>
      <point x="688" y="578" type="line"/>
      <point x="825" y="596" type="line"/>
      <point x="792" y="390" type="line"/>
      <point x="679" y="406" type="line"/>
      <point x="649" y="411" type="line"/>
      <point x="536" y="427" type="line"/>
      <point x="536" y="203" type="line"/>
      <point x="739" y="180" type="line"/>
      <point x="875" y="378" type="line"/>
      <point x="1040" y="361" type="line"/>
      <point x="1010" y="0" type="line"/>
      <point x="49" y="0" type="line"/>
      <point x="59" y="158" type="line"/>
      <point x="163" y="217" type="line"/>
      <point x="163" y="765" type="line"/>
    </contour>
    <contour>
      <point x="707" y="1063" type="line"/>
      <point x="562" y="1368" type="line"/>
      <point x="212" y="1358" type="line"/>
      <point x="473" y="1037" type="line"/>
    </contour>
  </outline>
</glyph>
<glyph name="eight.osf" format="1">
  <advance width="1053"/>
  <outline>
    <contour>
      <point x="48" y="270" type="curve" smooth="yes"/>
      <point x="48" y="391"/>
      <point x="117" y="495"/>
      <point x="272" y="558" type="curve"/>
      <point x="272" y="573" type="line"/>
      <point x="164" y="659"/>
      <point x="103" y="754"/>
      <point x="103" y="863" type="curve" smooth="yes"/>
      <point x="103" y="1032"/>
      <point x="246" y="1199"/>
      <point x="563" y="1199" type="curve" smooth="yes"/>
      <point x="802" y="1199"/>
      <point x="946" y="1064"/>
      <point x="946" y="925" type="curve" smooth="yes"/>
      <point x="946" y="834"/>
      <point x="873" y="738"/>
      <point x="753" y="681" type="curve"/>
      <point x="754" y="665" type="line"/>
      <point x="936" y="546"/>
      <point x="1007" y="448"/>
      <point x="1007" y="331" type="curve" smooth="yes"/>
      <point x="1007" y="140"/>
      <point x="800" y="-27"/>
      <point x="495" y="-27" type="curve" smooth="yes"/>
      <point x="190" y="-27"/>
      <point x="48" y="120"/>
    </contour>
    <contour>
      <point x="400" y="347" type="curve" smooth="yes"/>
      <point x="400" y="224"/>
      <point x="452" y="115"/>
      <point x="576" y="115" type="curve" smooth="yes"/>
      <point x="633" y="115"/>
      <point x="674" y="157"/>
      <point x="674" y="193" type="curve" smooth="yes"/>
      <point x="674" y="272"/>
      <point x="567" y="325"/>
      <point x="414" y="454" type="curve"/>
      <point x="392" y="418"/>
      <point x="400" y="389"/>
    </contour>
    <contour>
      <point x="458" y="986" type="curve" smooth="yes"/>
      <point x="458" y="926"/>
      <point x="513" y="828"/>
      <point x="608" y="769" type="curve"/>
      <point x="642" y="792"/>
      <point x="647" y="830"/>
      <point x="647" y="874" type="curve" smooth="yes"/>
      <point x="647" y="999"/>
      <point x="576" y="1063"/>
      <point x="521" y="1063" type="curve" smooth="yes"/>
      <point x="486" y="1063"/>
      <point x="458" y="1037"/>
    </contour>
  </outline>
</glyph>
<glyph name="euro.osf" format="1">
  <advance width="1080"/>
  <outline>
    <contour>
      <point x="127" y="439" type="curve" smooth="yes"/>
      <point x="127" y="722"/>
      <point x="290" y="997"/>
      <point x="702" y="997" type="curve" smooth="yes"/>
      <point x="795" y="997"/>
      <point x="929" y="970"/>
      <point x="984" y="928" type="curve"/>
      <point x="961" y="620" type="line"/>
      <point x="811" y="643" type="line"/>
      <point x="779" y="779" type="line"/>
      <point x="737" y="811"/>
      <point x="687" y="822"/>
      <point x="649" y="822" type="curve" smooth="yes"/>
      <point x="542" y="822"/>
      <point x="489" y="708"/>
      <point x="489" y="532" type="curve" smooth="yes"/>
      <point x="489" y="331"/>
      <point x="566" y="199"/>
      <point x="731" y="199" type="curve" smooth="yes"/>
      <point x="836" y="199"/>
      <point x="922" y="268"/>
      <point x="960" y="313" type="curve"/>
      <point x="1047" y="199" type="line"/>
      <point x="979" y="76"/>
      <point x="826" y="-28"/>
      <point x="621" y="-28" type="curve" smooth="yes"/>
      <point x="286" y="-28"/>
      <point x="127" y="159"/>
    </contour>
    <contour>
      <point x="32" y="511" type="line"/>
      <point x="54" y="647" type="line"/>
      <point x="732" y="647" type="line"/>
      <point x="705" y="511" type="line"/>
    </contour>
    <contour>
      <point x="37" y="321" type="line"/>
      <point x="53" y="454" type="line"/>
      <point x="690" y="454" type="line"/>
      <point x="663" y="321" type="line"/>
    </contour>
  </outline>
</glyph>
<glyph name="f_a" format="1">
  <advance width="1514"/>
  <outline>
    <contour>
      <point x="645" y="1313" type="curve" smooth="yes"/>
      <point x="802" y="1313"/>
      <point x="874" y="1251.73"/>
      <point x="874" y="1145" type="curve" smooth="yes"/>
      <point x="874" y="1042"/>
      <point x="763" y="983"/>
      <point x="691" y="982" type="curve"/>
      <point x="638.861" y="1066.94"/>
      <point x="520.006" y="1111.55"/>
      <point x="471.913" y="1111.55" type="curve" smooth="yes"/>
      <point x="408.198" y="1111.55"/>
      <point x="418" y="934"/>
      <point x="430" y="815" type="curve"/>
      <point x="574" y="868"/>
      <point x="848.197" y="937.516"/>
      <point x="1053.54" y="937.516" type="curve" smooth="yes"/>
      <point x="1232.57" y="937.516"/>
      <point x="1393" y="869.816"/>
      <point x="1393" y="641" type="curve" smooth="yes"/>
      <point x="1393" y="374" type="line" smooth="yes"/>
      <point x="1393" y="253.049"/>
      <point x="1423.36" y="218.34"/>
      <point x="1481" y="200" type="curve"/>
      <point x="1509" y="192" type="line"/>
      <point x="1484" y="34" type="line"/>
      <point x="1430.07" y="0"/>
      <point x="1371.4" y="-24"/>
      <point x="1308" y="-24" type="curve" smooth="yes"/>
      <point x="1197.2" y="-24"/>
      <point x="1130" y="29"/>
      <point x="1123" y="126" type="curve" smooth="yes"/>
      <point x="1122" y="139" type="line"/>
      <point x="1108" y="139" type="line"/>
      <point x="1093.57" y="62.418"/>
      <point x="985.381" y="-21.0566"/>
      <point x="865.011" y="-21.0566" type="curve" smooth="yes"/>
      <point x="709.142" y="-21.0566"/>
      <point x="619.057" y="90.4033"/>
      <point x="619.057" y="220.458" type="curve" smooth="yes"/>
      <point x="619.057" y="453.694"/>
      <point x="836.538" y="547.438"/>
      <point x="1085" y="539" type="curve"/>
      <point x="1080.47" y="672.896"/>
      <point x="1001.67" y="679.233"/>
      <point x="922" y="690" type="curve" smooth="yes"/>
      <point x="774" y="710"/>
      <point x="465.533" y="693.165"/>
      <point x="432.519" y="688.341" type="curve"/>
      <point x="452" y="230" type="line"/>
      <point x="599" y="173" type="line"/>
      <point x="576" y="0" type="line"/>
      <point x="-10" y="0" type="line"/>
      <point x="11" y="143" type="line"/>
      <point x="126" y="215" type="line"/>
      <point x="114.702" y="694.236" type="line"/>
      <point x="72.4678" y="689.491"/>
      <point x="30.2344" y="674.745"/>
      <point x="-12" y="670" type="curve"/>
      <point x="1" y="828" type="line"/>
      <point x="120.122" y="811.18" type="line"/>
      <point x="138" y="1146"/>
      <point x="427.309" y="1313"/>
    </contour>
    <contour>
      <point x="1003" y="225" type="curve" smooth="yes"/>
      <point x="1028" y="225"/>
      <point x="1057" y="234"/>
      <point x="1085" y="254" type="curve"/>
      <point x="1085" y="413" type="line"/>
      <point x="1036" y="413"/>
      <point x="923.807" y="380.847"/>
      <point x="923.807" y="305.664" type="curve" smooth="yes"/>
      <point x="923.807" y="250"/>
      <point x="950.459" y="225"/>
    </contour>
  </outline>
</glyph>
<glyph name="five.osf" format="1">
  <advance width="958"/>
  <outline>
    <contour>
      <point x="27" y="-108" type="curve" smooth="yes"/>
      <point x="27" y="4"/>
      <point x="109" y="72"/>
      <point x="231" y="96" type="curve"/>
      <point x="252" y="-2"/>
      <point x="301" y="-159"/>
      <point x="468" y="-159" type="curve" smooth="yes"/>
      <point x="574" y="-159"/>
      <point x="625" y="-73"/>
      <point x="625" y="5" type="curve" smooth="yes"/>
      <point x="625" y="144"/>
      <point x="452" y="267"/>
      <point x="161" y="292" type="curve"/>
      <point x="321" y="980" type="line"/>
      <point x="883" y="1017" type="line"/>
      <point x="842" y="700" type="line"/>
      <point x="385" y="697" type="line"/>
      <point x="367" y="568" type="line"/>
      <point x="736" y="530"/>
      <point x="908" y="337"/>
      <point x="908" y="138" type="curve" smooth="yes"/>
      <point x="908" y="-89"/>
      <point x="733" y="-308"/>
      <point x="379" y="-308" type="curve" smooth="yes"/>
      <point x="176" y="-308"/>
      <point x="27" y="-214"/>
    </contour>
  </outline>
</glyph>
<glyph name="germandbls.sc.alt" format="1">
  <advance width="1429"/>
  <outline>
    <contour>
      <point x="1397" y="280" type="curve" smooth="yes"/>
      <point x="1397" y="424"/>
      <point x="1214" y="546"/>
      <point x="1024" y="594" type="curve"/>
      <point x="1312" y="828" type="line"/>
      <point x="1322" y="945" type="line"/>
      <point x="1229" y="970"/>
      <point x="1042" y="997"/>
      <point x="809" y="997" type="curve" smooth="yes"/>
      <point x="446" y="997"/>
      <point x="139" y="868"/>
      <point x="139" y="569" type="curve" smooth="yes"/>
      <point x="139" y="193" type="line"/>
      <point x="45" y="137" type="line"/>
      <point x="32" y="1" type="line"/>
      <point x="499" y="1" type="line"/>
      <point x="499" y="592" type="line" smooth="yes"/>
      <point x="499" y="787"/>
      <point x="578" y="844"/>
      <point x="753" y="844" type="curve" smooth="yes"/>
      <point x="816" y="844"/>
      <point x="889" y="828"/>
      <point x="970" y="800" type="curve"/>
      <point x="970" y="792" type="line"/>
      <point x="644" y="519" type="line"/>
      <point x="670" y="452" type="line"/>
      <point x="771" y="433"/>
      <point x="1059" y="319"/>
      <point x="1058" y="219" type="curve" smooth="yes"/>
      <point x="1058" y="174"/>
      <point x="1004" y="144"/>
      <point x="942" y="144" type="curve" smooth="yes"/>
      <point x="897" y="144"/>
      <point x="844" y="154"/>
      <point x="822" y="173" type="curve"/>
      <point x="783" y="328" type="line"/>
      <point x="606" y="357" type="line"/>
      <point x="569" y="40" type="line"/>
      <point x="616" y="3"/>
      <point x="761" y="-25"/>
      <point x="960" y="-25" type="curve" smooth="yes"/>
      <point x="1109" y="-25"/>
      <point x="1397" y="25"/>
    </contour>
  </outline>
</glyph>
<glyph name="germandbls.sc" format="1">
  <advance width="1424"/>
  <outline>
    <contour>
      <point x="32" y="0" type="line"/>
      <point x="45" y="136" type="line"/>
      <point x="139" y="192" type="line"/>
      <point x="139" y="547" type="line" smooth="yes"/>
      <point x="139" y="861"/>
      <point x="420" y="997"/>
      <point x="786" y="997" type="curve" smooth="yes"/>
      <point x="1190" y="997"/>
      <point x="1345" y="933"/>
      <point x="1345" y="780" type="curve" smooth="yes"/>
      <point x="1345" y="697"/>
      <point x="1303" y="633"/>
      <point x="1195" y="603" type="curve"/>
      <point x="1122" y="737"/>
      <point x="1048" y="813"/>
      <point x="977" y="813" type="curve" smooth="yes"/>
      <point x="929" y="813"/>
      <point x="898" y="783"/>
      <point x="898" y="741" type="curve" smooth="yes"/>
      <point x="898" y="595"/>
      <point x="1392" y="545"/>
      <point x="1392" y="282" type="curve" smooth="yes"/>
      <point x="1392" y="27"/>
      <point x="1104" y="-23"/>
      <point x="955" y="-23" type="curve" smooth="yes"/>
      <point x="756" y="-23"/>
      <point x="611" y="5"/>
      <point x="564" y="42" type="curve"/>
      <point x="601" y="359" type="line"/>
      <point x="778" y="330" type="line"/>
      <point x="817" y="175" type="line"/>
      <point x="839" y="156"/>
      <point x="892" y="146"/>
      <point x="937" y="146" type="curve" smooth="yes"/>
      <point x="1008" y="146"/>
      <point x="1051" y="161"/>
      <point x="1051" y="208" type="curve" smooth="yes"/>
      <point x="1051" y="307"/>
      <point x="573" y="373"/>
      <point x="573" y="642" type="curve" smooth="yes"/>
      <point x="573" y="752"/>
      <point x="644" y="818"/>
      <point x="696" y="829" type="curve"/>
      <point x="696" y="839" type="line"/>
      <point x="565" y="849"/>
      <point x="499" y="777"/>
      <point x="499" y="570" type="curve" smooth="yes"/>
      <point x="499" y="0" type="line"/>
    </contour>
  </outline>
</glyph>
<glyph name="h.sc" format="1">
  <advance width="1306"/>
  <outline>
    <contour>
      <point x="33" y="829" type="line"/>
      <point x="58" y="979" type="line"/>
      <point x="620" y="979" type="line"/>
      <point x="601" y="821" type="line"/>
      <point x="532" y="762" type="line"/>
      <point x="532" y="587" type="line"/>
      <point x="769" y="587" type="line"/>
      <point x="769" y="755" type="line"/>
      <point x="698" y="819" type="line"/>
      <point x="715" y="979" type="line"/>
      <point x="1273" y="979" type="line"/>
      <point x="1254" y="829" type="line"/>
      <point x="1146" y="762" type="line"/>
      <point x="1146" y="211" type="line"/>
      <point x="1265" y="148" type="line"/>
      <point x="1251" y="0" type="line"/>
      <point x="678" y="0" type="line"/>
      <point x="692" y="146" type="line"/>
      <point x="769" y="217" type="line"/>
      <point x="769" y="386" type="line"/>
      <point x="532" y="386" type="line"/>
      <point x="532" y="211" type="line"/>
      <point x="613" y="148" type="line"/>
      <point x="595" y="0" type="line"/>
      <point x="38" y="0" type="line"/>
      <point x="50" y="138" type="line"/>
      <point x="159" y="217" type="line"/>
      <point x="159" y="755" type="line"/>
    </contour>
  </outline>
</glyph>
<glyph name="iacute.sc" format="1">
  <advance width="693"/>
  <outline>
    <contour>
      <point x="33" y="829" type="line"/>
      <point x="53" y="979" type="line"/>
      <point x="660" y="979" type="line"/>
      <point x="644" y="819" type="line"/>
      <point x="525" y="752" type="line"/>
      <point x="525" y="223" type="line"/>
      <point x="645" y="160" type="line"/>
      <point x="632" y="0" type="line"/>
      <point x="35" y="0" type="line"/>
      <point x="45" y="142" type="line"/>
      <point x="161" y="221" type="line"/>
      <point x="161" y="755" type="line"/>
    </contour>
    <contour>
      <point x="202.5" y="1065" type="line"/>
      <point x="347.5" y="1370" type="line"/>
      <point x="697.5" y="1360" type="line"/>
      <point x="436.5" y="1039" type="line"/>
    </contour>
  </outline>
</glyph>
<glyph name="icircumflex.sc" format="1">
  <advance width="693"/>
  <outline>
    <contour>
      <point x="33" y="829" type="line"/>
      <point x="53" y="979" type="line"/>
      <point x="660" y="979" type="line"/>
      <point x="644" y="819" type="line"/>
      <point x="525" y="752" type="line"/>
      <point x="525" y="223" type="line"/>
      <point x="645" y="160" type="line"/>
      <point x="632" y="0" type="line"/>
      <point x="35" y="0" type="line"/>
      <point x="45" y="142" type="line"/>
      <point x="161" y="221" type="line"/>
      <point x="161" y="755" type="line"/>
    </contour>
    <contour>
      <point x="38.5" y="1051" type="line"/>
      <point x="191.5" y="1306" type="line"/>
      <point x="516.5" y="1306" type="line"/>
      <point x="670.5" y="1051" type="line"/>
      <point x="417.5" y="1042" type="line"/>
      <point x="353.5" y="1163" type="line"/>
      <point x="339.5" y="1163" type="line"/>
      <point x="271.5" y="1041" type="line"/>
    </contour>
  </outline>
</glyph>
<glyph name="idieresis.sc" format="1">
  <advance width="693"/>
  <outline>
    <contour>
      <point x="33" y="829" type="line"/>
      <point x="53" y="979" type="line"/>
      <point x="660" y="979" type="line"/>
      <point x="644" y="819" type="line"/>
      <point x="525" y="752" type="line"/>
      <point x="525" y="223" type="line"/>
      <point x="645" y="160" type="line"/>
      <point x="632" y="0" type="line"/>
      <point x="35" y="0" type="line"/>
      <point x="45" y="142" type="line"/>
      <point x="161" y="221" type="line"/>
      <point x="161" y="755" type="line"/>
    </contour>
    <contour>
      <point x="370.09" y="1146.1" type="curve" smooth="yes"/>
      <point x="370.09" y="1191.6"/>
      <point x="400.45" y="1253.2"/>
      <point x="508.03" y="1253.2" type="curve" smooth="yes"/>
      <point x="622.21" y="1253.2"/>
      <point x="651.91" y="1193"/>
      <point x="651.91" y="1148.2" type="curve" smooth="yes"/>
      <point x="651.91" y="1088.7"/>
      <point x="618.25" y="1039"/>
      <point x="507.37" y="1039" type="curve" smooth="yes"/>
      <point x="392.53" y="1039"/>
      <point x="370.09" y="1095"/>
    </contour>
    <contour>
      <point x="61.0898" y="1146.1" type="curve" smooth="yes"/>
      <point x="61.0898" y="1191.6"/>
      <point x="91.4502" y="1253.2"/>
      <point x="199.03" y="1253.2" type="curve" smooth="yes"/>
      <point x="313.21" y="1253.2"/>
      <point x="342.91" y="1193"/>
      <point x="342.91" y="1148.2" type="curve" smooth="yes"/>
      <point x="342.91" y="1088.7"/>
      <point x="309.25" y="1039"/>
      <point x="198.37" y="1039" type="curve" smooth="yes"/>
      <point x="83.5303" y="1039"/>
      <point x="61.0898" y="1095"/>
    </contour>
  </outline>
</glyph>
<glyph name="j.sc" format="1">
  <advance width="727"/>
  <outline>
    <contour>
      <point x="33" y="-151" type="line"/>
      <point x="144" y="-57"/>
      <point x="197" y="18"/>
      <point x="197" y="185" type="curve" smooth="yes"/>
      <point x="197" y="755" type="line"/>
      <point x="62" y="829" type="line"/>
      <point x="81" y="979" type="line"/>
      <point x="694" y="979" type="line"/>
      <point x="674" y="829" type="line"/>
      <point x="564" y="762" type="line"/>
      <point x="564" y="334" type="line" smooth="yes"/>
      <point x="564" y="-20"/>
      <point x="492" y="-162"/>
      <point x="150" y="-326" type="curve"/>
    </contour>
  </outline>
</glyph>
<glyph name="k.sc" format="1">
  <advance width="1298"/>
  <outline>
    <contour>
      <point x="33" y="829" type="line"/>
      <point x="65" y="979" type="line"/>
      <point x="655" y="979" type="line"/>
      <point x="632" y="809" type="line"/>
      <point x="548" y="735" type="line"/>
      <point x="548" y="220" type="line"/>
      <point x="635" y="168" type="line"/>
      <point x="611" y="0" type="line"/>
      <point x="36" y="0" type="line"/>
      <point x="52" y="138" type="line"/>
      <point x="184" y="241" type="line"/>
      <point x="184" y="728" type="line"/>
    </contour>
    <contour>
      <point x="583" y="501" type="line"/>
      <point x="605" y="525"/>
      <point x="632" y="550"/>
      <point x="666" y="598" type="curve" smooth="yes"/>
      <point x="773" y="738" type="line"/>
      <point x="786" y="817" type="line"/>
      <point x="813" y="979" type="line"/>
      <point x="1221" y="979" type="line"/>
      <point x="1191" y="829" type="line"/>
      <point x="1020" y="735" type="line"/>
      <point x="865" y="541" type="line"/>
      <point x="970" y="390" type="line" smooth="yes"/>
      <point x="1052" y="272"/>
      <point x="1142" y="176"/>
      <point x="1220" y="149" type="curve" smooth="yes"/>
      <point x="1265" y="133" type="line"/>
      <point x="1233" y="0" type="line"/>
      <point x="1177" y="-15"/>
      <point x="1134" y="-24"/>
      <point x="1078" y="-24" type="curve" smooth="yes"/>
      <point x="906" y="-24"/>
      <point x="753" y="43"/>
      <point x="637" y="282" type="curve" smooth="yes"/>
      <point x="572" y="416" type="line"/>
    </contour>
  </outline>
</glyph>
<glyph name="m.sc" format="1">
  <advance width="1513"/>
  <outline>
    <contour>
      <point x="33" y="0" type="line"/>
      <point x="54" y="154" type="line"/>
      <point x="172" y="233" type="line"/>
      <point x="207" y="766" type="line"/>
      <point x="83" y="823" type="line"/>
      <point x="99" y="980" type="line"/>
      <point x="673" y="980" type="line"/>
      <point x="717" y="775" type="line"/>
      <point x="781" y="443" type="line"/>
      <point x="857" y="777" type="line"/>
      <point x="914" y="980" type="line"/>
      <point x="1444" y="980" type="line"/>
      <point x="1426" y="823" type="line"/>
      <point x="1334" y="769" type="line"/>
      <point x="1364" y="229" type="line"/>
      <point x="1480" y="161" type="line"/>
      <point x="1466" y="0" type="line"/>
      <point x="955" y="0" type="line"/>
      <point x="978" y="154" type="line"/>
      <point x="1040" y="213" type="line"/>
      <point x="1027" y="629" type="line"/>
      <point x="872" y="81" type="line"/>
      <point x="579" y="42" type="line"/>
      <point x="444" y="620" type="line"/>
      <point x="420" y="229" type="line"/>
      <point x="479" y="161" type="line"/>
      <point x="454" y="0" type="line"/>
    </contour>
  </outline>
</glyph>
<glyph name="n.sc" format="1">
  <advance width="1225"/>
  <outline>
    <contour>
      <point x="37" y="822" type="line"/>
      <point x="51" y="979" type="line"/>
      <point x="511" y="979" type="line"/>
      <point x="865" y="453" type="line"/>
      <point x="865" y="755" type="line"/>
      <point x="727" y="829" type="line"/>
      <point x="751" y="979" type="line"/>
      <point x="1192" y="979" type="line"/>
      <point x="1167" y="829" type="line"/>
      <point x="1079" y="762" type="line"/>
      <point x="1079" y="15" type="line"/>
      <point x="752" y="-29" type="line"/>
      <point x="387" y="539" type="line"/>
      <point x="387" y="211" type="line"/>
      <point x="517" y="148" type="line"/>
      <point x="504" y="0" type="line"/>
      <point x="33" y="0" type="line"/>
      <point x="43" y="138" type="line"/>
      <point x="164" y="217" type="line"/>
      <point x="164" y="738" type="line"/>
    </contour>
  </outline>
</glyph>
<glyph name="numbersign.osf" format="1">
  <advance width="1208"/>
  <outline>
    <contour>
      <point x="234" y="-26" type="line"/>
      <point x="402" y="988" type="line"/>
      <point x="615" y="998" type="line"/>
      <point x="447" y="-19" type="line"/>
    </contour>
    <contour>
      <point x="93" y="549" type="line"/>
      <point x="148" y="771" type="line"/>
      <point x="1175" y="771" type="line"/>
      <point x="1122" y="549" type="line"/>
    </contour>
    <contour>
      <point x="31" y="205" type="line"/>
      <point x="86" y="427" type="line"/>
      <point x="1111" y="427" type="line"/>
      <point x="1057" y="205" type="line"/>
    </contour>
    <contour>
      <point x="589" y="-26" type="line"/>
      <point x="757" y="988" type="line"/>
      <point x="971" y="997" type="line"/>
      <point x="803" y="-19" type="line"/>
    </contour>
  </outline>
</glyph>
<glyph name="oacute.sc" format="1">
  <advance width="1135"/>
  <outline>
    <contour>
      <point x="35" y="469" type="curve" smooth="yes"/>
      <point x="35" y="782"/>
      <point x="237" y="997"/>
      <point x="573" y="997" type="curve" smooth="yes"/>
      <point x="881" y="997"/>
      <point x="1100" y="864"/>
      <point x="1100" y="504" type="curve" smooth="yes"/>
      <point x="1100" y="158"/>
      <point x="850" y="-27"/>
      <point x="533" y="-27" type="curve" smooth="yes"/>
      <point x="190" y="-27"/>
      <point x="35" y="177"/>
    </contour>
    <contour>
      <point x="438" y="531" type="curve" smooth="yes"/>
      <point x="438" y="426"/>
      <point x="460" y="163"/>
      <point x="571" y="163" type="curve" smooth="yes"/>
      <point x="643" y="163"/>
      <point x="681" y="263"/>
      <point x="681" y="494" type="curve" smooth="yes"/>
      <point x="681" y="627"/>
      <point x="641" y="822"/>
      <point x="542" y="822" type="curve" smooth="yes"/>
      <point x="466" y="822"/>
      <point x="438" y="711"/>
    </contour>
    <contour>
      <point x="404" y="1064" type="line"/>
      <point x="549" y="1369" type="line"/>
      <point x="899" y="1359" type="line"/>
      <point x="638" y="1038" type="line"/>
    </contour>
  </outline>
</glyph>
<glyph name="odieresis.sc" format="1">
  <advance width="1135"/>
  <outline>
    <contour>
      <point x="35" y="469" type="curve" smooth="yes"/>
      <point x="35" y="782"/>
      <point x="237" y="997"/>
      <point x="573" y="997" type="curve" smooth="yes"/>
      <point x="881" y="997"/>
      <point x="1100" y="864"/>
      <point x="1100" y="504" type="curve" smooth="yes"/>
      <point x="1100" y="158"/>
      <point x="850" y="-27"/>
      <point x="533" y="-27" type="curve" smooth="yes"/>
      <point x="190" y="-27"/>
      <point x="35" y="177"/>
    </contour>
    <contour>
      <point x="438" y="531" type="curve" smooth="yes"/>
      <point x="438" y="426"/>
      <point x="460" y="163"/>
      <point x="571" y="163" type="curve" smooth="yes"/>
      <point x="643" y="163"/>
      <point x="681" y="263"/>
      <point x="681" y="494" type="curve" smooth="yes"/>
      <point x="681" y="627"/>
      <point x="641" y="822"/>
      <point x="542" y="822" type="curve" smooth="yes"/>
      <point x="466" y="822"/>
      <point x="438" y="711"/>
    </contour>
    <contour>
      <point x="576.6" y="1143.9" type="curve" smooth="yes"/>
      <point x="576.6" y="1189.4"/>
      <point x="606.96" y="1251"/>
      <point x="714.54" y="1251" type="curve" smooth="yes"/>
      <point x="828.72" y="1251"/>
      <point x="858.42" y="1190.8"/>
      <point x="858.42" y="1146" type="curve" smooth="yes"/>
      <point x="858.42" y="1086.5"/>
      <point x="824.76" y="1036.8"/>
      <point x="713.88" y="1036.8" type="curve" smooth="yes"/>
      <point x="599.04" y="1036.8"/>
      <point x="576.6" y="1092.8"/>
    </contour>
    <contour>
      <point x="267.6" y="1143.9" type="curve" smooth="yes"/>
      <point x="267.6" y="1189.4"/>
      <point x="297.96" y="1251"/>
      <point x="405.54" y="1251" type="curve" smooth="yes"/>
      <point x="519.72" y="1251"/>
      <point x="549.42" y="1190.8"/>
      <point x="549.42" y="1146" type="curve" smooth="yes"/>
      <point x="549.42" y="1086.5"/>
      <point x="515.76" y="1036.8"/>
      <point x="404.88" y="1036.8" type="curve" smooth="yes"/>
      <point x="290.04" y="1036.8"/>
      <point x="267.6" y="1092.8"/>
    </contour>
  </outline>
</glyph>
<glyph name="ograve.sc" format="1">
  <advance width="1135"/>
  <outline>
    <contour>
      <point x="35" y="469" type="curve" smooth="yes"/>
      <point x="35" y="782"/>
      <point x="237" y="997"/>
      <point x="573" y="997" type="curve" smooth="yes"/>
      <point x="881" y="997"/>
      <point x="1100" y="864"/>
      <point x="1100" y="504" type="curve" smooth="yes"/>
      <point x="1100" y="158"/>
      <point x="850" y="-27"/>
      <point x="533" y="-27" type="curve" smooth="yes"/>
      <point x="190" y="-27"/>
      <point x="35" y="177"/>
    </contour>
    <contour>
      <point x="438" y="531" type="curve" smooth="yes"/>
      <point x="438" y="426"/>
      <point x="460" y="163"/>
      <point x="571" y="163" type="curve" smooth="yes"/>
      <point x="643" y="163"/>
      <point x="681" y="263"/>
      <point x="681" y="494" type="curve" smooth="yes"/>
      <point x="681" y="627"/>
      <point x="641" y="822"/>
      <point x="542" y="822" type="curve" smooth="yes"/>
      <point x="466" y="822"/>
      <point x="438" y="711"/>
    </contour>
    <contour>
      <point x="675" y="1063" type="line"/>
      <point x="530" y="1368" type="line"/>
      <point x="180" y="1358" type="line"/>
      <point x="441" y="1037" type="line"/>
    </contour>
  </outline>
</glyph>
<glyph name="otilde.sc" format="1">
  <advance width="1135"/>
  <outline>
    <contour>
      <point x="35" y="469" type="curve" smooth="yes"/>
      <point x="35" y="782"/>
      <point x="237" y="997"/>
      <point x="573" y="997" type="curve" smooth="yes"/>
      <point x="881" y="997"/>
      <point x="1100" y="864"/>
      <point x="1100" y="504" type="curve" smooth="yes"/>
      <point x="1100" y="158"/>
      <point x="850" y="-27"/>
      <point x="533" y="-27" type="curve" smooth="yes"/>
      <point x="190" y="-27"/>
      <point x="35" y="177"/>
    </contour>
    <contour>
      <point x="438" y="531" type="curve" smooth="yes"/>
      <point x="438" y="426"/>
      <point x="460" y="163"/>
      <point x="571" y="163" type="curve" smooth="yes"/>
      <point x="643" y="163"/>
      <point x="681" y="263"/>
      <point x="681" y="494" type="curve" smooth="yes"/>
      <point x="681" y="627"/>
      <point x="641" y="822"/>
      <point x="542" y="822" type="curve" smooth="yes"/>
      <point x="466" y="822"/>
      <point x="438" y="711"/>
    </contour>
    <contour>
      <point x="366" y="1035" type="curve"/>
      <point x="249" y="1046" type="line"/>
      <point x="256" y="1320"/>
      <point x="388" y="1354"/>
      <point x="554" y="1303" type="curve" smooth="yes"/>
      <point x="624" y="1281" type="line" smooth="yes"/>
      <point x="714" y="1253"/>
      <point x="756" y="1262"/>
      <point x="775" y="1331" type="curve"/>
      <point x="890" y="1320" type="line"/>
      <point x="876" y="1063"/>
      <point x="774" y="1006"/>
      <point x="596" y="1061" type="curve" smooth="yes"/>
      <point x="530" y="1081" type="line" smooth="yes"/>
      <point x="415" y="1116"/>
      <point x="389" y="1099"/>
    </contour>
  </outline>
</glyph>
<glyph name="percent.osf" format="1">
  <advance width="1326"/>
  <outline>
    <contour>
      <point x="32" y="706" type="curve" smooth="yes"/>
      <point x="32" y="826"/>
      <point x="167" y="980"/>
      <point x="302" y="980" type="curve" smooth="yes"/>
      <point x="312" y="980"/>
      <point x="309" y="980"/>
      <point x="319" y="978" type="curve"/>
      <point x="326" y="874" type="line"/>
      <point x="324" y="874"/>
      <point x="313" y="876"/>
      <point x="311" y="876" type="curve" smooth="yes"/>
      <point x="276" y="876"/>
      <point x="265" y="811"/>
      <point x="265" y="706" type="curve" smooth="yes"/>
      <point x="265" y="603"/>
      <point x="264" y="529"/>
      <point x="313" y="529" type="curve" smooth="yes"/>
      <point x="351" y="529"/>
      <point x="359" y="600"/>
      <point x="359" y="706" type="curve" smooth="yes"/>
      <point x="359" y="831"/>
      <point x="357" y="919"/>
      <point x="352" y="980" type="curve"/>
      <point x="929" y="979" type="line"/>
      <point x="936" y="909" type="line"/>
      <point x="501" y="890" type="line"/>
      <point x="571" y="828"/>
      <point x="581" y="750"/>
      <point x="581" y="706" type="curve" smooth="yes"/>
      <point x="581" y="551"/>
      <point x="440" y="427"/>
      <point x="313" y="426" type="curve" smooth="yes"/>
      <point x="146" y="425"/>
      <point x="32" y="530"/>
    </contour>
    <contour>
      <point x="128" y="31" type="line"/>
      <point x="571" y="517" type="line"/>
      <point x="929" y="979" type="line"/>
      <point x="1179" y="978" type="line"/>
      <point x="1179" y="912" type="line"/>
      <point x="822" y="520" type="line"/>
      <point x="427" y="-17" type="line"/>
    </contour>
    <contour>
      <point x="740" y="243" type="curve" smooth="yes"/>
      <point x="740" y="392"/>
      <point x="896" y="518"/>
      <point x="1025" y="518" type="curve" smooth="yes"/>
      <point x="1165" y="518"/>
      <point x="1292" y="397"/>
      <point x="1292" y="240" type="curve" smooth="yes"/>
      <point x="1292" y="91"/>
      <point x="1148" y="-32"/>
      <point x="1026" y="-32" type="curve" smooth="yes"/>
      <point x="863" y="-32"/>
      <point x="740" y="76"/>
    </contour>
    <contour>
      <point x="975" y="234" type="curve" smooth="yes"/>
      <point x="975" y="131"/>
      <point x="980" y="77"/>
      <point x="1026" y="77" type="curve" smooth="yes"/>
      <point x="1059" y="77"/>
      <point x="1067" y="131"/>
      <point x="1067" y="237" type="curve" smooth="yes"/>
      <point x="1067" y="343"/>
      <point x="1053" y="417"/>
      <point x="1025" y="417" type="curve" smooth="yes"/>
      <point x="982" y="417"/>
      <point x="975" y="334"/>
    </contour>
  </outline>
</glyph>
<glyph name="q.sc" format="1">
  <advance width="1119"/>
  <outline>
    <contour>
      <point x="35" y="486" type="curve" smooth="yes"/>
      <point x="35" y="784"/>
      <point x="257" y="997"/>
      <point x="589" y="997" type="curve" smooth="yes"/>
      <point x="883" y="997"/>
      <point x="1084" y="858"/>
      <point x="1084" y="521" type="curve" smooth="yes"/>
      <point x="1084" y="251"/>
      <point x="919" y="54"/>
      <point x="723" y="-4" type="curve"/>
      <point x="772" y="-123"/>
      <point x="898" y="-162"/>
      <point x="998" y="-180" type="curve"/>
      <point x="977" y="-295" type="line"/>
      <point x="909" y="-329"/>
      <point x="839" y="-345"/>
      <point x="775" y="-345" type="curve" smooth="yes"/>
      <point x="601" y="-345"/>
      <point x="476" y="-224"/>
      <point x="514" y="-26" type="curve"/>
      <point x="213" y="-24"/>
      <point x="35" y="174"/>
    </contour>
    <contour>
      <point x="430" y="528" type="curve" smooth="yes"/>
      <point x="430" y="319"/>
      <point x="482" y="173"/>
      <point x="589" y="147" type="curve"/>
      <point x="659" y="210"/>
      <point x="674" y="325"/>
      <point x="674" y="481" type="curve" smooth="yes"/>
      <point x="674" y="601"/>
      <point x="650" y="822"/>
      <point x="531" y="822" type="curve" smooth="yes"/>
      <point x="458" y="822"/>
      <point x="430" y="710"/>
    </contour>
  </outline>
</glyph>
<glyph name="r.sc" format="1">
  <advance width="1334"/>
  <outline>
    <contour>
      <point x="33" y="0" type="line"/>
      <point x="52" y="138" type="line"/>
      <point x="192" y="217" type="line"/>
      <point x="192" y="738" type="line"/>
      <point x="50" y="785" type="line"/>
      <point x="62" y="945" type="line"/>
      <point x="192" y="974"/>
      <point x="376" y="997"/>
      <point x="619" y="997" type="curve" smooth="yes"/>
      <point x="961" y="997"/>
      <point x="1145" y="923"/>
      <point x="1145" y="706" type="curve" smooth="yes"/>
      <point x="1145" y="552"/>
      <point x="1050" y="460"/>
      <point x="942" y="416" type="curve"/>
      <point x="942" y="415" type="line"/>
      <point x="1003" y="353" type="line" smooth="yes"/>
      <point x="1122" y="232"/>
      <point x="1186" y="176"/>
      <point x="1272" y="146" type="curve" smooth="yes"/>
      <point x="1301" y="133" type="line"/>
      <point x="1270" y="2" type="line"/>
      <point x="1226" y="-16"/>
      <point x="1141" y="-27"/>
      <point x="1056" y="-27" type="curve" smooth="yes"/>
      <point x="891" y="-27"/>
      <point x="781" y="58"/>
      <point x="678" y="272" type="curve" smooth="yes"/>
      <point x="641" y="353" type="line"/>
      <point x="562" y="353" type="line"/>
      <point x="562" y="209" type="line"/>
      <point x="665" y="155" type="line"/>
      <point x="653" y="0" type="line"/>
    </contour>
    <contour>
      <point x="562" y="512" type="line"/>
      <point x="717" y="512" type="line"/>
      <point x="748" y="544"/>
      <point x="764" y="587"/>
      <point x="764" y="658" type="curve" smooth="yes"/>
      <point x="764" y="742"/>
      <point x="698" y="817"/>
      <point x="595" y="817" type="curve" smooth="yes"/>
      <point x="584" y="817"/>
      <point x="573" y="817"/>
      <point x="562" y="816" type="curve"/>
    </contour>
  </outline>
</glyph>
<glyph name="s.sc" format="1">
  <advance width="889"/>
  <outline>
    <contour>
      <point x="33" y="46" type="curve"/>
      <point x="67" y="368" type="line"/>
      <point x="244" y="339" type="line"/>
      <point x="286" y="192" type="line"/>
      <point x="309" y="168"/>
      <point x="363" y="156"/>
      <point x="410" y="156" type="curve" smooth="yes"/>
      <point x="471" y="156"/>
      <point x="524" y="191"/>
      <point x="524" y="226" type="curve" smooth="yes"/>
      <point x="524" y="323"/>
      <point x="61" y="346"/>
      <point x="61" y="667" type="curve" smooth="yes"/>
      <point x="61" y="869"/>
      <point x="241" y="997"/>
      <point x="471" y="997" type="curve" smooth="yes"/>
      <point x="641" y="997"/>
      <point x="772" y="967"/>
      <point x="819" y="947" type="curve"/>
      <point x="819" y="926"/>
      <point x="791" y="635"/>
      <point x="791" y="635" type="curve"/>
      <point x="618" y="665" type="line"/>
      <point x="579" y="808" type="line"/>
      <point x="557" y="826"/>
      <point x="502" y="837"/>
      <point x="459" y="837" type="curve" smooth="yes"/>
      <point x="390" y="837"/>
      <point x="344" y="805"/>
      <point x="344" y="770" type="curve" smooth="yes"/>
      <point x="344" y="625"/>
      <point x="856" y="621"/>
      <point x="856" y="292" type="curve" smooth="yes"/>
      <point x="856" y="48"/>
      <point x="579" y="-23"/>
      <point x="435" y="-23" type="curve" smooth="yes"/>
      <point x="256" y="-23"/>
      <point x="81" y="7"/>
    </contour>
  </outline>
</glyph>
<glyph name="seven.osf" format="1">
  <advance width="926"/>
  <outline>
    <contour>
      <point x="48" y="567" type="line"/>
      <point x="101" y="993" type="line"/>
      <point x="880" y="993" type="line"/>
      <point x="878" y="817" type="line"/>
      <point x="615" y="423"/>
      <point x="446" y="131"/>
      <point x="417" y="-294" type="curve"/>
      <point x="380" y="-299"/>
      <point x="344" y="-302"/>
      <point x="311" y="-302" type="curve" smooth="yes"/>
      <point x="197" y="-302"/>
      <point x="118" y="-252"/>
      <point x="118" y="-128" type="curve" smooth="yes"/>
      <point x="118" y="35"/>
      <point x="442" y="443"/>
      <point x="639" y="710" type="curve"/>
      <point x="248" y="710" type="line"/>
      <point x="185" y="543" type="line"/>
    </contour>
  </outline>
</glyph>
<glyph name="six.osf" format="1">
  <advance width="1046"/>
  <outline>
    <contour>
      <point x="53" y="420" type="curve" smooth="yes"/>
      <point x="53" y="877"/>
      <point x="456" y="1204"/>
      <point x="742" y="1275" type="curve"/>
      <point x="809" y="1185" type="line"/>
      <point x="630" y="1098"/>
      <point x="478" y="889"/>
      <point x="438" y="713" type="curve"/>
      <point x="457" y="713" type="line"/>
      <point x="514" y="775"/>
      <point x="592" y="805"/>
      <point x="671" y="805" type="curve" smooth="yes"/>
      <point x="904" y="805"/>
      <point x="996" y="648"/>
      <point x="996" y="423" type="curve" smooth="yes"/>
      <point x="996" y="109"/>
      <point x="737" y="-19"/>
      <point x="521" y="-19" type="curve" smooth="yes"/>
      <point x="217" y="-19"/>
      <point x="53" y="185"/>
    </contour>
    <contour>
      <point x="425" y="386" type="curve" smooth="yes"/>
      <point x="425" y="267"/>
      <point x="442" y="122"/>
      <point x="526" y="122" type="curve" smooth="yes"/>
      <point x="573" y="122"/>
      <point x="628" y="161"/>
      <point x="628" y="350" type="curve" smooth="yes"/>
      <point x="628" y="414"/>
      <point x="622" y="603"/>
      <point x="521" y="603" type="curve" smooth="yes"/>
      <point x="477" y="603"/>
      <point x="451" y="576"/>
      <point x="431" y="549" type="curve"/>
      <point x="429" y="517"/>
      <point x="425" y="440"/>
    </contour>
  </outline>
</glyph>
<glyph name="sterling.osf" format="1">
  <advance width="1187"/>
  <outline>
    <contour>
      <point x="32" y="0" type="line"/>
      <point x="38" y="138" type="line"/>
      <point x="206" y="193" type="line"/>
      <point x="237" y="251"/>
      <point x="245" y="295"/>
      <point x="245" y="379" type="curve" smooth="yes"/>
      <point x="245" y="391" type="line"/>
      <point x="69" y="382" type="line"/>
      <point x="80" y="537" type="line"/>
      <point x="250" y="547" type="line"/>
      <point x="255" y="624" type="line" smooth="yes"/>
      <point x="273" y="898"/>
      <point x="543" y="997"/>
      <point x="768" y="997" type="curve" smooth="yes"/>
      <point x="1034" y="997"/>
      <point x="1135" y="891"/>
      <point x="1135" y="789" type="curve" smooth="yes"/>
      <point x="1135" y="691"/>
      <point x="1015" y="621"/>
      <point x="884" y="625" type="curve"/>
      <point x="877" y="765"/>
      <point x="809" y="858"/>
      <point x="726" y="858" type="curve" smooth="yes"/>
      <point x="606" y="858"/>
      <point x="581" y="792"/>
      <point x="581" y="633" type="curve" smooth="yes"/>
      <point x="581" y="562" type="line"/>
      <point x="837" y="569" type="line"/>
      <point x="827" y="414" type="line"/>
      <point x="578" y="404" type="line"/>
      <point x="578" y="390" type="line" smooth="yes"/>
      <point x="578" y="289"/>
      <point x="560" y="240"/>
      <point x="515" y="188" type="curve"/>
      <point x="849" y="158" type="line"/>
      <point x="989" y="404" type="line"/>
      <point x="1152" y="364" type="line"/>
      <point x="1136" y="0" type="line"/>
    </contour>
  </outline>
</glyph>
<glyph name="thorn.sc" format="1">
  <advance width="1025"/>
  <outline>
    <contour>
      <point x="33" y="829" type="line"/>
      <point x="53" y="979" type="line"/>
      <point x="660" y="979" type="line"/>
      <point x="644" y="859" type="line"/>
      <point x="525" y="802" type="line"/>
      <point x="525" y="183" type="line"/>
      <point x="645" y="130" type="line"/>
      <point x="632" y="0" type="line"/>
      <point x="35" y="0" type="line"/>
      <point x="45" y="142" type="line"/>
      <point x="161" y="221" type="line"/>
      <point x="161" y="755" type="line"/>
    </contour>
    <contour>
      <point x="312" y="766" type="line"/>
      <point x="392" y="772"/>
      <point x="477" y="775"/>
      <point x="580" y="775" type="curve" smooth="yes"/>
      <point x="830" y="775"/>
      <point x="992" y="711"/>
      <point x="992" y="503" type="curve" smooth="yes"/>
      <point x="992" y="311"/>
      <point x="822" y="193"/>
      <point x="580" y="216" type="curve"/>
      <point x="548" y="340" type="line"/>
      <point x="559" y="341" type="line" smooth="yes"/>
      <point x="619" y="346"/>
      <point x="652" y="397"/>
      <point x="652" y="475" type="curve" smooth="yes"/>
      <point x="652" y="552"/>
      <point x="618" y="598"/>
      <point x="560" y="598" type="curve" smooth="yes"/>
      <point x="549" y="598"/>
      <point x="538" y="597"/>
      <point x="526" y="595" type="curve"/>
    </contour>
  </outline>
</glyph>
<glyph name="two.osf" format="1">
  <advance width="962"/>
  <outline>
    <contour>
      <point x="45" y="163" type="line"/>
      <point x="310" y="342" type="line" smooth="yes"/>
      <point x="447" y="434"/>
      <point x="505" y="549"/>
      <point x="505" y="641" type="curve" smooth="yes"/>
      <point x="505" y="737"/>
      <point x="443" y="809"/>
      <point x="347" y="809" type="curve" smooth="yes"/>
      <point x="270" y="809"/>
      <point x="207" y="720"/>
      <point x="185" y="626" type="curve"/>
      <point x="69" y="714" type="line"/>
      <point x="85" y="843"/>
      <point x="232" y="1037"/>
      <point x="522" y="1037" type="curve" smooth="yes"/>
      <point x="764" y="1037"/>
      <point x="842" y="842"/>
      <point x="842" y="727" type="curve" smooth="yes"/>
      <point x="842" y="580"/>
      <point x="706" y="411"/>
      <point x="544" y="309" type="curve" smooth="yes"/>
      <point x="385" y="209" type="line"/>
      <point x="666" y="209" type="line"/>
      <point x="781" y="375" type="line"/>
      <point x="916" y="362" type="line"/>
      <point x="870" y="0" type="line"/>
      <point x="75" y="0" type="line"/>
    </contour>
  </outline>
</glyph>
<glyph name="ucircumflex.sc" format="1">
  <advance width="1227"/>
  <outline>
    <contour>
      <point x="33" y="829" type="line"/>
      <point x="62" y="979" type="line"/>
      <point x="662" y="979" type="line"/>
      <point x="640" y="829" type="line"/>
      <point x="545" y="762" type="line"/>
      <point x="545" y="346" type="line" smooth="yes"/>
      <point x="545" y="236"/>
      <point x="602" y="193"/>
      <point x="684" y="193" type="curve" smooth="yes"/>
      <point x="762" y="193"/>
      <point x="815" y="235"/>
      <point x="815" y="332" type="curve" smooth="yes"/>
      <point x="815" y="755" type="line"/>
      <point x="709" y="829" type="line"/>
      <point x="729" y="979" type="line"/>
      <point x="1194" y="979" type="line"/>
      <point x="1177" y="829" type="line"/>
      <point x="1062" y="762" type="line"/>
      <point x="1058" y="360" type="line" smooth="yes"/>
      <point x="1052" y="92"/>
      <point x="904" y="-27"/>
      <point x="633" y="-27" type="curve" smooth="yes"/>
      <point x="451" y="-27"/>
      <point x="173" y="-11"/>
      <point x="173" y="329" type="curve" smooth="yes"/>
      <point x="173" y="755" type="line"/>
    </contour>
    <contour>
      <point x="338" y="1051" type="line"/>
      <point x="491" y="1306" type="line"/>
      <point x="816" y="1306" type="line"/>
      <point x="970" y="1051" type="line"/>
      <point x="717" y="1042" type="line"/>
      <point x="653" y="1163" type="line"/>
      <point x="639" y="1163" type="line"/>
      <point x="571" y="1041" type="line"/>
    </contour>
  </outline>
</glyph>
